<?xml version="1.0" encoding="UTF-8"?>
<svg version="1.1" xmlns="http://www.w3.org/2000/svg" width="489" height="489">
<path d="M0 0 C1.97819833 0.54519246 3.9572887 1.08716483 5.9375 1.625 C6.89527344 1.88539063 7.85304688 2.14578125 8.83984375 2.4140625 C9.55269531 2.60742188 10.26554688 2.80078125 11 3 C11 3.66 11 4.32 11 5 C12.11375 5.268125 13.2275 5.53625 14.375 5.8125 C18 7 18 7 20 10 C19 11 19 11 16.75 11.1875 C14 11 14 11 11.66650391 10.05297852 C8.94377657 8.97779787 6.47021091 8.43830186 3.5859375 7.96484375 C2.57789063 7.79533203 1.56984375 7.62582031 0.53125 7.45117188 C-0.5103125 7.28166016 -1.551875 7.11214844 -2.625 6.9375 C-4.70086069 6.59449845 -6.77639838 6.24953467 -8.8515625 5.90234375 C-9.76760254 5.75273193 -10.68364258 5.60312012 -11.62744141 5.44897461 C-14 5 -14 5 -17 4 C-43.59968543 1.85627948 -68.37474309 6.50540477 -91.94140625 19.08203125 C-94 20 -94 20 -97 20 C-97 20.66 -97 21.32 -97 22 C-97.51046875 22.268125 -98.0209375 22.53625 -98.546875 22.8125 C-103.30797988 25.3787693 -107.83816711 28.16945668 -112.328125 31.1875 C-113.92769043 32.26064453 -113.92769043 32.26064453 -115.55957031 33.35546875 C-116.36491211 33.89816406 -117.17025391 34.44085938 -118 35 C-117.17387207 35.00410889 -116.34774414 35.00821777 -115.49658203 35.01245117 C-112.3835014 35.03968246 -109.27171457 35.08902839 -106.15917969 35.15258789 C-104.16883601 35.18674765 -102.17811696 35.19619144 -100.1875 35.20507812 C-91.24252954 35.40837291 -83.52496747 36.41188572 -77.00561523 43.0222168 C-72.75844044 48.17364111 -72.1551291 53.30012513 -72.4765625 59.8359375 C-73.46906795 65.83541075 -75.8256574 70.24991937 -80.5625 74.0625 C-83 75 -83 75 -87 75 C-87 75.66 -87 76.32 -87 77 C-94.59 77 -102.18 77 -110 77 C-110 82.94 -110 88.88 -110 95 C-113.63 95 -117.26 95 -121 95 C-121.33 76.52 -121.66 58.04 -122 39 C-126.36230128 41.58775801 -126.36230128 41.58775801 -130.04296875 44.69921875 C-130.81737305 45.42915039 -130.81737305 45.42915039 -131.60742188 46.17382812 C-132.6727721 47.19440467 -133.73787086 48.21524376 -134.80273438 49.23632812 C-138.79755299 53 -138.79755299 53 -141 53 C-141.226875 53.556875 -141.45375 54.11375 -141.6875 54.6875 C-144.11420254 58.96311877 -147.43250373 62.13916819 -152 64 C-151.175 64.94875 -150.35 65.8975 -149.5 66.875 C-147 69.75 -147 69.75 -147 72 C-146.360625 72.268125 -145.72125 72.53625 -145.0625 72.8125 C-143 74 -143 74 -142 77 C-141.34 77.309375 -140.68 77.61875 -140 77.9375 C-139.34 78.288125 -138.68 78.63875 -138 79 C-137.66666667 80.33333333 -137.33333333 81.66666667 -137 83 C-135.68596724 83.70394612 -134.3479743 84.36345658 -133 85 C-130.01601087 87.69979969 -127.3335669 90.13265598 -126 94 C-126.33 94.66 -126.66 95.32 -127 96 C-130.9166043 96.0580966 -134.83309763 96.09362893 -138.75 96.125 C-139.86117187 96.14175781 -140.97234375 96.15851563 -142.1171875 96.17578125 C-143.72207031 96.18544922 -143.72207031 96.18544922 -145.359375 96.1953125 C-146.34389648 96.20578613 -147.32841797 96.21625977 -148.34277344 96.22705078 C-152.2400419 95.89404273 -154.25798379 94.87219449 -156.78125 91.90625 C-158.5 89.5 -158.5 89.5 -160.21875 87.09375 C-162.03630186 84.95732939 -163.42559541 84.03879484 -166 83 C-166.48210937 83.5775 -166.96421875 84.155 -167.4609375 84.75 C-168.09257812 85.4925 -168.72421875 86.235 -169.375 87 C-170.00148437 87.7425 -170.62796875 88.485 -171.2734375 89.25 C-171.84320313 89.8275 -172.41296875 90.405 -173 91 C-173.66 91 -174.32 91 -175 91 C-175.28875 91.639375 -175.5775 92.27875 -175.875 92.9375 C-177 95 -177 95 -179 96 C-180.71662123 96.09629649 -182.43693118 96.13075026 -184.15625 96.1328125 C-185.17847656 96.13410156 -186.20070312 96.13539063 -187.25390625 96.13671875 C-188.32511719 96.13285156 -189.39632812 96.12898438 -190.5 96.125 C-192.10681641 96.13080078 -192.10681641 96.13080078 -193.74609375 96.13671875 C-194.76832031 96.13542969 -195.79054687 96.13414062 -196.84375 96.1328125 C-197.78412109 96.13168457 -198.72449219 96.13055664 -199.69335938 96.12939453 C-202 96 -202 96 -204 95 C-204 93.68 -204 92.36 -204 91 C-203.34 91 -202.68 91 -202 91 C-202 90.34 -202 89.68 -202 89 C-200.53125 87.625 -200.53125 87.625 -198.5 86 C-195.21161209 83.22197917 -192.56485745 80.34638061 -189.9375 76.9375 C-186.64145716 72.66243454 -183.22679831 69.34621533 -179 66 C-179.825 65.21625 -180.65 64.4325 -181.5 63.625 C-184 61 -184 61 -184 59 C-185.485 58.505 -185.485 58.505 -187 58 C-187.4640625 56.7934375 -187.4640625 56.7934375 -187.9375 55.5625 C-189.23676057 52.42898921 -190.01323599 52.36537783 -193 51 C-195.77263477 48.55744079 -197.6955466 46.77008802 -199.0625 43.3125 C-199.80256311 40.83276526 -199.80256311 40.83276526 -202.125 39.6875 C-202.74375 39.460625 -203.3625 39.23375 -204 39 C-203.67 38.01 -203.34 37.02 -203 36 C-199.22923111 35.94200876 -195.45857666 35.90640694 -191.6875 35.875 C-190.61564453 35.85824219 -189.54378906 35.84148437 -188.43945312 35.82421875 C-187.41142578 35.81777344 -186.38339844 35.81132812 -185.32421875 35.8046875 C-184.37635498 35.79421387 -183.42849121 35.78374023 -182.4519043 35.77294922 C-180 36 -180 36 -177 38 C-177 38.66 -177 39.32 -177 40 C-176.34 40 -175.68 40 -175 40 C-173.4921875 41.4609375 -173.4921875 41.4609375 -171.875 43.375 C-171.33617187 44.00148437 -170.79734375 44.62796875 -170.2421875 45.2734375 C-169 47 -169 47 -169 49 C-165.99135897 49.96706319 -163.94639752 50.27677226 -161 49 C-160.71125 48.4225 -160.4225 47.845 -160.125 47.25 C-158.50016816 44.00033633 -155.79848333 42.19832666 -153 40 C-151.6696875 38.8553125 -151.6696875 38.8553125 -150.3125 37.6875 C-137.46694712 27 -137.46694712 27 -134 27 C-134 26.34 -134 25.68 -134 25 C-121.31476323 16 -121.31476323 16 -116 16 C-116 15.34 -116 14.68 -116 14 C-110.375 11 -110.375 11 -107 11 C-107 10.34 -107 9.68 -107 9 C-106.14277344 8.67386719 -105.28554688 8.34773437 -104.40234375 8.01171875 C-103.25894531 7.57472656 -102.11554688 7.13773438 -100.9375 6.6875 C-99.81214844 6.25824219 -98.68679688 5.82898438 -97.52734375 5.38671875 C-95.16591483 4.45836076 -92.82271292 3.48230903 -90.5 2.4609375 C-63.40629716 -8.84826436 -27.77560676 -8.42482859 0 0 Z M-110 46 C-110 52.93 -110 59.86 -110 67 C-106.98875 67.103125 -103.9775 67.20625 -100.875 67.3125 C-99.93769043 67.35802002 -99.00038086 67.40354004 -98.03466797 67.45043945 C-93.79505769 67.52042237 -90.85036074 67.3854058 -87.44140625 64.703125 C-84.4429297 61.38321177 -84.08047167 59.42594158 -84 55 C-84.18796235 51.71065882 -84.88780508 51.10333743 -87.375 48.8125 C-90.68000569 46.53047226 -93.08592771 45.87282652 -97.01171875 45.90234375 C-97.69451904 45.90484131 -98.37731934 45.90733887 -99.08081055 45.90991211 C-99.94101807 45.91901611 -100.80122559 45.92812012 -101.6875 45.9375 C-104.430625 45.958125 -107.17375 45.97875 -110 46 Z " fill="#6CBB4D" transform="translate(377,188)"/>
<path d="M0 0 C7.52969652 -0.02526648 15.0593822 -0.04283141 22.58911133 -0.05493164 C25.15291757 -0.0599737 27.71672091 -0.06680714 30.28051758 -0.07543945 C33.95655021 -0.08751064 37.63254498 -0.09322942 41.30859375 -0.09765625 C42.46274277 -0.10281754 43.61689178 -0.10797882 44.80601501 -0.11329651 C46.3975515 -0.11340981 46.3975515 -0.11340981 48.02124023 -0.11352539 C48.96055893 -0.115746 49.89987762 -0.11796661 50.86766052 -0.12025452 C53 0 53 0 54 1 C54 6.28 54 11.56 54 17 C42.45 17 30.9 17 19 17 C19 20.96 19 24.92 19 29 C29.89 29 40.78 29 52 29 C52 34.94 52 40.88 52 47 C48.16190725 47.95952319 45.19787961 48.11490298 41.265625 48.09765625 C39.97011719 48.09443359 38.67460938 48.09121094 37.33984375 48.08789062 C35.97656183 48.07953598 34.61328058 48.07107104 33.25 48.0625 C31.87109535 48.05748168 30.49218896 48.05291935 29.11328125 48.04882812 C25.74214341 48.03704093 22.37109372 48.02058635 19 48 C19.00785522 49.08269165 19.00785522 49.08269165 19.01586914 50.18725586 C19.03657358 53.43732849 19.04963918 56.68738728 19.0625 59.9375 C19.07087891 61.07380859 19.07925781 62.21011719 19.08789062 63.38085938 C19.09272461 65.00024414 19.09272461 65.00024414 19.09765625 66.65234375 C19.10551147 68.15269165 19.10551147 68.15269165 19.11352539 69.68334961 C19 72 19 72 18 73 C15.15664952 73.09986975 12.34302837 73.13877881 9.5 73.125 C8.70207031 73.12886719 7.90414062 73.13273437 7.08203125 73.13671875 C1.12660767 73.12660767 1.12660767 73.12660767 0 72 C-0.09436529 69.76070114 -0.11742327 67.5183825 -0.11352539 65.27709961 C-0.11367142 64.5746965 -0.11381744 63.8722934 -0.1139679 63.14860535 C-0.11326872 60.81648722 -0.10547617 58.484448 -0.09765625 56.15234375 C-0.09579208 54.53951562 -0.09436818 52.92668693 -0.09336853 51.31385803 C-0.08954323 47.06084643 -0.07971285 42.80786876 -0.06866455 38.55487061 C-0.05845069 34.2182257 -0.05387096 29.88157533 -0.04882812 25.54492188 C-0.03809059 17.02993231 -0.02101403 8.51497037 0 0 Z " fill="#753992" transform="translate(29,211)"/>
<path d="M0 0 C8.85482459 -0.70650196 16.27653553 0.34494077 24 5 C24.495 6.485 24.495 6.485 25 8 C25.598125 8.268125 26.19625 8.53625 26.8125 8.8125 C30.65859109 10.90037802 32.42810694 14.13652824 33.6953125 18.265625 C35.0012977 24.11496718 35.51982393 30.01598035 35 36 C34 37 34 37 30.48999023 37.11352539 C28.92951578 37.11336626 27.36903607 37.10767142 25.80859375 37.09765625 C24.98875504 37.0962413 24.16891632 37.09482635 23.32423401 37.09336853 C20.69528618 37.08775289 18.06642227 37.07519779 15.4375 37.0625 C13.65950643 37.05748701 11.88151154 37.05292376 10.10351562 37.04882812 C5.73564455 37.03777839 1.36783652 37.02050331 -3 37 C-0.20579508 40.91603304 -0.20579508 40.91603304 4 43 C10.06808641 43.40453909 13.55279035 42.61885079 19 40 C20.96875 39.2265625 20.96875 39.2265625 23 39 C24.921875 40.14453125 24.921875 40.14453125 26.75 41.8125 C27.67039062 42.62654297 27.67039062 42.62654297 28.609375 43.45703125 C30 45 30 45 30 47 C30.66 47 31.32 47 32 47 C32 47.99 32 48.98 32 50 C31.34 50 30.68 50 30 50 C29.76023438 50.60457031 29.52046875 51.20914063 29.2734375 51.83203125 C26.83449212 55.98422353 22.38345267 57.42101436 18 59 C8.37794499 61.01752766 -2.31170406 60.60129655 -10.875 55.4375 C-17.15652958 50.74060311 -21.4800458 44.37159632 -22.8203125 36.58984375 C-23.38942017 28.38727019 -22.99389592 20.29320125 -19 13 C-18.34 13 -17.68 13 -17 13 C-16.34 11.35 -15.68 9.7 -15 8 C-14.01 8 -13.02 8 -12 8 C-11.773125 7.38125 -11.54625 6.7625 -11.3125 6.125 C-9.57172731 3.30660613 -8.15531182 2.88055214 -5 2 C-2.1875 1.875 -2.1875 1.875 0 2 C0 1.34 0 0.68 0 0 Z M0 17 C0 17.66 0 18.32 0 19 C-0.99 19.33 -1.98 19.66 -3 20 C-3.33 21.65 -3.66 23.3 -4 25 C3.26 25 10.52 25 18 25 C17.34 23.02 16.68 21.04 16 19 C15.34 19 14.68 19 14 19 C13.67 18.01 13.34 17.02 13 16 C11.58566794 15.7763663 10.16832382 15.57173524 8.75 15.375 C7.96109375 15.25898438 7.1721875 15.14296875 6.359375 15.0234375 C3.67847541 14.99680605 2.27305911 15.63407916 0 17 Z " fill="#743A92" transform="translate(139,224)"/>
<path d="M0 0 C4.23167484 -0.1249586 8.46233173 -0.21496477 12.6953125 -0.2746582 C14.13072448 -0.29957855 15.56601257 -0.33352875 17.00097656 -0.37719727 C25.84014866 -0.63916715 33.59187675 -0.52769829 41 5 C45.64884814 9.72753587 47.38416848 13.84226196 47.6875 20.5 C47.38607174 26.62904135 45.90227093 31.23411173 42 36 C38.57201719 38.75910812 37.48175035 39 33 39 C33 39.66 33 40.32 33 41 C25.41 41 17.82 41 10 41 C10 46.94 10 52.88 10 59 C6.37 59 2.74 59 -1 59 C-1.0225719 51.60266709 -1.04092722 44.20535293 -1.05181217 36.80799294 C-1.05703579 33.37328438 -1.06412401 29.93860057 -1.07543945 26.50390625 C-1.08836035 22.55729465 -1.09323252 18.61069316 -1.09765625 14.6640625 C-1.10281754 13.42757965 -1.10797882 12.1910968 -1.11329651 10.91714478 C-1.11337204 9.77611298 -1.11344757 8.63508118 -1.11352539 7.45947266 C-1.115746 6.451315 -1.11796661 5.44315735 -1.12025452 4.40444946 C-1 2 -1 2 0 0 Z M10 10 C10 16.93 10 23.86 10 31 C13.01125 31.103125 16.0225 31.20625 19.125 31.3125 C20.06230957 31.35802002 20.99961914 31.40354004 21.96533203 31.45043945 C26.20494231 31.52042237 29.14963926 31.3854058 32.55859375 28.703125 C35.5570703 25.38321177 35.91952833 23.42594158 36 19 C35.81203765 15.71065882 35.11219492 15.10333743 32.625 12.8125 C29.31999431 10.53047226 26.91407229 9.87282652 22.98828125 9.90234375 C22.30548096 9.90484131 21.62268066 9.90733887 20.91918945 9.90991211 C20.05898193 9.91901611 19.19877441 9.92812012 18.3125 9.9375 C15.569375 9.958125 12.82625 9.97875 10 10 Z " fill="#6F3D8A" transform="translate(257,224)"/>
<path d="M0 0 C5.94 0 11.88 0 18 0 C18.02255243 9.37036254 18.0409159 18.74070718 18.05181217 28.11109066 C18.05704065 32.46168459 18.06413765 36.81225907 18.07543945 41.1628418 C18.08626959 45.35790258 18.0922771 49.55294459 18.09487724 53.74801826 C18.09673126 55.35206968 18.10035144 56.95612003 18.10573006 58.5601635 C18.11294219 60.79916515 18.11399087 63.0380883 18.11352539 65.27709961 C18.115746 66.55395126 18.11796661 67.83080292 18.12025452 69.14634705 C18 72 18 72 17 73 C14.3226862 73.09981214 11.67695825 73.13879875 9 73.125 C7.87464844 73.13080078 7.87464844 73.13080078 6.7265625 73.13671875 C1.12661053 73.12661053 1.12661053 73.12661053 0 72 C-0.09436529 69.76070114 -0.11742327 67.5183825 -0.11352539 65.27709961 C-0.11367142 64.5746965 -0.11381744 63.8722934 -0.1139679 63.14860535 C-0.11326872 60.81648722 -0.10547617 58.484448 -0.09765625 56.15234375 C-0.09579208 54.53951562 -0.09436818 52.92668693 -0.09336853 51.31385803 C-0.08954323 47.06084643 -0.07971285 42.80786876 -0.06866455 38.55487061 C-0.05845069 34.2182257 -0.05387096 29.88157533 -0.04882812 25.54492188 C-0.03809059 17.02993058 -0.0204937 8.51497341 0 0 Z " fill="#753993" transform="translate(90,211)"/>
<path d="M0 0 C1.97819833 0.54519246 3.9572887 1.08716483 5.9375 1.625 C6.89527344 1.88539063 7.85304688 2.14578125 8.83984375 2.4140625 C9.55269531 2.60742188 10.26554688 2.80078125 11 3 C11 3.66 11 4.32 11 5 C12.11375 5.268125 13.2275 5.53625 14.375 5.8125 C18 7 18 7 20 10 C19 11 19 11 16.75 11.1875 C14 11 14 11 11.66650391 10.05297852 C8.94377657 8.97779787 6.47021091 8.43830186 3.5859375 7.96484375 C2.57789063 7.79533203 1.56984375 7.62582031 0.53125 7.45117188 C-0.5103125 7.28166016 -1.551875 7.11214844 -2.625 6.9375 C-4.70086069 6.59449845 -6.77639838 6.24953467 -8.8515625 5.90234375 C-9.76760254 5.75273193 -10.68364258 5.60312012 -11.62744141 5.44897461 C-14 5 -14 5 -17 4 C-41.49486401 2.02591114 -66.44837445 5.20177568 -88.1875 17.25 C-91.76089618 19.12213272 -94.91829116 19.37976793 -98.8984375 19.66015625 C-102.18897008 20.1922684 -104.37606444 22.03204833 -107 24 C-110.00832349 25.39922023 -111.66734965 26 -115 26 C-115 25.34 -115 24.68 -115 24 C-116.65 24.33 -118.3 24.66 -120 25 C-119.43537722 21.56025861 -118.43443903 20.12590138 -115.75 17.9375 C-115.12480469 17.42445313 -114.49960937 16.91140625 -113.85546875 16.3828125 C-112 15 -112 15 -109.0625 13.3125 C-108.381875 12.879375 -107.70125 12.44625 -107 12 C-107 11.01 -107 10.02 -107 9 C-106.14277344 8.67386719 -105.28554688 8.34773437 -104.40234375 8.01171875 C-103.25894531 7.57472656 -102.11554688 7.13773438 -100.9375 6.6875 C-99.81214844 6.25824219 -98.68679688 5.82898438 -97.52734375 5.38671875 C-95.16591483 4.45836076 -92.82271292 3.48230903 -90.5 2.4609375 C-63.40629716 -8.84826436 -27.77560676 -8.42482859 0 0 Z " fill="#6DB94F" transform="translate(377,188)"/>
<path d="M0 0 C4.90562372 4.67745518 6.47115138 9.48173323 8 16 C8.20625 16.86882812 8.4125 17.73765625 8.625 18.6328125 C9.14538984 21.91777334 8.20970976 23.9152401 7 27 C6.82726562 27.64324219 6.65453125 28.28648437 6.4765625 28.94921875 C4.71028351 34.97062438 1.35707611 37.87863912 -4 41 C-10.19154313 43.06384771 -19.4195551 43.22742797 -25.609375 41.10546875 C-27.5 40 -27.5 40 -30 38 C-30 37.34 -30 36.68 -30 36 C-30.99 35.67 -31.98 35.34 -33 35 C-38.14564036 28.18959365 -38.67651594 22.36743403 -38 14 C-37.28357784 11.3467676 -36.32793866 9.45914566 -35 7 C-34.566875 6.113125 -34.13375 5.22625 -33.6875 4.3125 C-30.0809838 -0.62976294 -25.3381228 -2.64549028 -19.5 -3.75 C-12.70187242 -4.42981276 -5.73057533 -3.95682583 0 0 Z M-23 9 C-23.99 9.66 -24.98 10.32 -26 11 C-28.25854171 15.74293759 -28.56271419 20.02503013 -27 25 C-25.17349797 27.95688964 -23.16145989 30.41927006 -20 32 C-18.37834248 32.12148305 -16.75115673 32.17543652 -15.125 32.1875 C-14.26132812 32.20167969 -13.39765625 32.21585937 -12.5078125 32.23046875 C-8.34846649 31.84822356 -6.48947307 30.55745544 -3.75 27.4375 C-1.53216261 23.0810337 -1.03253626 19.79561768 -2 15 C-4.16499098 10.3949577 -7.27097715 7.00983471 -12 5 C-16.76883436 4.14405537 -19.23804441 6.21942413 -23 9 Z " fill="#733A90" transform="translate(344,241)"/>
<path d="M0 0 C3.3 0 6.6 0 10 0 C10.66 0.99 11.32 1.98 12 3 C13.2684375 2.27103516 13.2684375 2.27103516 14.5625 1.52734375 C20.25059455 -0.99998008 25.88859955 -0.63872119 32 0 C37.22257872 2.25111152 39.8205104 5.83428411 42 11 C42.33094454 13.85377394 42.47325065 16.28923061 42.390625 19.12109375 C42.38496521 19.86585464 42.37930542 20.61061554 42.37347412 21.37794495 C42.3512735 23.7318138 42.3011137 26.0840997 42.25 28.4375 C42.22991366 30.04359764 42.21166664 31.6497194 42.1953125 33.25585938 C42.15146309 37.1711729 42.08255471 41.0853191 42 45 C38.7 45 35.4 45 32 45 C31.67 34.44 31.34 23.88 31 13 C26.32927919 10.66463959 23.11754297 10.39793612 18 11 C15.01755087 12.1353673 15.01755087 12.1353673 13 14 C11.91612537 17.25162388 11.69687985 19.99930359 11.46484375 23.41796875 C11.33432617 25.29838867 11.33432617 25.29838867 11.20117188 27.21679688 C11.0706543 29.18229492 11.0706543 29.18229492 10.9375 31.1875 C10.8460625 32.52281112 10.75426975 33.85809796 10.66210938 35.19335938 C10.4379054 38.46201727 10.21735074 41.7308804 10 45 C2.25 46.125 2.25 46.125 0 45 C0 30.15 0 15.3 0 0 Z " fill="#733992" transform="translate(382,238)"/>
<path d="M0 0 C3.3 0 6.6 0 10 0 C10 3.63 10 7.26 10 11 C11.39025391 10.98259766 11.39025391 10.98259766 12.80859375 10.96484375 C14.00613281 10.95582031 15.20367187 10.94679687 16.4375 10.9375 C17.63246094 10.92589844 18.82742188 10.91429687 20.05859375 10.90234375 C23 11 23 11 24 12 C24 14.31 24 16.62 24 19 C19.38 19 14.76 19 10 19 C10.33 27.91 10.66 36.82 11 46 C16.445 45.505 16.445 45.505 22 45 C24.125 52.75 24.125 52.75 23 55 C17.7097749 56.91692863 11.50480764 56.62792483 6 56 C2.97359126 53.90479395 1.58103392 52.69960063 0.39672852 49.23535156 C-0.12580268 46.29116966 -0.11124803 43.47456646 -0.09765625 40.484375 C-0.09282227 38.60878906 -0.09282227 38.60878906 -0.08789062 36.6953125 C-0.07951172 35.39335937 -0.07113281 34.09140625 -0.0625 32.75 C-0.05798828 31.43257813 -0.05347656 30.11515625 -0.04882812 28.7578125 C-0.03704316 25.50516259 -0.02059011 22.25260416 0 19 C-1.65 19 -3.3 19 -5 19 C-5 16.36 -5 13.72 -5 11 C-3.35 11 -1.7 11 0 11 C0 7.37 0 3.74 0 0 Z " fill="#723B8F" transform="translate(436,227)"/>
<path d="M0 0 C-0.33 0.99 -0.66 1.98 -1 3 C-4.48894326 3.87223581 -6.56958825 3.87768731 -10 3 C-11.36800819 2.92291277 -12.73923592 2.89196391 -14.109375 2.90234375 C-15.24052734 2.90717773 -15.24052734 2.90717773 -16.39453125 2.91210938 C-17.17183594 2.92048828 -17.94914062 2.92886719 -18.75 2.9375 C-19.54277344 2.94201172 -20.33554687 2.94652344 -21.15234375 2.95117188 C-23.10159508 2.96291435 -25.05080738 2.98084854 -27 3 C-26.88957056 6.22983662 -26.75907341 9.45856526 -26.625 12.6875 C-26.5940625 13.59951172 -26.563125 14.51152344 -26.53125 15.45117188 C-26.33223046 20.01203631 -26.14309878 23.86190275 -24 28 C-23.01 27.67 -22.02 27.34 -21 27 C-21 27.66 -21 28.32 -21 29 C-20.34 29 -19.68 29 -19 29 C-19 28.34 -19 27.68 -19 27 C-12.375 25.875 -12.375 25.875 -9 27 C-9 27.66 -9 28.32 -9 29 C-6.69 28.34 -4.38 27.68 -2 27 C-2.33 28.65 -2.66 30.3 -3 32 C-3.99 32 -4.98 32 -6 32 C-6 32.66 -6 33.32 -6 34 C-6.85549438 34.03758423 -6.85549438 34.03758423 -7.72827148 34.07592773 C-10.29826157 34.19156549 -12.86785527 34.31443624 -15.4375 34.4375 C-16.33533203 34.47681641 -17.23316406 34.51613281 -18.15820312 34.55664062 C-19.01220703 34.59853516 -19.86621094 34.64042969 -20.74609375 34.68359375 C-21.53685303 34.72025146 -22.3276123 34.75690918 -23.14233398 34.79467773 C-25.01401441 34.80563257 -25.01401441 34.80563257 -26 36 C-26.23527773 38.34987262 -26.41386417 40.70556039 -26.5625 43.0625 C-26.64628906 44.35285156 -26.73007812 45.64320313 -26.81640625 46.97265625 C-26.87699219 47.97167969 -26.93757813 48.97070312 -27 50 C-29.76264289 50.59732819 -32.16032769 51 -35 51 C-35.33 51.99 -35.66 52.98 -36 54 C-36 38.16 -36 22.32 -36 6 C-35.01 5.67 -34.02 5.34 -33 5 C-32.855625 4.030625 -32.71125 3.06125 -32.5625 2.0625 C-32 -1 -32 -1 -31 -2 C-20.5643116 -3.59188467 -9.71893415 -4.66508839 0 0 Z " fill="#773B92" transform="translate(292,229)"/>
<path d="M0 0 C0.66 0.33 1.32 0.66 2 1 C3.11240343 5.12342025 3.68179071 8.78463396 1.5625 12.5625 C1.046875 13.036875 0.53125 13.51125 0 14 C0.66 14.66 1.32 15.32 2 16 C2.24050903 17.91091919 2.24050903 17.91091919 2.22705078 20.26611328 C2.22682419 21.58725632 2.22682419 21.58725632 2.22659302 22.93508911 C2.21627045 23.88721283 2.20594788 24.83933655 2.1953125 25.8203125 C2.1924826 26.79410858 2.18965271 27.76790466 2.18673706 28.77120972 C2.17551913 31.88926349 2.1504117 35.00703268 2.125 38.125 C2.11497228 40.23567294 2.10584607 42.34635038 2.09765625 44.45703125 C2.07557453 49.63813091 2.04103374 54.81901717 2 60 C-1.63 60 -5.26 60 -9 60 C-9.04938976 53.78866744 -9.08571476 47.57744888 -9.10986328 41.3659668 C-9.11992894 39.25233978 -9.13358257 37.1387267 -9.15087891 35.02514648 C-9.1751023 31.98938558 -9.18647738 28.95380857 -9.1953125 25.91796875 C-9.20563507 24.97100632 -9.21595764 24.02404388 -9.22659302 23.04838562 C-9.22674408 22.16769913 -9.22689514 21.28701263 -9.22705078 20.37963867 C-9.231492 19.60464523 -9.23593323 18.82965179 -9.24050903 18.03117371 C-9 16 -9 16 -7 13 C-7.49886719 12.60039062 -7.99773437 12.20078125 -8.51171875 11.7890625 C-10 10 -10 10 -10.14453125 7.7734375 C-9.98017578 6.58621094 -9.98017578 6.58621094 -9.8125 5.375 C-9.71582031 4.57835937 -9.61914062 3.78171875 -9.51953125 2.9609375 C-9.34808594 2.31382812 -9.17664063 1.66671875 -9 1 C-6.01405576 -0.49297212 -3.29146376 -0.11755228 0 0 Z " fill="#723E8F" transform="translate(369,223)"/>
<path d="M0 0 C0.2475 0.78375 0.495 1.5675 0.75 2.375 C2.19494285 5.40937999 3.05565819 5.67029725 6 7 C6.33 7.99 6.66 8.98 7 10 C7.66 10.309375 8.32 10.61875 9 10.9375 C9.66 11.288125 10.32 11.63875 11 12 C11.33333333 13.33333333 11.66666667 14.66666667 12 16 C13.31403276 16.70394612 14.6520257 17.36345658 16 18 C18.98398913 20.69979969 21.6664331 23.13265598 23 27 C22.67 27.66 22.34 28.32 22 29 C18.0833957 29.0580966 14.16690237 29.09362893 10.25 29.125 C9.13882813 29.14175781 8.02765625 29.15851563 6.8828125 29.17578125 C5.27792969 29.18544922 5.27792969 29.18544922 3.640625 29.1953125 C2.65610352 29.20578613 1.67158203 29.21625977 0.65722656 29.22705078 C-3.24825569 28.89334089 -5.26114083 27.85167423 -7.81640625 24.90625 C-8.39261719 24.1121875 -8.96882812 23.318125 -9.5625 22.5 C-11.65818386 19.62485243 -12.99811934 18.00125378 -16 16 C-15.34 14.02 -14.68 12.04 -14 10 C-13.34 10 -12.68 10 -12 10 C-12 9.34 -12 8.68 -12 8 C-11.34 8 -10.68 8 -10 8 C-9.9175 7.05125 -9.835 6.1025 -9.75 5.125 C-9 2 -9 2 -7.25 0.625 C-4.73711854 -0.07302263 -2.59626911 -0.14423717 0 0 Z " fill="#733C8F" transform="translate(228,255)"/>
<path d="M0 0 C2.45913639 1.03542585 3.76691154 1.88409413 5.375 4 C5.375 4.66 5.375 5.32 5.375 6 C6.035 6 6.695 6 7.375 6 C7.6225 6.78375 7.87 7.5675 8.125 8.375 C9.52889099 11.32317108 10.38175737 11.9024777 13.375 13 C11.08594117 17.09621053 8.51844452 20.53415091 5.375 24 C4.715 24 4.055 24 3.375 24 C3.08625 24.639375 2.7975 25.27875 2.5 25.9375 C1.375 28 1.375 28 -0.625 29 C-2.34162123 29.09629649 -4.06193118 29.13075026 -5.78125 29.1328125 C-6.80347656 29.13410156 -7.82570312 29.13539063 -8.87890625 29.13671875 C-9.95011719 29.13285156 -11.02132812 29.12898438 -12.125 29.125 C-13.73181641 29.13080078 -13.73181641 29.13080078 -15.37109375 29.13671875 C-16.39332031 29.13542969 -17.41554687 29.13414062 -18.46875 29.1328125 C-19.40912109 29.13168457 -20.34949219 29.13055664 -21.31835938 29.12939453 C-23.625 29 -23.625 29 -25.625 28 C-25.625 26.68 -25.625 25.36 -25.625 24 C-24.965 24 -24.305 24 -23.625 24 C-23.625 23.34 -23.625 22.68 -23.625 22 C-22.15625 20.625 -22.15625 20.625 -20.125 19 C-15.97749379 15.49113634 -12.77372138 11.58442383 -9.4375 7.31640625 C-3.71268971 0 -3.71268971 0 0 0 Z " fill="#743891" transform="translate(198.625,255)"/>
<path d="M0 0 C1.97819833 0.54519246 3.9572887 1.08716483 5.9375 1.625 C6.89527344 1.88539063 7.85304688 2.14578125 8.83984375 2.4140625 C9.55269531 2.60742188 10.26554687 2.80078125 11 3 C11 3.66 11 4.32 11 5 C12.11375 5.268125 13.2275 5.53625 14.375 5.8125 C18 7 18 7 20 10 C19 11 19 11 16.75 11.1875 C14 11 14 11 11.66650391 10.05297852 C8.94377657 8.97779787 6.47021091 8.43830186 3.5859375 7.96484375 C2.57789063 7.79533203 1.56984375 7.62582031 0.53125 7.45117188 C-0.5103125 7.28166016 -1.551875 7.11214844 -2.625 6.9375 C-4.70086069 6.59449845 -6.77639838 6.24953467 -8.8515625 5.90234375 C-9.76760254 5.75273193 -10.68364258 5.60312012 -11.62744141 5.44897461 C-14 5 -14 5 -17 4 C-21.66271083 3.76050475 -26.33181285 3.8147996 -31 3.8125 C-32.27746094 3.80025391 -33.55492187 3.78800781 -34.87109375 3.77539062 C-42.47542995 3.7637156 -49.58140424 4.29861986 -57 6 C-57.33 5.01 -57.66 4.02 -58 3 C-56.02 3 -54.04 3 -52 3 C-52.66 1.35 -53.32 -0.3 -54 -2 C-55.97536745 -1.65213292 -55.97536745 -1.65213292 -58 -1 C-58.33 -0.34 -58.66 0.32 -59 1 C-59 0.34 -59 -0.32 -59 -1 C-67.91 -0.01 -67.91 -0.01 -77 1 C-76.67 0.01 -76.34 -0.98 -76 -2 C-51.17706026 -6.80443995 -24.39864133 -7.40053576 0 0 Z " fill="#70BA52" transform="translate(377,188)"/>
<path d="M0 0 C5.94 0 11.88 0 18 0 C18.02255243 9.37036254 18.0409159 18.74070718 18.05181217 28.11109066 C18.05704065 32.46168459 18.06413765 36.81225907 18.07543945 41.1628418 C18.08626959 45.35790258 18.0922771 49.55294459 18.09487724 53.74801826 C18.09673126 55.35206968 18.10035144 56.95612003 18.10573006 58.5601635 C18.11294219 60.79916515 18.11399087 63.0380883 18.11352539 65.27709961 C18.115746 66.55395126 18.11796661 67.83080292 18.12025452 69.14634705 C18 72 18 72 17 73 C14.3226862 73.09981214 11.67695825 73.13879875 9 73.125 C7.87464844 73.13080078 7.87464844 73.13080078 6.7265625 73.13671875 C1.12661053 73.12661053 1.12661053 73.12661053 0 72 C-0.09436529 69.76070114 -0.11742327 67.5183825 -0.11352539 65.27709961 C-0.11367142 64.5746965 -0.11381744 63.8722934 -0.1139679 63.14860535 C-0.11326872 60.81648722 -0.10547617 58.484448 -0.09765625 56.15234375 C-0.09579208 54.53951562 -0.09436818 52.92668693 -0.09336853 51.31385803 C-0.08954323 47.06084643 -0.07971285 42.80786876 -0.06866455 38.55487061 C-0.05845069 34.2182257 -0.05387096 29.88157533 -0.04882812 25.54492188 C-0.03809059 17.02993058 -0.0204937 8.51497341 0 0 Z M7.9375 2.375 C7.05964844 2.46523437 6.18179688 2.55546875 5.27734375 2.6484375 C2.97519263 2.88510438 2.97519263 2.88510438 1 4 C0.97687341 12.45767334 0.9590833 20.91533356 0.94818783 29.37303066 C0.94295969 33.29988658 0.93586331 37.22672094 0.92456055 41.15356445 C0.9137292 44.94014257 0.90772264 48.7266999 0.90512276 52.51329231 C0.90326895 53.96104319 0.89964919 55.40879288 0.89426994 56.85653496 C0.88705633 58.87757135 0.88659192 60.89862848 0.88647461 62.91967773 C0.884254 64.07217514 0.88203339 65.22467255 0.87974548 66.41209412 C0.70562405 68.93013147 0.70562405 68.93013147 2 70 C3.97712807 70.09900199 5.95790038 70.12970773 7.9375 70.125 C9.01902344 70.12757813 10.10054687 70.13015625 11.21484375 70.1328125 C13.95659663 70.19007789 13.95659663 70.19007789 16 69 C16 47.22 16 25.44 16 3 C12.84535201 1.94845067 11.19262346 2.02024428 7.9375 2.375 Z " fill="#6B3D82" transform="translate(90,211)"/>
<path d="M0 0 C2.125 0.9375 2.125 0.9375 4 2 C4 2.66 4 3.32 4 4 C9.96350559 4.18998392 9.96350559 4.18998392 15.8125 3.25 C16.534375 3.1675 17.25625 3.085 18 3 C20.3125 4.9375 20.3125 4.9375 22 7 C21.67 7.99 21.34 8.98 21 10 C21.99 10.33 22.98 10.66 24 11 C24 12.65 24 14.3 24 16 C22.865625 15.98839844 21.73125 15.97679687 20.5625 15.96484375 C19.04166833 15.9554559 17.52083486 15.94635678 16 15.9375 C15.25621094 15.92912109 14.51242187 15.92074219 13.74609375 15.91210938 C9.93773893 15.89555131 6.27531358 16.04140171 2.5 16.56640625 C1.345 16.70949219 0.19 16.85257812 -1 17 C-2 16 -2 16 -2.09765625 12.62109375 C-2.09098369 11.22652923 -2.07902532 9.83198257 -2.0625 8.4375 C-2.05798828 7.72658203 -2.05347656 7.01566406 -2.04882812 6.28320312 C-2.03700864 4.52209987 -2.01907263 2.76103964 -2 1 C-1.34 0.67 -0.68 0.34 0 0 Z " fill="#7AAB60" transform="translate(434,283)"/>
<path d="M0 0 C1.32 0.66 2.64 1.32 4 2 C4 2.66 4 3.32 4 4 C4.9590625 3.7215625 4.9590625 3.7215625 5.9375 3.4375 C6.618125 3.293125 7.29875 3.14875 8 3 C9 4 9 4 9.11352539 6.95922852 C9.10828857 8.25272217 9.10305176 9.54621582 9.09765625 10.87890625 C9.0962413 11.5655687 9.09482635 12.25223114 9.09336853 12.95970154 C9.08775479 15.16067801 9.07520007 17.36155409 9.0625 19.5625 C9.05748676 21.05143083 9.05292355 22.54036324 9.04882812 24.02929688 C9.03778093 27.68623075 9.02050713 31.34310558 9 35 C2.25 36.125 2.25 36.125 0 35 C0.13854088 31.70798357 0.28707024 28.41649291 0.4375 25.125 C0.47681641 24.18785156 0.51613281 23.25070312 0.55664062 22.28515625 C0.59853516 21.38925781 0.64042969 20.49335938 0.68359375 19.5703125 C0.72025146 18.74289551 0.75690918 17.91547852 0.79467773 17.06298828 C1 15 1 15 2 13 C1.34 12.67 0.68 12.34 0 12 C0.33 11.34 0.66 10.68 1 10 C0.34 10 -0.32 10 -1 10 C-1.9765625 3.9453125 -1.9765625 3.9453125 -2 2 C-1.34 1.34 -0.68 0.68 0 0 Z " fill="#733B8E" transform="translate(415,245)"/>
<path d="M0 0 C2.45913639 1.03542585 3.76691154 1.88409413 5.375 4 C5.375 4.66 5.375 5.32 5.375 6 C6.035 6 6.695 6 7.375 6 C7.6225 6.78375 7.87 7.5675 8.125 8.375 C9.52889099 11.32317108 10.38175737 11.9024777 13.375 13 C7.72479839 23.1108871 7.72479839 23.1108871 3.0625 24.875 C2.505625 24.91625 1.94875 24.9575 1.375 25 C1.375 24.01 1.375 23.02 1.375 22 C2.89829028 20.7684036 4.42366 19.53894908 5.97265625 18.33984375 C7.95510118 16.44575291 8.22192284 14.67885032 8.375 12 C7.055 11.34 5.735 10.68 4.375 10 C4.375 9.34 4.375 8.68 4.375 8 C1.62215715 6.32687552 1.62215715 6.32687552 -1.515625 6.21484375 C-6.85224174 8.20125109 -11.17036293 13.78067401 -13.8125 18.6875 C-15.75809863 22.24324923 -17.66951558 24.29080595 -20.625 27 C-19.635 27.66 -18.645 28.32 -17.625 29 C-23.375 29.125 -23.375 29.125 -25.625 28 C-25.625 26.68 -25.625 25.36 -25.625 24 C-24.965 24 -24.305 24 -23.625 24 C-23.625 23.34 -23.625 22.68 -23.625 22 C-22.15625 20.625 -22.15625 20.625 -20.125 19 C-15.97749379 15.49113634 -12.77372138 11.58442383 -9.4375 7.31640625 C-3.71268971 0 -3.71268971 0 0 0 Z " fill="#754A8B" transform="translate(198.625,255)"/>
<path d="M0 0 C6.1020908 5.81827262 7.4479603 12.93801602 9 21 C5 16.375 5 16.375 5 13 C4.34 13 3.68 13 3 13 C2.71125 11.906875 2.4225 10.81375 2.125 9.6875 C1.18106796 5.95986155 1.18106796 5.95986155 -1 3 C-1.99 3.33 -2.98 3.66 -4 4 C-3.505 4.845625 -3.01 5.69125 -2.5 6.5625 C0.14137937 12.5397059 -0.77751131 19.59727001 -1 26 C-1.66 26.33 -2.32 26.66 -3 27 C-2.93039062 25.80503906 -2.93039062 25.80503906 -2.859375 24.5859375 C-2.61111953 17.80246054 -2.61111953 17.80246054 -4.6875 11.4375 C-7.76265083 8.19612481 -10.09292285 6.1816264 -14.625 5.75 C-17.14655521 5.92930866 -17.14655521 5.92930866 -20 7 C-20 5.68 -20 4.36 -20 3 C-19.14535156 2.95101562 -18.29070312 2.90203125 -17.41015625 2.8515625 C-16.30542969 2.77679688 -15.20070313 2.70203125 -14.0625 2.625 C-12.40927734 2.52058594 -12.40927734 2.52058594 -10.72265625 2.4140625 C-9.82417969 2.27742187 -8.92570312 2.14078125 -8 2 C-7.67 1.34 -7.34 0.68 -7 0 C-12.94 0 -18.88 0 -25 0 C-25 -0.66 -25 -1.32 -25 -2 C-16.69275299 -4.66458866 -7.48045794 -5.1650781 0 0 Z " fill="#693D7F" transform="translate(344,241)"/>
<path d="M0 0 C5.92125579 0.45273183 11.31207523 1.20381323 17 3 C18.97739929 3.5480835 20.9566903 4.08937289 22.9375 4.625 C23.89527344 4.88539063 24.85304688 5.14578125 25.83984375 5.4140625 C26.90912109 5.70410156 26.90912109 5.70410156 28 6 C28 6.66 28 7.32 28 8 C29.670625 8.4021875 29.670625 8.4021875 31.375 8.8125 C35 10 35 10 37 13 C36 14 36 14 33.75 14.1875 C31 14 31 14 28.6550293 13.04418945 C25.97470522 11.99005188 23.61442455 11.50921148 20.76953125 11.10546875 C19.80208984 10.95400391 18.83464844 10.80253906 17.83789062 10.64648438 C15.81120336 10.33901407 13.78245395 10.04485801 11.75195312 9.76367188 C10.78837891 9.60833984 9.82480469 9.45300781 8.83203125 9.29296875 C7.95264893 9.1643042 7.0732666 9.03563965 6.16723633 8.90307617 C4 8 4 8 2.82299805 5.48168945 C2.55140869 4.66273193 2.27981934 3.84377441 2 3 C1.34 2.67 0.68 2.34 0 2 C0 1.34 0 0.68 0 0 Z " fill="#76B15C" transform="translate(360,185)"/>
<path d="M0 0 C0.33 0 0.66 0 1 0 C1 20.13 1 40.26 1 61 C1.66 61 2.32 61 3 61 C3.33 63.64 3.66 66.28 4 69 C5.32 69 6.64 69 8 69 C8 66.36 8 63.72 8 61 C10.31 61.33 12.62 61.66 15 62 C14.67 63.32 14.34 64.64 14 66 C14.66 66 15.32 66 16 66 C15.979375 65.030625 15.95875 64.06125 15.9375 63.0625 C16 60 16 60 17 59 C17.23363881 57.15108054 17.41303635 55.29511969 17.5625 53.4375 C17.68818359 51.91962891 17.68818359 51.91962891 17.81640625 50.37109375 C17.87699219 49.58863281 17.93757813 48.80617188 18 48 C18.33 48 18.66 48 19 48 C19.02887814 51.47914941 19.04675687 54.95826831 19.0625 58.4375 C19.07087891 59.43072266 19.07925781 60.42394531 19.08789062 61.44726562 C19.09272461 62.86362305 19.09272461 62.86362305 19.09765625 64.30859375 C19.10551147 65.62041626 19.10551147 65.62041626 19.11352539 66.95874023 C19 69 19 69 18 70 C15.15664952 70.09986975 12.34302837 70.13877881 9.5 70.125 C8.70207031 70.12886719 7.90414062 70.13273437 7.08203125 70.13671875 C1.12660767 70.12660767 1.12660767 70.12660767 0 69 C-0.09425595 66.85256451 -0.11742648 64.70198974 -0.11352539 62.55249023 C-0.11367142 61.87934784 -0.11381744 61.20620544 -0.1139679 60.51266479 C-0.11326878 58.27794216 -0.10547652 56.0433019 -0.09765625 53.80859375 C-0.09579206 52.26302638 -0.09436816 50.71745843 -0.09336853 49.17189026 C-0.0895434 45.09642923 -0.07971317 41.02100363 -0.06866455 36.94555664 C-0.05845032 32.78988118 -0.05387089 28.63420001 -0.04882812 24.47851562 C-0.03809089 16.31899413 -0.02101454 8.15950147 0 0 Z " fill="#6E3B85" transform="translate(29,214)"/>
<path d="M0 0 C0 0.66 0 1.32 0 2 C-0.99 2 -1.98 2 -3 2 C-3 2.66 -3 3.32 -3 4 C-3.49886719 4.25652344 -3.99773437 4.51304687 -4.51171875 4.77734375 C-9.5101944 7.44259917 -14.218818 10.40953471 -18.875 13.625 C-19.43405029 14.00906006 -19.99310059 14.39312012 -20.5690918 14.78881836 C-23.2825472 16.68457643 -25.7119849 18.61219608 -28 21 C-30.5 22.5 -30.5 22.5 -33 24 C-35.69969806 25.95703019 -38.35397095 27.97115886 -41 30 C-40.6875 28.0625 -40.6875 28.0625 -40 26 C-39.01 25.67 -38.02 25.34 -37 25 C-37 24.01 -37 23.02 -37 22 C-35.93458984 21.51080078 -35.93458984 21.51080078 -34.84765625 21.01171875 C-33.46900391 20.35623047 -33.46900391 20.35623047 -32.0625 19.6875 C-31.14597656 19.25824219 -30.22945312 18.82898438 -29.28515625 18.38671875 C-26.69030588 17.14921339 -26.69030588 17.14921339 -26 14 C-25.34 14 -24.68 14 -24 14 C-24.33 11.69 -24.66 9.38 -25 7 C-23.125 6.375 -23.125 6.375 -21 6 C-20.34 6.66 -19.68 7.32 -19 8 C-18.34 7.34 -17.68 6.68 -17 6 C-15.32343109 5.2439003 -13.64359381 4.49338599 -11.94140625 3.796875 C-10.02371566 3.00973439 -8.1401299 2.16325911 -6.25 1.3125 C-3 0 -3 0 0 0 Z " fill="#67B84F" transform="translate(283,206)"/>
<path d="M0 0 C3.3 0 6.6 0 10 0 C10 0.99 10 1.98 10 3 C9.34 3 8.68 3 8 3 C8 2.34 8 1.68 8 1 C7.34 1 6.68 1 6 1 C6 1.66 6 2.32 6 3 C5.34 3 4.68 3 4 3 C2.39048457 6.21903085 2.75765252 9.74838832 2.68359375 13.2890625 C2.66281265 14.10748627 2.64203156 14.92591003 2.62062073 15.76913452 C2.55515188 18.38766966 2.49625274 21.00630639 2.4375 23.625 C2.39431224 25.39844807 2.35069786 27.17188581 2.30664062 28.9453125 C2.19947324 33.29677046 2.09819831 37.64833077 2 42 C3.65 42 5.3 42 7 42 C7.144375 40.865625 7.28875 39.73125 7.4375 38.5625 C8 35 8 35 9 34 C9.23363881 32.15108054 9.41303635 30.29511969 9.5625 28.4375 C9.64628906 27.42558594 9.73007812 26.41367187 9.81640625 25.37109375 C9.87699219 24.58863281 9.93757813 23.80617188 10 23 C10.33 23 10.66 23 11 23 C11.11459026 30.41017023 10.91160286 37.64206267 10 45 C2.25 46.125 2.25 46.125 0 45 C0 30.15 0 15.3 0 0 Z " fill="#513163" transform="translate(382,238)"/>
<path d="M0 0 C0.66 0.33 1.32 0.66 2 1 C2.93388587 3.99338253 3.22276622 6.87596898 3 10 C0.8125 13.0625 0.8125 13.0625 -2 15 C-6 15 -6 15 -8.3125 13.0625 C-10.40829485 9.25902046 -10.12402844 7.08430704 -9.5546875 2.890625 C-9.37164062 2.26671875 -9.18859375 1.6428125 -9 1 C-6.01405576 -0.49297212 -3.29146376 -0.11755228 0 0 Z " fill="#71B455" transform="translate(369,223)"/>
<path d="M0 0 C4.92307692 4.18461538 4.92307692 4.18461538 5.3125 8.3125 C5.209375 9.199375 5.10625 10.08625 5 11 C5.66 11 6.32 11 7 11 C9.34036034 13.94712043 10.0479053 15.38920743 9.75 19.1875 C9 22 9 22 8 24 C7.34 24 6.68 24 6 24 C5.67 22.68 5.34 21.36 5 20 C4.34 20.99 3.68 21.98 3 23 C0.8191632 19.7287448 0.70751763 18.38601242 0.5 14.5625 C0.29380114 10.77359601 -0.24244797 8.33793148 -2 5 C-2 4.01 -2 3.02 -2 2 C-1.34 2 -0.68 2 0 2 C0 1.34 0 0.68 0 0 Z " fill="#743A92" transform="translate(342,243)"/>
<path d="M0 0 C0.99 0.495 0.99 0.495 2 1 C2 1.66 2 2.32 2 3 C2.66 3 3.32 3 4 3 C4 3.66 4 4.32 4 5 C4.99 5.33 5.98 5.66 7 6 C7 6.99 7 7.98 7 9 C8.65 9.33 10.3 9.66 12 10 C12 10.99 12 11.98 12 13 C14.82437198 12.96298724 14.82437198 12.96298724 18 12 C19.7143618 10.04072937 21.38405168 8.04119788 23 6 C25.3125 5.125 25.3125 5.125 27 5 C27 5.99 27 6.98 27 8 C25.68 8.33 24.36 8.66 23 9 C22.67 10.98 22.34 12.96 22 15 C21.34 15 20.68 15 20 15 C20 15.66 20 16.32 20 17 C19.34 17 18.68 17 18 17 C17.34 18.32 16.68 19.64 16 21 C11.125 16.375 11.125 16.375 10 13 C9.34 13 8.68 13 8 13 C8 12.34 8 11.68 8 11 C7.01 10.67 6.02 10.34 5 10 C0 4.76744186 0 4.76744186 0 0 Z " fill="#6EA261" transform="translate(196,248)"/>
<path d="M0 0 C3.3 0 6.6 0 10 0 C10 0.99 10 1.98 10 3 C9.34 3 8.68 3 8 3 C8 2.34 8 1.68 8 1 C7.01 1.33 6.02 1.66 5 2 C3.74674715 4.78526449 3.74674715 4.78526449 2.8125 8.0625 C2.46832031 9.16722656 2.12414062 10.27195313 1.76953125 11.41015625 C1.51558594 12.26480469 1.26164062 13.11945313 1 14 C0.34 14 -0.32 14 -1 14 C-1 14.66 -1 15.32 -1 16 C-0.01 16.33 0.98 16.66 2 17 C1.67 26.24 1.34 35.48 1 45 C0.67 45 0.34 45 0 45 C0 36.42 0 27.84 0 19 C-1.65 19 -3.3 19 -5 19 C-5 16.36 -5 13.72 -5 11 C-3.35 11 -1.7 11 0 11 C0 7.37 0 3.74 0 0 Z " fill="#673F81" transform="translate(436,227)"/>
<path d="M0 0 C16.83 0 33.66 0 51 0 C50.67 0.66 50.34 1.32 50 2 C33.83 2.33 17.66 2.66 1 3 C0.67 2.01 0.34 1.02 0 0 Z " fill="#68407D" transform="translate(30,211)"/>
<path d="M0 0 C0.33 0 0.66 0 1 0 C1 4.95 1 9.9 1 15 C-10.55 15 -22.1 15 -34 15 C-34 15.66 -34 16.32 -34 17 C-34.66 17 -35.32 17 -36 17 C-35.67 15.68 -35.34 14.36 -35 13 C-33.61494263 12.99383667 -33.61494263 12.99383667 -32.2019043 12.98754883 C-28.77386924 12.96057002 -25.34763038 12.91149458 -21.92016602 12.84741211 C-20.43720523 12.82422311 -18.95407955 12.80983419 -17.47094727 12.80444336 C-15.33765822 12.79515887 -13.20696526 12.75419179 -11.07421875 12.70703125 C-9.14968872 12.68346558 -9.14968872 12.68346558 -7.1862793 12.65942383 C-3.85721002 12.31769824 -3.85721002 12.31769824 -2.10083008 9.6940918 C-0.78378089 6.47084101 -0.33871552 3.45489829 0 0 Z " fill="#6C487D" transform="translate(82,213)"/>
<path d="M0 0 C0.99 0 1.98 0 3 0 C3 2.97 3 5.94 3 9 C12.9 9 22.8 9 33 9 C33 9.66 33 10.32 33 11 C32.03175293 11.03758423 32.03175293 11.03758423 31.04394531 11.07592773 C28.11244106 11.19214433 25.18123783 11.31475442 22.25 11.4375 C21.23421875 11.47681641 20.2184375 11.51613281 19.171875 11.55664062 C18.1921875 11.59853516 17.2125 11.64042969 16.203125 11.68359375 C15.30239258 11.72025146 14.40166016 11.75690918 13.47363281 11.79467773 C11.03672608 11.91783189 11.03672608 11.91783189 8.90527344 12.59008789 C5.40065606 13.34409258 2.98820719 11.69143803 0 10 C-1.48769307 6.46672895 -0.93852191 3.64980742 0 0 Z " fill="#6A427A" transform="translate(45,231)"/>
<path d="M0 0 C1.32 0.33 2.64 0.66 4 1 C3.45730469 1.58007812 2.91460937 2.16015625 2.35546875 2.7578125 C-1.52933097 6.99959381 -4.56507648 10.74569134 -7 16 C-7.99 16.66 -8.98 17.32 -10 18 C-9.01 18.66 -8.02 19.32 -7 20 C-12.75 20.125 -12.75 20.125 -15 19 C-15 17.68 -15 16.36 -15 15 C-14.34 15 -13.68 15 -13 15 C-13 14.34 -13 13.68 -13 13 C-11.42578125 11.484375 -11.42578125 11.484375 -9.3125 9.75 C-5.76035397 6.74045531 -2.86029631 3.66475465 0 0 Z " fill="#6F4587" transform="translate(188,264)"/>
<path d="M0 0 C9.9 0 19.8 0 30 0 C30 0.66 30 1.32 30 2 C17.13 2.99 17.13 2.99 4 4 C3.34 5.98 2.68 7.96 2 10 C1.01 10.33 0.02 10.66 -1 11 C-1.0270043 9.54176788 -1.04639787 8.08339325 -1.0625 6.625 C-1.07410156 5.81289062 -1.08570313 5.00078125 -1.09765625 4.1640625 C-1 2 -1 2 0 0 Z " fill="#684B84" transform="translate(257,224)"/>
<path d="M0 0 C3.96 0 7.92 0 12 0 C12 23.76 12 47.52 12 72 C11.01 72 10.02 72 9 72 C9.495 71.01 9.495 71.01 10 70 C10.12067685 67.87651099 10.17744375 65.74929112 10.20532227 63.62255859 C10.22017166 62.64188667 10.22017166 62.64188667 10.23532104 61.6414032 C10.26694711 59.47711833 10.29169772 57.3128115 10.31640625 55.1484375 C10.33697483 53.64913355 10.35797128 52.14983541 10.37937927 50.65054321 C10.43460988 46.70174869 10.48401476 42.75290174 10.53222656 38.80401611 C10.58243439 34.77554654 10.6381242 30.74715322 10.69335938 26.71875 C10.80095303 18.81256444 10.90239529 10.90631515 11 3 C10.34 3 9.68 3 9 3 C9 2.34 9 1.68 9 1 C6.36 1.33 3.72 1.66 1 2 C0.67 1.34 0.34 0.68 0 0 Z " fill="#623777" transform="translate(96,211)"/>
<path d="M0 0 C1.56073255 2.34109882 2.86373867 4.56333403 4.125 7.0625 C4.47820312 7.75472656 4.83140625 8.44695312 5.1953125 9.16015625 C6 11 6 11 6 13 C6.61875 13.309375 7.2375 13.61875 7.875 13.9375 C9.25 14.625 10.625 15.3125 12 16 C12 16.66 12 17.32 12 18 C12.66 18 13.32 18 14 18 C14 18.66 14 19.32 14 20 C14.83144531 19.97679687 15.66289062 19.95359375 16.51953125 19.9296875 C17.60621094 19.91164063 18.69289062 19.89359375 19.8125 19.875 C20.89144531 19.85179687 21.97039062 19.82859375 23.08203125 19.8046875 C26 20 26 20 29 22 C28.67 22.99 28.34 23.98 28 25 C18.58748527 24.07626759 11.52696519 22.16685267 5.1484375 14.88671875 C1.56300571 9.96737039 0.22044776 6.06231335 0 0 Z " fill="#64417B" transform="translate(117,259)"/>
<path d="M0 0 C5.37514905 -0.04935509 10.75016685 -0.08569802 16.12548828 -0.10986328 C17.95493873 -0.11993484 19.78437303 -0.13359276 21.61376953 -0.15087891 C24.23994934 -0.17507677 26.86591675 -0.18647132 29.4921875 -0.1953125 C30.72350906 -0.21079636 30.72350906 -0.21079636 31.97970581 -0.22659302 C33.98789142 -0.22699184 35.99555382 -0.1224954 38 0 C38.66 0.66 39.32 1.32 40 2 C39 3 39 3 35.30639648 3.11352539 C33.66128708 3.11336624 32.01617269 3.10766988 30.37109375 3.09765625 C29.07474754 3.09553383 29.07474754 3.09553383 27.75221252 3.09336853 C24.98060708 3.08775239 22.2090812 3.07519719 19.4375 3.0625 C17.5631522 3.05748708 15.68880315 3.05292381 13.81445312 3.04882812 C9.20960456 3.03777772 4.60481579 3.0205023 0 3 C0 2.01 0 1.02 0 0 Z " fill="#69407D" transform="translate(134,258)"/>
<path d="M0 0 C0.66 0 1.32 0 2 0 C1.1875 1.9375 1.1875 1.9375 0 4 C-0.99 4.33 -1.98 4.66 -3 5 C-4.10499213 11.61663962 -4.47652531 16.12587102 -1 22 C1.40792563 24.25257559 4.01890637 25.61592082 7 27 C4.10351441 27.82756731 2.27149356 28.06313804 -0.6875 27.375 C-3.62920927 25.62587557 -3.98400887 24.20427971 -5 21 C-5.66 20.01 -6.32 19.02 -7 18 C-7.265625 15.44140625 -7.265625 15.44140625 -7.25 12.5625 C-7.25515625 11.61503906 -7.2603125 10.66757812 -7.265625 9.69140625 C-6.99748089 6.97447547 -6.38531142 5.32534417 -5 3 C-3.68 3 -2.36 3 -1 3 C-0.67 2.01 -0.34 1.02 0 0 Z " fill="#663D82" transform="translate(321,247)"/>
<path d="M0 0 C0.33 6.6 0.66 13.2 1 20 C4.63 19.67 8.26 19.34 12 19 C12 19.66 12 20.32 12 21 C9.45258968 22.27370516 7.271465 22.36635913 4.4375 22.625 C3.44621094 22.72039062 2.45492188 22.81578125 1.43359375 22.9140625 C0.63050781 22.94242187 -0.17257812 22.97078125 -1 23 C-2 22 -2 22 -2.0625 19.4375 C-2.041875 18.633125 -2.02125 17.82875 -2 17 C-2.66 16.67 -3.32 16.34 -4 16 C-3.67 15.67 -3.34 15.34 -3 15 C-2.92728259 12.64686445 -2.91629132 10.29166332 -2.9375 7.9375 C-2.94652344 6.64714844 -2.95554687 5.35679687 -2.96484375 4.02734375 C-2.97644531 3.02832031 -2.98804688 2.02929688 -3 1 C-1 0 -1 0 0 0 Z " fill="#683B80" transform="translate(446,253)"/>
<path d="M0 0 C0.53625 0.226875 1.0725 0.45375 1.625 0.6875 C-4.125 4.6875 -4.125 4.6875 -6.375 4.6875 C-6.68630859 5.57695312 -6.68630859 5.57695312 -7.00390625 6.484375 C-8.90529398 9.5395963 -11.09290932 10.39209647 -14.3125 11.9375 C-15.37339844 12.45828125 -16.43429688 12.9790625 -17.52734375 13.515625 C-20.375 14.6875 -20.375 14.6875 -23.375 14.6875 C-23.375 13.6975 -23.375 12.7075 -23.375 11.6875 C-11.30603448 4.6875 -11.30603448 4.6875 -8.375 4.6875 C-8.375 4.0275 -8.375 3.3675 -8.375 2.6875 C-2.95961538 -0.38942308 -2.95961538 -0.38942308 0 0 Z " fill="#78B451" transform="translate(269.375,199.3125)"/>
<path d="M0 0 C7.42857143 1 7.42857143 1 11 2 C11 2.66 11 3.32 11 4 C12.670625 4.4021875 12.670625 4.4021875 14.375 4.8125 C18 6 18 6 20 9 C19 10 19 10 16.75 10.1875 C13.73161365 9.98170093 11.78369339 9.165267 9 8 C6.34621287 7.26723788 3.67950832 6.63581553 1 6 C1.33 4.35 1.66 2.7 2 1 C1.34 0.67 0.68 0.34 0 0 Z " fill="#78A660" transform="translate(377,189)"/>
<path d="M0 0 C0.33 0 0.66 0 1 0 C1.0462833 8.70115581 1.08184872 17.40226942 1.10362434 26.10352135 C1.11407407 30.14360264 1.1282548 34.18359989 1.15087891 38.22363281 C1.17256512 42.12044733 1.18455967 46.01718087 1.18975449 49.91405106 C1.19345786 51.40285136 1.20068938 52.8916471 1.21146011 54.38041306 C1.22591919 56.46122667 1.22798033 58.54170306 1.22705078 60.62255859 C1.231492 61.80836517 1.23593323 62.99417175 1.24050903 64.21591187 C1 67 1 67 -1 69 C-4.625 69.125 -4.625 69.125 -8 69 C-8 68.34 -8 67.68 -8 67 C-5.36 66.67 -2.72 66.34 0 66 C0 44.22 0 22.44 0 0 Z " fill="#6B3688" transform="translate(106,214)"/>
<path d="M0 0 C0.33 0.66 0.66 1.32 1 2 C-1.17024784 5.25537177 -2.68059295 6.07011218 -6 8 C-6.886875 8.721875 -7.77375 9.44375 -8.6875 10.1875 C-11 12 -11 12 -13 12 C-12.67 13.65 -12.34 15.3 -12 17 C-13.32 16.67 -14.64 16.34 -16 16 C-15.34 14.02 -14.68 12.04 -14 10 C-13.34 10 -12.68 10 -12 10 C-12 9.34 -12 8.68 -12 8 C-11.34 8 -10.68 8 -10 8 C-9.9175 7.05125 -9.835 6.1025 -9.75 5.125 C-9 2 -9 2 -7.25 0.625 C-4.73711854 -0.07302263 -2.59626911 -0.14423717 0 0 Z " fill="#6D4A82" transform="translate(228,255)"/>
<path d="M0 0 C0.99 0 1.98 0 3 0 C3 1.65 3 3.3 3 5 C3.66 5 4.32 5 5 5 C5.82250373 8.46530258 6.04793728 11.32763072 5.66015625 14.86328125 C5.56669922 15.74951172 5.47324219 16.63574219 5.37695312 17.54882812 C5.27318359 18.46083984 5.16941406 19.37285156 5.0625 20.3125 C4.96259766 21.24384766 4.86269531 22.17519531 4.75976562 23.13476562 C4.51323297 25.42399738 4.25977763 27.71223984 4 30 C5.11375 29.814375 6.2275 29.62875 7.375 29.4375 C11 29 11 29 13 30 C13 30.99 13 31.98 13 33 C9.7 33 6.4 33 3 33 C2.67 22.44 2.34 11.88 2 1 C1.34 0.67 0.68 0.34 0 0 Z " fill="#6A4780" transform="translate(411,250)"/>
<path d="M0 0 C3.3 0 6.6 0 10 0 C10 0.99 10 1.98 10 3 C9.34 3 8.68 3 8 3 C8 2.34 8 1.68 8 1 C7.34 1 6.68 1 6 1 C6 1.66 6 2.32 6 3 C5.34 3 4.68 3 4 3 C2.56084385 5.8783123 2.66706177 8.54928664 2.46484375 11.7578125 C2.42186661 12.42086395 2.37888947 13.08391541 2.33460999 13.76705933 C2.19819167 15.88613723 2.06777719 18.00553655 1.9375 20.125 C1.8460981 21.56122311 1.75430607 22.99742144 1.66210938 24.43359375 C1.43687752 27.9554529 1.21702886 31.47762476 1 35 C0.67 35 0.34 35 0 35 C0 23.45 0 11.9 0 0 Z " fill="#664078" transform="translate(382,238)"/>
<path d="M0 0 C1.32 1.32 2.64 2.64 4 4 C4.66 3.67 5.32 3.34 6 3 C6 3.66 6 4.32 6 5 C8.64 5 11.28 5 14 5 C13.67 5.66 13.34 6.32 13 7 C11.0390625 7.5625 11.0390625 7.5625 8.625 8 C5.32474381 8.60200113 3.88591027 9.07605982 1 11 C-0.2188121 14.55672179 -0.2188121 14.55672179 -1 18 C-1.66 17.67 -2.32 17.34 -3 17 C-3.25 10.375 -3.25 10.375 -1 7 C-1.31506627 3.85778033 -1.31506627 3.85778033 -2 1 C-1.34 0.67 -0.68 0.34 0 0 Z " fill="#67357D" transform="translate(394,241)"/>
<path d="M0 0 C0.33 0 0.66 0 1 0 C1 12.21 1 24.42 1 37 C-2.63 37 -6.26 37 -10 37 C-10 36.01 -10 35.02 -10 34 C-7.69 34 -5.38 34 -3 34 C-0.49693194 27.1521756 -0.55695811 20.29154397 -0.375 13.0625 C-0.33632813 11.80630859 -0.29765625 10.55011719 -0.2578125 9.25585938 C-0.16396783 6.17071574 -0.07827684 3.08557135 0 0 Z " fill="#63467B" transform="translate(370,246)"/>
<path d="M0 0 C2.375 0.6875 2.375 0.6875 5 2 C6.1640625 4.58203125 6.1640625 4.58203125 7 7 C8.95803507 7.05389087 10.91648909 7.09274217 12.875 7.125 C13.96554687 7.14820313 15.05609375 7.17140625 16.1796875 7.1953125 C19.1371051 7.30060534 19.1371051 7.30060534 21 5 C21.99 5 22.98 5 24 5 C23.67 6.32 23.34 7.64 23 9 C17.47820149 10.64708904 11.68963973 10.64179713 6 10 C2.44040479 7.60411861 1.36499135 6.26343161 0.1875 2.1875 C0.125625 1.465625 0.06375 0.74375 0 0 Z " fill="#65437A" transform="translate(436,273)"/>
<path d="M0 0 C0.9583374 0.00523682 1.9166748 0.01047363 2.90405273 0.01586914 C4.45576172 0.02070313 4.45576172 0.02070313 6.03881836 0.02563477 C7.12743164 0.03401367 8.21604492 0.04239258 9.33764648 0.05102539 C10.97636719 0.05779297 10.97636719 0.05779297 12.64819336 0.06469727 C15.35723144 0.07652713 18.06616248 0.09300996 20.77514648 0.11352539 C20.77514648 0.77352539 20.77514648 1.43352539 20.77514648 2.11352539 C9.25350639 3.44609942 9.25350639 3.44609942 3.77514648 2.11352539 C3.77514648 3.43352539 3.77514648 4.75352539 3.77514648 6.11352539 C3.11514648 6.11352539 2.45514648 6.11352539 1.77514648 6.11352539 C1.77514648 5.45352539 1.77514648 4.79352539 1.77514648 4.11352539 C0.78514648 4.44352539 -0.20485352 4.77352539 -1.22485352 5.11352539 C-1.88485352 3.79352539 -2.54485352 2.47352539 -3.22485352 1.11352539 C-2.22485352 0.11352539 -2.22485352 0.11352539 0 0 Z " fill="#7AAF60" transform="translate(176.224853515625,223.886474609375)"/>
<path d="M0 0 C3.32222925 1.42381254 5.54019768 3.47069557 8.1875 5.9375 C8.1875 6.5975 8.1875 7.2575 8.1875 7.9375 C8.8475 7.9375 9.5075 7.9375 10.1875 7.9375 C10.1875 8.9275 10.1875 9.9175 10.1875 10.9375 C9.5275 10.9375 8.8675 10.9375 8.1875 10.9375 C8.1875 11.5975 8.1875 12.2575 8.1875 12.9375 C7.5275 12.9375 6.8675 12.9375 6.1875 12.9375 C6.5175 10.9575 6.8475 8.9775 7.1875 6.9375 C4.8775 7.2675 2.5675 7.5975 0.1875 7.9375 C0.1875 6.6175 0.1875 5.2975 0.1875 3.9375 C-2.1225 4.5975 -4.4325 5.2575 -6.8125 5.9375 C-5.40308832 2.68501151 -4.0441711 -0.13945418 0 0 Z " fill="#6B4283" transform="translate(160.8125,263.0625)"/>
<path d="M0 0 C4.27059788 2.13529894 7.19837837 4.54991154 9 9 C9.90800422 13.30917256 10.5067304 17.62547747 11 22 C9.68 22 8.36 22 7 22 C6.94392578 20.86111328 6.94392578 20.86111328 6.88671875 19.69921875 C6.78810547 18.20841797 6.78810547 18.20841797 6.6875 16.6875 C6.62949219 15.70136719 6.57148438 14.71523437 6.51171875 13.69921875 C5.94031089 10.68515136 5.23936056 9.96383714 3 8 C2.64386903 6.33805547 2.30791692 4.671549 2 3 C1.34 2.67 0.68 2.34 0 2 C0 1.34 0 0.68 0 0 Z " fill="#68447E" transform="translate(163,231)"/>
<path d="M0 0 C2.02328545 0.26575553 4.03469606 0.61832122 6.04296875 0.98046875 C6.04296875 2.63046875 6.04296875 4.28046875 6.04296875 5.98046875 C0.76296875 5.98046875 -4.51703125 5.98046875 -9.95703125 5.98046875 C-10.28703125 4.66046875 -10.61703125 3.34046875 -10.95703125 1.98046875 C-9.56484375 2.32078125 -9.56484375 2.32078125 -8.14453125 2.66796875 C-7.09265625 2.77109375 -6.04078125 2.87421875 -4.95703125 2.98046875 C-4.27640625 2.23796875 -4.27640625 2.23796875 -3.58203125 1.48046875 C-1.95703125 -0.01953125 -1.95703125 -0.01953125 0 0 Z " fill="#7BA76D" transform="translate(451.95703125,293.01953125)"/>
<path d="M0 0 C1.670625 0.061875 1.670625 0.061875 3.375 0.125 C3.375 0.785 3.375 1.445 3.375 2.125 C-0.09 3.61 -0.09 3.61 -3.625 5.125 C-3.955 17.335 -4.285 29.545 -4.625 42.125 C-4.955 42.125 -5.285 42.125 -5.625 42.125 C-5.67434926 36.46501954 -5.71069529 30.80516364 -5.73486328 25.14501953 C-5.74493582 23.21856506 -5.75859443 21.29212592 -5.77587891 19.36572266 C-5.80007241 16.60054748 -5.81147036 13.835574 -5.8203125 11.0703125 C-5.83063507 10.2056839 -5.84095764 9.3410553 -5.85159302 8.45022583 C-5.85199106 6.34046479 -5.74765243 4.23119282 -5.625 2.125 C-3.625 0.125 -3.625 0.125 0 0 Z " fill="#5E3F7D" transform="translate(365.625,236.875)"/>
<path d="M0 0 C2.125 0.9375 2.125 0.9375 4 2 C3.77192509 3.79458945 3.51677697 5.58575449 3.25 7.375 C3.11078125 8.37273437 2.9715625 9.37046875 2.828125 10.3984375 C2.55484375 11.25695312 2.2815625 12.11546875 2 13 C0.02 13.99 0.02 13.99 -2 15 C-2 10.38 -2 5.76 -2 1 C-1.34 0.67 -0.68 0.34 0 0 Z " fill="#80966B" transform="translate(434,283)"/>
<path d="M0 0 C2.9375 0.1875 2.9375 0.1875 6 1 C7.375 3.0625 7.375 3.0625 8 5 C6.75 6.5 6.75 6.5 5 8 C3.68 8 2.36 8 1 8 C1 7.34 1 6.68 1 6 C1.66 6 2.32 6 3 6 C2.67 4.68 2.34 3.36 2 2 C1.46375 2.33 0.9275 2.66 0.375 3 C-2.5391061 4.22699204 -4.86867708 4.14233286 -8 4 C-8.33 3.01 -8.66 2.02 -9 1 C-7.700625 1.020625 -6.40125 1.04125 -5.0625 1.0625 C-3.70834367 1.08399454 -2.35243917 1.07148199 -1 1 C-0.67 0.67 -0.34 0.34 0 0 Z " fill="#6A835F" transform="translate(448,286)"/>
<path d="M0 0 C0.66 0.66 1.32 1.32 2 2 C1.625 5.125 1.625 5.125 1 8 C0.69151123 7.35256836 0.38302246 6.70513672 0.06518555 6.03808594 C-3.19001694 2.8255986 -6.63542996 3.39692573 -11.04296875 3.390625 C-12.36836418 3.36582062 -12.36836418 3.36582062 -13.72053528 3.34051514 C-16.54292678 3.29192715 -19.36477912 3.27064059 -22.1875 3.25 C-24.10093874 3.2218493 -26.01435225 3.19192314 -27.92773438 3.16015625 C-32.61844521 3.08616545 -37.30885483 3.03665698 -42 3 C-42 2.67 -42 2.34 -42 2 C-40.7632251 1.97494385 -39.5264502 1.9498877 -38.25219727 1.92407227 C-33.68063287 1.83017747 -29.10922682 1.72991371 -24.5378418 1.62768555 C-22.55610854 1.58426856 -20.57433622 1.54259863 -18.5925293 1.50268555 C-15.7503683 1.44514617 -12.90840517 1.38140555 -10.06640625 1.31640625 C-8.72891075 1.29133751 -8.72891075 1.29133751 -7.36439514 1.26576233 C-3.36051605 1.563413 -3.36051605 1.563413 0 0 Z " fill="#6B3989" transform="translate(81,211)"/>
<path d="M0 0 C1.65 0.33 3.3 0.66 5 1 C5 1.66 5 2.32 5 3 C5.66 3.33 6.32 3.66 7 4 C2.83150871 6.08811252 0.22153548 6.02184218 -4.3125 5.125 C-5.91544922 4.81949219 -5.91544922 4.81949219 -7.55078125 4.5078125 C-8.35902344 4.34023437 -9.16726563 4.17265625 -10 4 C-10 3.34 -10 2.68 -10 2 C-6.7 2 -3.4 2 0 2 C0 1.34 0 0.68 0 0 Z " fill="#75B55C" transform="translate(374,189)"/>
<path d="M0 0 C2.125 0.375 2.125 0.375 4 1 C4.495 3.475 4.495 3.475 5 6 C4.47889648 5.84152588 3.95779297 5.68305176 3.42089844 5.51977539 C0.34892068 4.86021098 -2.59339747 4.78002727 -5.734375 4.68359375 C-7.02988281 4.64169922 -8.32539063 4.59980469 -9.66015625 4.55664062 C-11.02343476 4.51683329 -12.38671606 4.47712094 -13.75 4.4375 C-15.12891875 4.39427726 -16.50782526 4.35066179 -17.88671875 4.30664062 C-21.2577119 4.20056042 -24.62877826 4.0985015 -28 4 C-28 3.67 -28 3.34 -28 3 C-26.83428467 2.970271 -26.83428467 2.970271 -25.64501953 2.93994141 C-22.13799309 2.84492991 -18.63158206 2.73515441 -15.125 2.625 C-13.90167969 2.5940625 -12.67835938 2.563125 -11.41796875 2.53125 C-10.25136719 2.49257812 -9.08476562 2.45390625 -7.8828125 2.4140625 C-6.26463623 2.36693115 -6.26463623 2.36693115 -4.61376953 2.31884766 C-1.84238346 2.25323678 -1.84238346 2.25323678 0 0 Z " fill="#73AC5B" transform="translate(359,187)"/>
<path d="M0 0 C-2.28185979 2.6858405 -3.73875274 3.40853749 -7.23046875 3.73046875 C-8.03291016 3.81103516 -8.83535156 3.89160156 -9.66210938 3.97460938 C-10.91217773 4.07999023 -10.91217773 4.07999023 -12.1875 4.1875 C-13.03248047 4.26935547 -13.87746094 4.35121094 -14.74804688 4.43554688 C-16.83092268 4.63559709 -18.91535003 4.81937284 -21 5 C-20.67 4.01 -20.34 3.02 -20 2 C-13.2168636 0.57997892 -6.93302093 -0.22731216 0 0 Z " fill="#7FB267" transform="translate(321,184)"/>
<path d="M0 0 C3.29164717 -0.02952761 6.58325938 -0.04697292 9.875 -0.0625 C11.25171875 -0.07506836 11.25171875 -0.07506836 12.65625 -0.08789062 C18.8335647 -0.10964173 24.86721835 0.26069892 31 1 C30.67 1.99 30.34 2.98 30 4 C24.25 4.125 24.25 4.125 22 3 C20.68 3 19.36 3 18 3 C18 2.34 18 1.68 18 1 C16.02 1.99 16.02 1.99 14 3 C14 2.34 14 1.68 14 1 C9.38 1 4.76 1 0 1 C0 0.67 0 0.34 0 0 Z " fill="#76AC5E" transform="translate(328,183)"/>
<path d="M0 0 C0.33 0.66 0.66 1.32 1 2 C5.99380481 4.29445086 11.08395276 4.39035438 16.48828125 4.65625 C17.73158203 4.82640625 17.73158203 4.82640625 19 5 C19.33 5.66 19.66 6.32 20 7 C17.62374823 7.10883596 15.25256024 7.18766696 12.875 7.25 C12.20984375 7.28351563 11.5446875 7.31703125 10.859375 7.3515625 C5.51320929 7.45638928 3.04189838 6.19826227 -1 3 C-0.67 2.01 -0.34 1.02 0 0 Z " fill="#633878" transform="translate(316,276)"/>
<path d="M0 0 C0 0.66 0 1.32 0 2 C-0.99 2 -1.98 2 -3 2 C-3 2.66 -3 3.32 -3 4 C-4.40751221 4.86916887 -5.8264521 5.71985149 -7.25 6.5625 C-8.03890625 7.03816406 -8.8278125 7.51382813 -9.640625 8.00390625 C-12.30844625 9.13022151 -13.34501768 9.0169313 -16 8 C-16 7.34 -16 6.68 -16 6 C-4.28571429 0 -4.28571429 0 0 0 Z " fill="#74B060" transform="translate(283,206)"/>
<path d="M0 0 C0.33 0.99 0.66 1.98 1 3 C-4.28 3 -9.56 3 -15 3 C-15 2.01 -15 1.02 -15 0 C-12.02148438 0.04882812 -12.02148438 0.04882812 -9.04296875 0.09765625 C-0.74722459 -0.29888984 -0.74722459 -0.29888984 0 0 Z " fill="#9E22B5" transform="translate(244,281)"/>
<path d="M0 0 C1.21429688 -0.03738281 2.42859375 -0.07476562 3.6796875 -0.11328125 C7.67393563 0.38033898 9.26735349 1.55807647 12.125 4.3125 C10.475 4.3125 8.825 4.3125 7.125 4.3125 C6.795 3.3225 6.465 2.3325 6.125 1.3125 C5.3 1.6425 4.475 1.9725 3.625 2.3125 C-0.53226831 3.50029095 -3.56626185 3.59974921 -7.875 3.3125 C-8.535 2.6525 -9.195 1.9925 -9.875 1.3125 C-6.43867253 0.16705751 -3.62068045 0.0727198 0 0 Z " fill="#633A77" transform="translate(406.875,237.6875)"/>
<path d="M0 0 C6.93 0 13.86 0 21 0 C20.67 0.66 20.34 1.32 20 2 C13.73 2 7.46 2 1 2 C1 2.66 1 3.32 1 4 C0.34 4 -0.32 4 -1 4 C-0.67 2.68 -0.34 1.36 0 0 Z " fill="#693B83" transform="translate(47,226)"/>
<path d="M0 0 C2 1 2 1 3 3 C-3.6276327 6.8741903 -8.29711007 8.6212008 -16 8 C-16 7.34 -16 6.68 -16 6 C-13.36 6 -10.72 6 -8 6 C-8 5.34 -8 4.68 -8 4 C-6.02 4 -4.04 4 -2 4 C-2 3.34 -2 2.68 -2 2 C-1.34 2 -0.68 2 0 2 C0 1.34 0 0.68 0 0 Z " fill="#673E7E" transform="translate(164,275)"/>
<path d="M0 0 C0.99 0.99 1.98 1.98 3 3 C1.76238177 4.65516419 0.50942545 6.29886798 -0.75 7.9375 C-1.44609375 8.85402344 -2.1421875 9.77054687 -2.859375 10.71484375 C-5.01029035 13.01098513 -5.93617261 13.67567593 -9 14 C-9 13.01 -9 12.02 -9 11 C-7.52428613 9.78663526 -6.04493659 8.57695438 -4.53515625 7.40625 C-2.24700482 5.31023343 -1.18325797 2.82667183 0 0 Z " fill="#68467C" transform="translate(209,266)"/>
<path d="M0 0 C1.98 0.495 1.98 0.495 4 1 C3.34 1 2.68 1 2 1 C2.33 3.64 2.66 6.28 3 9 C5.97 9.495 5.97 9.495 9 10 C8.01 11.485 8.01 11.485 7 13 C3 13 3 13 0.75 10.875 C-1.26776361 7.56010264 -1.42355689 5.81201201 -1 2 C-0.67 1.34 -0.34 0.68 0 0 Z " fill="#6F8E63" transform="translate(360,225)"/>
<path d="M0 0 C0.33 0 0.66 0 1 0 C1 6.93 1 13.86 1 21 C0.34 21.33 -0.32 21.66 -1 22 C-1.66 21.67 -2.32 21.34 -3 21 C-2.85950482 19.52031676 -2.71245174 18.04125484 -2.5625 16.5625 C-2.48128906 15.73878906 -2.40007813 14.91507812 -2.31640625 14.06640625 C-2 12 -2 12 -1 11 C-0.76636119 9.15108054 -0.58696365 7.29511969 -0.4375 5.4375 C-0.35371094 4.42558594 -0.26992188 3.41367187 -0.18359375 2.37109375 C-0.12300781 1.58863281 -0.06242187 0.80617188 0 0 Z " fill="#5F436C" transform="translate(47,262)"/>
<path d="M0 0 C0 0.99 0 1.98 0 3 C-6.6 3 -13.2 3 -20 3 C-20 2.34 -20 1.68 -20 1 C-17.4167588 0.83178895 -14.83342301 0.66537483 -12.25 0.5 C-11.52039063 0.45230469 -10.79078125 0.40460938 -10.0390625 0.35546875 C-6.68189836 0.14183103 -3.36563724 0 0 0 Z " fill="#633A7A" transform="translate(290,262)"/>
<path d="M0 0 C0.97710937 -0.01417969 1.95421875 -0.02835937 2.9609375 -0.04296875 C5.625 0.1875 5.625 0.1875 8.625 2.1875 C8.295 3.1775 7.965 4.1675 7.625 5.1875 C5.66520573 4.90581703 3.70717622 4.61183283 1.75 4.3125 C0.11417969 4.06886719 0.11417969 4.06886719 -1.5546875 3.8203125 C-4.375 3.1875 -4.375 3.1875 -6.375 1.1875 C-4.64526886 -0.54223114 -2.34983037 0.01541883 0 0 Z " fill="#5F377E" transform="translate(137.375,278.8125)"/>
<path d="M0 0 C0.66 0 1.32 0 2 0 C1.34 5.94 0.68 11.88 0 18 C-0.66 18 -1.32 18 -2 18 C-3.56159771 12.06592871 -2.75526917 5.51053834 0 0 Z " fill="#66387C" transform="translate(119,239)"/>
<path d="M0 0 C2.5625 1.625 2.5625 1.625 4 4 C4.25 7.25 4.25 7.25 4 10 C3.34 8.68 2.68 7.36 2 6 C1.34 6 0.68 6 0 6 C-0.33 5.34 -0.66 4.68 -1 4 C-3.09508223 3.60914534 -3.09508223 3.60914534 -5.5 3.5 C-7.96875 3.34375 -7.96875 3.34375 -10 3 C-10.33 2.34 -10.66 1.68 -11 1 C-7.54053429 -0.72973286 -3.78270206 -0.47703703 0 0 Z " fill="#653B79" transform="translate(153,237)"/>
<path d="M0 0 C0.33 0 0.66 0 1 0 C1.33 2.64 1.66 5.28 2 8 C2.66 7.01 3.32 6.02 4 5 C4.66 5.33 5.32 5.66 6 6 C5.67 7.65 5.34 9.3 5 11 C2.36 11.33 -0.28 11.66 -3 12 C-3 11.01 -3 10.02 -3 9 C-2.01 8.67 -1.02 8.34 0 8 C0 5.36 0 2.72 0 0 Z " fill="#629E50" transform="translate(436,288)"/>
<path d="M0 0 C0 0.99 0 1.98 0 3 C-1.32 3.33 -2.64 3.66 -4 4 C-4.1546875 4.9590625 -4.1546875 4.9590625 -4.3125 5.9375 C-4.539375 6.618125 -4.76625 7.29875 -5 8 C-5.99 8.33 -6.98 8.66 -8 9 C-8.33 9.66 -8.66 10.32 -9 11 C-11.4375 10.625 -11.4375 10.625 -14 10 C-14.33 9.34 -14.66 8.68 -15 8 C-13.6696875 7.938125 -13.6696875 7.938125 -12.3125 7.875 C-7.76980514 6.67504287 -6.78198449 4.70931265 -4 1 C-2 0 -2 0 0 0 Z " fill="#76B05C" transform="translate(223,253)"/>
<path d="M0 0 C0.33 0 0.66 0 1 0 C0.67 2.64 0.34 5.28 0 8 C-0.66 8 -1.32 8 -2 8 C-2 8.66 -2 9.32 -2 10 C-4.64738916 11.4606285 -5.89448334 12 -9 12 C-9 11.34 -9 10.68 -9 10 C-9.99 9.67 -10.98 9.34 -12 9 C-10.72125 8.9175 -9.4425 8.835 -8.125 8.75 C-5.94666582 8.54130069 -5.94666582 8.54130069 -4 8 C-2.4100567 6.07935207 -2.4100567 6.07935207 -2 4 C-1.34 4 -0.68 4 0 4 C0 2.68 0 1.36 0 0 Z " fill="#6D4182" transform="translate(292,246)"/>
<path d="M0 0 C1.98 0 3.96 0 6 0 C6 0.66 6 1.32 6 2 C12.27 2 18.54 2 25 2 C25 2.33 25 2.66 25 3 C17.08 3.33 9.16 3.66 1 4 C0.67 2.68 0.34 1.36 0 0 Z " fill="#603D6C" transform="translate(47,255)"/>
<path d="M0 0 C-4.86187986 3.19494962 -9.59712038 5.83884815 -15 8 C-15.99 8.495 -15.99 8.495 -17 9 C-17 8.01 -17 7.02 -17 6 C-14.69 5.34 -12.38 4.68 -10 4 C-10 3.34 -10 2.68 -10 2 C-4.10714286 -1.34821429 -4.10714286 -1.34821429 0 0 Z " fill="#7AAD65" transform="translate(271,200)"/>
<path d="M0 0 C2.82631003 0.29750632 4.56696127 0.65655549 6.8125 2.4375 C8 4 8 4 8 6 C8.66 6 9.32 6 10 6 C10.99 7.98 11.98 9.96 13 12 C11.68 11.67 10.36 11.34 9 11 C9 9.68 9 8.36 9 7 C8.34 7 7.68 7 7 7 C7 6.34 7 5.68 7 5 C6.236875 4.896875 5.47375 4.79375 4.6875 4.6875 C1.82940576 3.95635961 0.84257115 3.23048087 -1 1 C-0.67 0.67 -0.34 0.34 0 0 Z " fill="#73637E" transform="translate(196,255)"/>
<path d="M0 0 C0.66 0.33 1.32 0.66 2 1 C2 1.99 2 2.98 2 4 C1.38125 4.226875 0.7625 4.45375 0.125 4.6875 C-2.61410209 6.37929835 -3.05024472 7.99244161 -4 11 C-4.99 10.67 -5.98 10.34 -7 10 C-5.76075855 5.04303419 -4.21422242 2.88341534 0 0 Z " fill="#674084" transform="translate(316,240)"/>
<path d="M0 0 C2.39300466 4.78600933 3.15090444 7.382305 2.6875 12.625 C2.60886719 13.60726563 2.53023438 14.58953125 2.44921875 15.6015625 C2.30097656 16.39304687 2.15273438 17.18453125 2 18 C1.34 18.33 0.68 18.66 0 19 C0 12.73 0 6.46 0 0 Z " fill="#70438B" transform="translate(390,254)"/>
<path d="M0 0 C0.66 0 1.32 0 2 0 C1.75 1.875 1.75 1.875 1 4 C-0.32407669 4.68486725 -1.65909241 5.34870203 -3 6 C-4.34294481 7.65893182 -5.67744688 9.32476605 -7 11 C-7.66 11 -8.32 11 -9 11 C-8.8125 8.6875 -8.8125 8.6875 -8 6 C-5.625 4.375 -5.625 4.375 -3 3 C-2.1646875 2.1646875 -2.1646875 2.1646875 -1.3125 1.3125 C-0.879375 0.879375 -0.44625 0.44625 0 0 Z " fill="#6FA458" transform="translate(230,223)"/>
<path d="M0 0 C-0.33 0.99 -0.66 1.98 -1 3 C-3.97 3 -6.94 3 -10 3 C-10.33 2.34 -10.66 1.68 -11 1 C-6.8204355 -1.78637633 -4.85331323 -0.79562512 0 0 Z " fill="#773796" transform="translate(337,241)"/>
<path d="M0 0 C0.33 0.99 0.66 1.98 1 3 C-3.455 6.96 -3.455 6.96 -8 11 C-8.33 10.01 -8.66 9.02 -9 8 C-7.68 7.34 -6.36 6.68 -5 6 C-5 5.01 -5 4.02 -5 3 C-2.5 1.3125 -2.5 1.3125 0 0 Z " fill="#75A85E" transform="translate(251,225)"/>
<path d="M0 0 C0.66 0 1.32 0 2 0 C2 2.31 2 4.62 2 7 C6.29 7 10.58 7 15 7 C15.33 7.66 15.66 8.32 16 9 C5.44191344 9.18451025 5.44191344 9.18451025 1 8 C0.26919734 6.02253397 -0.39421747 4.01927511 -1 2 C-0.67 1.34 -0.34 0.68 0 0 Z " fill="#68407E" transform="translate(444,231)"/>
<path d="M0 0 C0.8971875 0.309375 0.8971875 0.309375 1.8125 0.625 C0.884375 1.388125 -0.04375 2.15125 -1 2.9375 C-2.74767064 4.38158466 -4.32747568 5.77534425 -5.875 7.4375 C-7.1875 8.625 -7.1875 8.625 -10.1875 8.625 C-9.8575 7.635 -9.5275 6.645 -9.1875 5.625 C-8.1975 5.295 -7.2075 4.965 -6.1875 4.625 C-5.8575 3.635 -5.5275 2.645 -5.1875 1.625 C-2.1875 -0.375 -2.1875 -0.375 0 0 Z " fill="#669F52" transform="translate(262.1875,218.375)"/>
<path d="M0 0 C0.99 0.33 1.98 0.66 3 1 C3 1.66 3 2.32 3 3 C3.66 3 4.32 3 5 3 C5 3.99 5 4.98 5 6 C4.01 6.495 4.01 6.495 3 7 C2.34 7.99 1.68 8.98 1 10 C0 9 0 9 -0.09765625 6.93359375 C-0.08605469 6.10988281 -0.07445312 5.28617187 -0.0625 4.4375 C-0.05347656 3.61121094 -0.04445313 2.78492188 -0.03515625 1.93359375 C-0.02355469 1.29550781 -0.01195312 0.65742188 0 0 Z " fill="#75A15F" transform="translate(437,287)"/>
<path d="M0 0 C-0.35010941 8.19256018 -0.35010941 8.19256018 -3.0625 11.5625 C-3.701875 12.036875 -4.34125 12.51125 -5 13 C-4.19444444 0 -4.19444444 0 0 0 Z " fill="#603F75" transform="translate(304,245)"/>
<path d="M0 0 C-2.57784846 2.64752004 -4.91648098 4.94432065 -8 7 C-8.66 6.01 -9.32 5.02 -10 4 C-4.7704918 -1.59016393 -4.7704918 -1.59016393 0 0 Z " fill="#81B952" transform="translate(234,245)"/>
<path d="M0 0 C0.33 0 0.66 0 1 0 C1.125 2.875 1.125 2.875 1 6 C-1 8 -1 8 -4.625 8.125 C-5.73875 8.08375 -6.8525 8.0425 -8 8 C-8 7.01 -8 6.02 -8 5 C-6.02 5.495 -6.02 5.495 -4 6 C-4 5.34 -4 4.68 -4 4 C-2.68 4 -1.36 4 0 4 C0 2.68 0 1.36 0 0 Z " fill="#6CA458" transform="translate(371,227)"/>
<path d="M0 0 C2.31 0.33 4.62 0.66 7 1 C7 1.66 7 2.32 7 3 C9.64 3 12.28 3 15 3 C15 3.33 15 3.66 15 4 C10.05 4 5.1 4 0 4 C0 2.68 0 1.36 0 0 Z " fill="#71587F" transform="translate(91,280)"/>
<path d="M0 0 C0.66 0 1.32 0 2 0 C2.33 2.64 2.66 5.28 3 8 C4.32 8.33 5.64 8.66 7 9 C4.69 9 2.38 9 0 9 C-0.84454356 5.62182575 -1.10844919 3.32534757 0 0 Z " fill="#6D4C82" transform="translate(30,275)"/>
<path d="M0 0 C0 0.66 0 1.32 0 2 C-1 3 -2 4 -3 5 C-3.33 5.99 -3.66 6.98 -4 8 C-3.34 8 -2.68 8 -2 8 C-2.33 8.99 -2.66 9.98 -3 11 C-3.66 11 -4.32 11 -5 11 C-5 9.35 -5 7.7 -5 6 C-5.66 5.67 -6.32 5.34 -7 5 C-5.64703851 0.94111554 -4.27479763 0 0 0 Z " fill="#633A79" transform="translate(139,241)"/>
<path d="M0 0 C0.99 0 1.98 0 3 0 C3.53394179 1.4117783 4.05165104 2.82970244 4.5625 4.25 C4.85253906 5.03890625 5.14257812 5.8278125 5.44140625 6.640625 C6.04522837 9.19103452 5.8473932 10.55322229 5 13 C2 8.375 2 8.375 2 5 C1.34 5 0.68 5 0 5 C0 3.35 0 1.7 0 0 Z " fill="#543877" transform="translate(347,249)"/>
<path d="M0 0 C0.66 0.33 1.32 0.66 2 1 C2 3.31 2 5.62 2 8 C1.01 8.33 0.02 8.66 -1 9 C-1.103125 8.21625 -1.20625 7.4325 -1.3125 6.625 C-1.77595022 3.66954819 -1.77595022 3.66954819 -5 2 C-2.625 0.9375 -2.625 0.9375 0 0 Z " fill="#6D4988" transform="translate(369,238)"/>
<path d="M0 0 C0.33 0 0.66 0 1 0 C1.12375 0.804375 1.2475 1.60875 1.375 2.4375 C1.58125 3.283125 1.7875 4.12875 2 5 C2.66 5.33 3.32 5.66 4 6 C4.66 4.02 5.32 2.04 6 0 C6.33 0 6.66 0 7 0 C7 1.65 7 3.3 7 5 C7.66 5 8.32 5 9 5 C9 5.66 9 6.32 9 7 C2.25 8.125 2.25 8.125 0 7 C0 4.69 0 2.38 0 0 Z " fill="#6E408D" transform="translate(415,273)"/>
<path d="M0 0 C0.66 0 1.32 0 2 0 C2 0.99 2 1.98 2 3 C1.34 3 0.68 3 0 3 C0 3.66 0 4.32 0 5 C-0.66 5 -1.32 5 -2 5 C-2.66 6.32 -3.32 7.64 -4 9 C-4.99 7.68 -5.98 6.36 -7 5 C-5.824375 4.87625 -5.824375 4.87625 -4.625 4.75 C-1.85250896 4.27193661 -1.85250896 4.27193661 -0.6875 1.9375 C-0.460625 1.298125 -0.23375 0.65875 0 0 Z " fill="#7B906C" transform="translate(216,260)"/>
<path d="M0 0 C0.66 0 1.32 0 2 0 C2 5.61 2 11.22 2 17 C0.68 17.33 -0.64 17.66 -2 18 C-1.125 14.125 -1.125 14.125 0 13 C0.07258946 10.81360547 0.08373783 8.62499611 0.0625 6.4375 C0.05347656 5.23996094 0.04445313 4.04242188 0.03515625 2.80859375 C0.02355469 1.88175781 0.01195313 0.95492187 0 0 Z " fill="#634278" transform="translate(79,241)"/>
<path d="M0 0 C0.66 0.33 1.32 0.66 2 1 C-0.81865057 4.13183396 -3.10677962 5.50260755 -7 7 C-8.77277259 8.52007842 -8.77277259 8.52007842 -10 10 C-9.34 8.35 -8.68 6.7 -8 5 C-7.01 5 -6.02 5 -5 5 C-4.731875 4.360625 -4.46375 3.72125 -4.1875 3.0625 C-3 1 -3 1 0 0 Z " fill="#603670" transform="translate(132,227)"/>
<path d="M0 0 C3.3 0 6.6 0 10 0 C10 0.99 10 1.98 10 3 C9.34 3 8.68 3 8 3 C8 2.34 8 1.68 8 1 C4.96707046 2.14083176 4.96707046 2.14083176 2 4 C1.03093173 6.58414426 1.03093173 6.58414426 1 9 C0.67 9 0.34 9 0 9 C0 6.03 0 3.06 0 0 Z " fill="#5D3F77" transform="translate(436,227)"/>
<path d="M0 0 C2.0625 0.4375 2.0625 0.4375 4 1 C-0.22949995 3.41685712 -3.12335991 4.34833144 -8 4 C-8.33 3.01 -8.66 2.02 -9 1 C-7.700625 1.020625 -6.40125 1.04125 -5.0625 1.0625 C-3.70834367 1.08399454 -2.35243917 1.07148199 -1 1 C-0.67 0.67 -0.34 0.34 0 0 Z " fill="#6A9365" transform="translate(448,286)"/>
<path d="M0 0 C4.24822374 0.47202486 6.19989709 2.96655518 9 6 C8.01 7.485 8.01 7.485 7 9 C6.401875 8.236875 5.80375 7.47375 5.1875 6.6875 C3.147995 4.08847816 3.147995 4.08847816 1.25 2.25 C0.8375 1.8375 0.425 1.425 0 1 C0 0.67 0 0.34 0 0 Z " fill="#593976" transform="translate(242,275)"/>
<path d="M0 0 C0.66 0 1.32 0 2 0 C1.61095461 2.46044923 1.28572918 3.72159721 -0.5234375 5.484375 C-1.13445312 5.90203125 -1.74546875 6.3196875 -2.375 6.75 C-3.28378906 7.39195312 -3.28378906 7.39195312 -4.2109375 8.046875 C-6 9 -6 9 -9 9 C-9 8.34 -9 7.68 -9 7 C-8.01 7 -7.02 7 -6 7 C-6 6.34 -6 5.68 -6 5 C-5.38125 4.9175 -4.7625 4.835 -4.125 4.75 C-1.81562433 4.18741541 -1.81562433 4.18741541 -0.75 1.9375 C-0.37875 0.9784375 -0.37875 0.9784375 0 0 Z " fill="#53346A" transform="translate(346,273)"/>
<path d="M0 0 C1.79158489 -0.02696365 3.58328473 -0.04637917 5.375 -0.0625 C6.37273437 -0.07410156 7.37046875 -0.08570313 8.3984375 -0.09765625 C11 0 11 0 13 1 C13 1.99 13 2.98 13 4 C12.278125 3.67 11.55625 3.34 10.8125 3 C6.76011604 1.55915237 4.05972507 1.64675831 0 3 C0 2.01 0 1.02 0 0 Z " fill="#603A71" transform="translate(324,245)"/>
<path d="M0 0 C-0.3125 1.9375 -0.3125 1.9375 -1 4 C-1.99 4.33 -2.98 4.66 -4 5 C-4.33 5.99 -4.66 6.98 -5 8 C-5.33 7.34 -5.66 6.68 -6 6 C-6.66 5.67 -7.32 5.34 -8 5 C-2.25 0 -2.25 0 0 0 Z " fill="#61A14E" transform="translate(240,236)"/>
<path d="M0 0 C0.6875 1.6875 0.6875 1.6875 1 4 C-0.25 6.75 -0.25 6.75 -2 9 C-2.99 9 -3.98 9 -5 9 C-5 7.68 -5 6.36 -5 5 C-4.34 5 -3.68 5 -3 5 C-3 4.34 -3 3.68 -3 3 C-1.5 1.375 -1.5 1.375 0 0 Z " fill="#5B366E" transform="translate(178,274)"/>
<path d="M0 0 C0.66 0 1.32 0 2 0 C1.8125 2.3125 1.8125 2.3125 1 5 C-1.5625 6.8125 -1.5625 6.8125 -4 8 C-4 6.68 -4 5.36 -4 4 C-3.34 4 -2.68 4 -2 4 C-1.34 2.68 -0.68 1.36 0 0 Z " fill="#7AB465" transform="translate(218,233)"/>
<path d="M0 0 C1.98 0 3.96 0 6 0 C4.58985036 2.82029928 2.77252431 3.58149919 0 5 C-1.32 5 -2.64 5 -4 5 C-4 4.01 -4 3.02 -4 2 C-2.68 2 -1.36 2 0 2 C0 1.34 0 0.68 0 0 Z " fill="#6A3E7E" transform="translate(139,224)"/>
<path d="M0 0 C5.75 0.875 5.75 0.875 8 2 C8 2.99 8 3.98 8 5 C5.125 4.75 5.125 4.75 2 4 C0.625 1.9375 0.625 1.9375 0 0 Z " fill="#653F7E" transform="translate(221,279)"/>
<path d="M0 0 C1.2077558 3.62326739 0.54311128 4.64146369 -1 8 C-2.32 8 -3.64 8 -5 8 C-4.1875 5.5625 -4.1875 5.5625 -3 3 C-2.01 2.67 -1.02 2.34 0 2 C0 1.34 0 0.68 0 0 Z " fill="#694084" transform="translate(350,265)"/>
<path d="M0 0 C-0.33 0.99 -0.66 1.98 -1 3 C-3.9375 4.125 -3.9375 4.125 -7 5 C-7.99 5.495 -7.99 5.495 -9 6 C-9 4.68 -9 3.36 -9 2 C-5.86501708 0.14223235 -3.62528568 -0.20140476 0 0 Z " fill="#716E78" transform="translate(228,255)"/>
<path d="M0 0 C2.475 0.99 2.475 0.99 5 2 C5 2.99 5 3.98 5 5 C3.35 5 1.7 5 0 5 C-0.5625 3.0625 -0.5625 3.0625 -1 1 C-0.67 0.67 -0.34 0.34 0 0 Z " fill="#8E9A60" transform="translate(391,194)"/>
<path d="M0 0 C2.125 0.9375 2.125 0.9375 4 2 C3.67 2.99 3.34 3.98 3 5 C1.35 5 -0.3 5 -2 5 C-2 3.68 -2 2.36 -2 1 C-1.34 0.67 -0.68 0.34 0 0 Z " fill="#757B73" transform="translate(434,283)"/>
<path d="M0 0 C1.45742463 -0.08096803 2.91612807 -0.13917774 4.375 -0.1875 C5.18710937 -0.22230469 5.99921875 -0.25710938 6.8359375 -0.29296875 C7.55007813 -0.19628906 8.26421875 -0.09960938 9 0 C9.66 0.99 10.32 1.98 11 3 C7.37 3 3.74 3 0 3 C0 2.01 0 1.02 0 0 Z " fill="#603B73" transform="translate(360,280)"/>
<path d="M0 0 C0.763125 0.20625 1.52625 0.4125 2.3125 0.625 C2.3125 1.285 2.3125 1.945 2.3125 2.625 C3.3025 2.955 4.2925 3.285 5.3125 3.625 C-2.11607143 3.91071429 -2.11607143 3.91071429 -5.6875 1.625 C-2.6875 -0.375 -2.6875 -0.375 0 0 Z " fill="#9822B0" transform="translate(182.6875,280.375)"/>
<path d="M0 0 C1.134375 0.020625 2.26875 0.04125 3.4375 0.0625 C3.4375 0.7225 3.4375 1.3825 3.4375 2.0625 C0.4675 3.3825 -2.5025 4.7025 -5.5625 6.0625 C-4.48849278 0.07874549 -4.48849278 0.07874549 0 0 Z " fill="#5D486C" transform="translate(365.5625,236.9375)"/>
<path d="M0 0 C2.31 0.33 4.62 0.66 7 1 C7.33 3.31 7.66 5.62 8 8 C7.67 7.01 7.34 6.02 7 5 C5.6846659 4.29848848 4.34882408 3.63474075 3 3 C1.25 1.375 1.25 1.375 0 0 Z " fill="#663F83" transform="translate(285,234)"/>
<path d="M0 0 C0.99 0.33 1.98 0.66 3 1 C3 2.32 3 3.64 3 5 C3.99 5 4.98 5 6 5 C5.67 6.32 5.34 7.64 5 9 C2.33264727 6.51047079 0.44253657 4.36591866 -1 1 C-0.67 0.67 -0.34 0.34 0 0 Z " fill="#613A79" transform="translate(308,268)"/>
<path d="M0 0 C0.99 0.495 0.99 0.495 2 1 C2 1.66 2 2.32 2 3 C2.66 3 3.32 3 4 3 C4 3.66 4 4.32 4 5 C4.99 5.33 5.98 5.66 7 6 C7 6.66 7 7.32 7 8 C3.76912579 7.44295272 1.97638863 6.66812465 0 4 C0 2.68 0 1.36 0 0 Z " fill="#76B166" transform="translate(196,248)"/>
<path d="M0 0 C0.33 1.32 0.66 2.64 1 4 C0.34 4 -0.32 4 -1 4 C-1 4.66 -1 5.32 -1 6 C-1.99 6 -2.98 6 -4 6 C-4 4.35 -4 2.7 -4 1 C-2 0 -2 0 0 0 Z " fill="#82AC6B" transform="translate(450,288)"/>
<path d="M0 0 C2.97 0.33 5.94 0.66 9 1 C9.33 1.99 9.66 2.98 10 4 C6.7 3.67 3.4 3.34 0 3 C0 2.01 0 1.02 0 0 Z " fill="#643676" transform="translate(142,267)"/>
<path d="M0 0 C0 0.66 0 1.32 0 2 C-3.3 2 -6.6 2 -10 2 C-10 1.34 -10 0.68 -10 0 C-6.30458414 -0.95024979 -3.69541586 -0.95024979 0 0 Z " fill="#76468B" transform="translate(283,256)"/>
<path d="M0 0 C0.66 0 1.32 0 2 0 C1.1875 1.9375 1.1875 1.9375 0 4 C-0.99 4.33 -1.98 4.66 -3 5 C-3.33 6.98 -3.66 8.96 -4 11 C-4.33 11 -4.66 11 -5 11 C-5 9.02 -5 7.04 -5 5 C-4.360625 4.731875 -3.72125 4.46375 -3.0625 4.1875 C-0.66868314 3.11332248 -0.66868314 3.11332248 0 0 Z " fill="#4D2D78" transform="translate(321,247)"/>
<path d="M0 0 C0.99 0.495 0.99 0.495 2 1 C2 1.66 2 2.32 2 3 C2.66 3 3.32 3 4 3 C4 3.66 4 4.32 4 5 C4.66 5 5.32 5 6 5 C6.33 6.32 6.66 7.64 7 9 C6.34 9 5.68 9 5 9 C5 8.34 5 7.68 5 7 C4.360625 6.773125 3.72125 6.54625 3.0625 6.3125 C1 5 1 5 0.25 2.375 C0.1675 1.59125 0.085 0.8075 0 0 Z " fill="#75A560" transform="translate(183,234)"/>
<path d="M0 0 C0.99 0.495 0.99 0.495 2 1 C2 1.66 2 2.32 2 3 C3.32 3.66 4.64 4.32 6 5 C6 5.66 6 6.32 6 7 C1.125 6.125 1.125 6.125 0 5 C-0.04063832 3.33382885 -0.042721 1.66611905 0 0 Z " fill="#76B360" transform="translate(206,234)"/>
<path d="M0 0 C1.485 0.99 1.485 0.99 3 2 C3 2.66 3 3.32 3 4 C3.66 4 4.32 4 5 4 C5 4.99 5 5.98 5 7 C4.34 7 3.68 7 3 7 C3 7.66 3 8.32 3 9 C2.34 9 1.68 9 1 9 C1.33 7.02 1.66 5.04 2 3 C1.01 2.67 0.02 2.34 -1 2 C-0.67 1.34 -0.34 0.68 0 0 Z " fill="#5F3177" transform="translate(166,267)"/>
<path d="M0 0 C1.32 0.33 2.64 0.66 4 1 C3.67 2.65 3.34 4.3 3 6 C2.01 6 1.02 6 0 6 C0 4.02 0 2.04 0 0 Z " fill="#69BE49" transform="translate(364,227)"/>
<path d="M0 0 C1.32 0 2.64 0 4 0 C4 1.65 4 3.3 4 5 C2.68 5 1.36 5 0 5 C0 3.35 0 1.7 0 0 Z " fill="#848E79" transform="translate(454,294)"/>
<path d="M0 0 C0.66 0 1.32 0 2 0 C2 0.66 2 1.32 2 2 C2.99 2 3.98 2 5 2 C6.0625 3.8125 6.0625 3.8125 7 6 C6.67 6.99 6.34 7.98 6 9 C1.125 3.375 1.125 3.375 0 0 Z " fill="#5B9C4D" transform="translate(176,228)"/>
<path d="M0 0 C-3.465 2.97 -3.465 2.97 -7 6 C-6.75 3.625 -6.75 3.625 -6 1 C-2.69333333 -1.34666667 -2.69333333 -1.34666667 0 0 Z " fill="#6F3C8A" transform="translate(130,233)"/>
<path d="M0 0 C3.5 0.25 3.5 0.25 5.5 2.25 C2.50468461 3.24843846 1.32744268 3.25732761 -1.6875 2.8125 C-2.945625 2.626875 -4.20375 2.44125 -5.5 2.25 C-3.5 0.25 -3.5 0.25 0 0 Z " fill="#5DA84A" transform="translate(365.5,222.75)"/>
<path d="M0 0 C0.66 0 1.32 0 2 0 C2.33 0.99 2.66 1.98 3 3 C2.01 3.99 1.02 4.98 0 6 C-0.99 5.67 -1.98 5.34 -3 5 C-2.67 4.01 -2.34 3.02 -2 2 C-1.34 2 -0.68 2 0 2 C0 1.34 0 0.68 0 0 Z " fill="#68AC51" transform="translate(243,213)"/>
<path d="M0 0 C0 0.99 0 1.98 0 3 C-1.98 3.66 -3.96 4.32 -6 5 C-6.33 4.01 -6.66 3.02 -7 2 C-4.35261084 0.5393715 -3.10551666 0 0 0 Z " fill="#709F56" transform="translate(253,209)"/>
<path d="M0 0 C1.32 0.33 2.64 0.66 4 1 C4.33 2.65 4.66 4.3 5 6 C2.69 5.01 0.38 4.02 -2 3 C-1.34 2.01 -0.68 1.02 0 0 Z " fill="#62A84E" transform="translate(359,187)"/>
<path d="M0 0 C1.32 0.33 2.64 0.66 4 1 C3.34 3.31 2.68 5.62 2 8 C1.34 8 0.68 8 0 8 C0 5.36 0 2.72 0 0 Z " fill="#603D6F" transform="translate(431,238)"/>
<path d="M0 0 C2 1 2 1 3 3 C-1.625 6 -1.625 6 -5 6 C-5 5.34 -5 4.68 -5 4 C-4.01 4 -3.02 4 -2 4 C-2 3.34 -2 2.68 -2 2 C-1.34 2 -0.68 2 0 2 C0 1.34 0 0.68 0 0 Z " fill="#5C2C7E" transform="translate(164,275)"/>
<path d="M0 0 C0.99 0.33 1.98 0.66 3 1 C3 2.32 3 3.64 3 5 C1.68 5 0.36 5 -1 5 C-0.67 3.35 -0.34 1.7 0 0 Z " fill="#6B3A88" transform="translate(171,252)"/>
<path d="M0 0 C0.33 0 0.66 0 1 0 C0.67 2.64 0.34 5.28 0 8 C-1.32 8 -2.64 8 -4 8 C-3.34 6.68 -2.68 5.36 -2 4 C-1.34 4 -0.68 4 0 4 C0 2.68 0 1.36 0 0 Z " fill="#563369" transform="translate(292,246)"/>
<path d="M0 0 C4.8 2.46153846 4.8 2.46153846 5.8125 5.1875 C5.874375 5.785625 5.93625 6.38375 6 7 C3.00675737 5.9024777 2.15389099 5.32317108 0.75 2.375 C0.5025 1.59125 0.255 0.8075 0 0 Z " fill="#6E507D" transform="translate(343,242)"/>
<path d="M0 0 C6.52307692 0.61538462 6.52307692 0.61538462 8.9375 2.5625 C9.288125 3.036875 9.63875 3.51125 10 4 C8.35 4 6.7 4 5 4 C4.67 3.01 4.34 2.02 4 1 C1.98491642 0.26676204 1.98491642 0.26676204 0 0 Z " fill="#5A3B6C" transform="translate(409,238)"/>
<path d="M0 0 C0.99 0 1.98 0 3 0 C3 2.97 3 5.94 3 9 C0.87491756 5.81237635 0.4979837 3.73487777 0 0 Z " fill="#765D80" transform="translate(45,231)"/>
<path d="M0 0 C-1 2 -1 2 -3.375 3.1875 C-6 4 -6 4 -9 3 C-7.14340032 -0.71319936 -3.69365381 -0.09982848 0 0 Z " fill="#7DB766" transform="translate(299,188)"/>
<path d="M0 0 C1.98 0.495 1.98 0.495 4 1 C4 1.99 4 2.98 4 4 C2.35 4 0.7 4 -1 4 C-0.67 2.68 -0.34 1.36 0 0 Z " fill="#604278" transform="translate(420,279)"/>
<path d="M0 0 C0 0.99 0 1.98 0 3 C-2.31 3 -4.62 3 -7 3 C-7 2.34 -7 1.68 -7 1 C-4.50935112 0.31292445 -2.62113708 0 0 0 Z " fill="#67417D" transform="translate(392,280)"/>
<path d="M0 0 C0.75 1.75 0.75 1.75 1 4 C-0.9375 6.25 -0.9375 6.25 -3 8 C-3.66 7.67 -4.32 7.34 -5 7 C-4.34 6.01 -3.68 5.02 -3 4 C-2.34 4 -1.68 4 -1 4 C-0.67 2.68 -0.34 1.36 0 0 Z " fill="#58376D" transform="translate(339,267)"/>
<path d="M0 0 C1.4606285 2.64738916 2 3.89448334 2 7 C0.68 6.67 -0.64 6.34 -2 6 C-1.34 4.02 -0.68 2.04 0 0 Z " fill="#654875" transform="translate(214,265)"/>
<path d="M0 0 C0.99 0 1.98 0 3 0 C3 0.99 3 1.98 3 3 C1.02 3.66 -0.96 4.32 -3 5 C-1.125 1.125 -1.125 1.125 0 0 Z " fill="#59346E" transform="translate(295,258)"/>
<path d="M0 0 C1.5625 1.25 1.5625 1.25 3 3 C2.6875 5.1875 2.6875 5.1875 2 7 C1.34 7 0.68 7 0 7 C-0.93423645 3.98968256 -1.04449911 3.13349732 0 0 Z " fill="#603777" transform="translate(419,242)"/>
<path d="M0 0 C2 1.375 2 1.375 4 3 C4 3.66 4 4.32 4 5 C1.69 4.34 -0.62 3.68 -3 3 C-2.01 2.01 -1.02 1.02 0 0 Z " fill="#66BD45" transform="translate(281,202)"/>
<path d="M0 0 C3.375 -0.125 3.375 -0.125 7 0 C7.66 0.66 8.32 1.32 9 2 C5.67465243 3.10844919 3.37817425 2.84454356 0 2 C0 1.34 0 0.68 0 0 Z " fill="#82C175" transform="translate(364,191)"/>
</svg>
