<?xml version="1.0" encoding="UTF-8"?>
<svg version="1.1" xmlns="http://www.w3.org/2000/svg" width="489" height="489">
<path d="M0 0 C9.91540019 -0.61332372 17.80436046 0.49154721 25.8125 6.6875 C32.97013925 13.42310864 35.48269358 21.94482099 36.18359375 31.50390625 C36.48566716 42.85831277 34.04908583 51.20990115 26.4375 59.75390625 C20.80671543 65.15458664 13.73113503 67.45838362 6.125 68.5625 C0.14398735 68.27471069 -5.57721165 65.25949515 -11 63 C-11 70.92 -11 78.84 -11 87 C-14.99752896 87.79950579 -18.17117478 88.13497845 -22.1875 88.125 C-23.75564453 88.12886719 -23.75564453 88.12886719 -25.35546875 88.1328125 C-28 88 -28 88 -30 87 C-30 59.28 -30 31.56 -30 3 C-26.96570323 1.48285161 -23.82398333 1.85636084 -20.5 1.875 C-19.81035156 1.87113281 -19.12070313 1.86726562 -18.41015625 1.86328125 C-13.25333293 1.87333354 -13.25333293 1.87333354 -11 3 C-11 3.66 -11 4.32 -11 5 C-9.9275 4.505 -8.855 4.01 -7.75 3.5 C-4.74583192 2.11346089 -3.54065105 2 0 2 C0 1.34 0 0.68 0 0 Z M-8 21 C-10.79852112 25.41771101 -11.4088691 28.87488211 -11.375 34.0625 C-11.38273437 35.24972656 -11.39046875 36.43695313 -11.3984375 37.66015625 C-10.96119394 41.32528608 -10.28410142 43.12243119 -8 46 C-3.30399756 49.63018619 1.03869021 49.75910087 6.81640625 49.58203125 C11.24757881 48.77191504 13.27721506 47.31718797 15.8828125 43.6875 C18.31525374 37.83603295 18.42279258 30.78955333 16.1875 24.8359375 C14.50619506 22.16949295 12.62074203 20.74716135 10 19 C8.68 19 7.36 19 6 19 C6 18.34 6 17.68 6 17 C0.68968098 16.4689681 -3.82334221 17.66936032 -8 21 Z " fill="#243D82" transform="translate(150,180)"/>
<path d="M0 0 C2.4375 2.125 2.4375 2.125 4 4 C4 4.66 4 5.32 4 6 C4.66 6 5.32 6 6 6 C6.81752303 7.58074564 7.62881997 9.16471223 8.4375 10.75 C8.88996094 11.63171875 9.34242188 12.5134375 9.80859375 13.421875 C11.85487212 17.8498872 12.11554041 21.37028244 12.0625 26.25 C12.05347656 27.32765625 12.04445313 28.4053125 12.03515625 29.515625 C12.02355469 30.33546875 12.01195312 31.1553125 12 32 C9.04089594 33.47955203 6.00236364 33.21814998 2.75390625 33.28125 C2.02815903 33.29965942 1.3024118 33.31806885 0.55467224 33.33703613 C-1.77596853 33.39582679 -4.10668753 33.44849831 -6.4375 33.5 C-15.99384012 33.71556412 -25.49113408 33.9306257 -35 35 C-34.63512732 36.96528625 -34.63512732 36.96528625 -34 39 C-28.92693252 42.32373386 -22.88339103 42.58635147 -17 42 C-14.50769274 41.20655062 -12.3635005 40.15857868 -10 39 C-7.03254054 37.74779733 -5.9360324 38.01970017 -2.765625 38.99609375 C-1.02539062 39.70958984 -1.02539062 39.70958984 0.75 40.4375 C1.92046875 40.91058594 3.0909375 41.38367188 4.296875 41.87109375 C5.18890625 42.24363281 6.0809375 42.61617187 7 43 C7.35185114 47.48992649 7.35185114 47.48992649 5.7578125 49.80078125 C5.21898437 50.29964844 4.68015625 50.79851562 4.125 51.3125 C3.59132813 51.82425781 3.05765625 52.33601563 2.5078125 52.86328125 C1 54 1 54 -1 54 C-1 54.66 -1 55.32 -1 56 C-15.84972867 61.5438987 -26.0810697 62.41966092 -41 56 C-42.7890625 54.4765625 -42.7890625 54.4765625 -44 53 C-44.804375 52.236875 -45.60875 51.47375 -46.4375 50.6875 C-53.19776987 43.59746086 -54.95796705 36.71280403 -55.3125 27.125 C-55.05948897 17.65941088 -52.93728422 8.74123053 -46 2 C-43.14836561 -0.31827314 -40.2146762 -2.22390523 -37 -4 C-36.38511719 -4.34160156 -35.77023437 -4.68320313 -35.13671875 -5.03515625 C-23.1410365 -10.55779369 -10.47173985 -6.64552722 0 0 Z M-31.375 11.9375 C-33.20629074 13.82420657 -33.20629074 13.82420657 -33 16 C-33.66 16 -34.32 16 -35 16 C-35 16.66 -35 17.32 -35 18 C-26.09 18 -17.18 18 -8 18 C-10.07092369 13.85815261 -11.15771594 12.42230952 -15 10 C-20.62696394 8.49174163 -26.69327924 8.11820148 -31.375 11.9375 Z " fill="#243C81" transform="translate(435,187)"/>
<path d="M0 0 C0.99 0.33 1.98 0.66 3 1 C3.77403558 5.06368679 4.0984702 8.86425173 4 13 C5.32 12.34 6.64 11.68 8 11 C8 7.7 8 4.4 8 1 C15.92 1 23.84 1 32 1 C32 6.61 32 12.22 32 18 C31.01 18.33 30.02 18.66 29 19 C28.01 18.34 27.02 17.68 26 17 C25.01 17.66 24.02 18.32 23 19 C20.26009592 18.96856707 17.71582146 18.44521663 15 18 C14.67 17.01 14.34 16.02 14 15 C13.566875 15.495 13.13375 15.99 12.6875 16.5 C11 18 11 18 8 18 C8 18.99 8 19.98 8 21 C14.06050614 22.0812391 14.06050614 22.0812391 20 21 C21.32 22.65 22.64 24.3 24 26 C24.99 24.35 25.98 22.7 27 21 C28.134375 21.185625 29.26875 21.37125 30.4375 21.5625 C32.2009375 21.7790625 32.2009375 21.7790625 34 22 C34.495 21.505 34.495 21.505 35 21 C37.33291811 20.95598268 39.66700175 20.96045766 42 21 C43.32 21 44.64 21 46 21 C47.98 21.495 47.98 21.495 50 22 C50.495 27.445 50.495 27.445 51 33 C52.485 33.495 52.485 33.495 54 34 C54.07347656 32.84371094 54.07347656 32.84371094 54.1484375 31.6640625 C54.22320312 30.66117187 54.29796875 29.65828125 54.375 28.625 C54.44460938 27.62726563 54.51421875 26.62953125 54.5859375 25.6015625 C55 23 55 23 57 21 C59.71454956 20.67247766 62.25230759 20.8691575 65 21 C66 22 66 22 66.09765625 24.72265625 C66.08605469 25.82480469 66.07445312 26.92695313 66.0625 28.0625 C66.05347656 29.16722656 66.04445313 30.27195312 66.03515625 31.41015625 C66.02355469 32.26480469 66.01195312 33.11945313 66 34 C71.08303686 34.11320856 71.08303686 34.11320856 76 33 C76 30.69 76 28.38 76 26 C74.35 26 72.7 26 71 26 C71.33 24.35 71.66 22.7 72 21 C75.72875388 20.85439805 79.45677434 20.76582957 83.1875 20.6875 C84.24259766 20.64560547 85.29769531 20.60371094 86.38476562 20.56054688 C94.08399685 20.4391079 94.08399685 20.4391079 96.85400391 22.13525391 C98.23828125 23.51953125 98.23828125 23.51953125 100 26 C100.33 24.68 100.66 23.36 101 22 C102.65 21.67 104.3 21.34 106 21 C106.495 22.485 106.495 22.485 107 24 C107.66 23.505 108.32 23.01 109 22.5 C113.04779924 20.47610038 115.49570147 20.63675012 120 21 C120.99 21.66 121.98 22.32 123 23 C123.125 25.5625 123.125 25.5625 123 28 C123.33 28.33 123.66 28.66 124 29 C124.14115161 31.67058851 124.04247107 34.32432238 124 37 C117.97765363 40.19553073 117.97765363 40.19553073 113.25 39.25 C112.1775 38.8375 111.105 38.425 110 38 C108.515 37.505 108.515 37.505 107 37 C106.505 37.99 106.505 37.99 106 39 C104.68 39 103.36 39 102 39 C102 38.34 102 37.68 102 37 C100.16299211 36.22757731 100.16299211 36.22757731 98 36 C97.33484375 36.72703125 97.33484375 36.72703125 96.65625 37.46875 C95 39 95 39 92.73828125 39.29296875 C91.93777344 39.25816406 91.13726562 39.22335937 90.3125 39.1875 C88.889375 39.125625 87.46625 39.06375 86 39 C85.505 33.06 85.505 33.06 85 27 C83.68 26.67 82.36 26.34 81 26 C81 29.96 81 33.92 81 38 C76 39 76 39 74 39 C73.0925 39.03480469 72.185 39.06960938 71.25 39.10546875 C70.1775 39.13253906 69.105 39.15960938 68 39.1875 C66.9275 39.22230469 65.855 39.25710938 64.75 39.29296875 C63.38875 39.14794922 63.38875 39.14794922 62 39 C61.34 38.01 60.68 37.02 60 36 C59.608125 36.474375 59.21625 36.94875 58.8125 37.4375 C56.53124111 39.40410249 54.97741618 39.70952037 52 40 C49.75 39.6875 49.75 39.6875 48 39 C47.67 38.34 47.34 37.68 47 37 C46.43410156 37.32742188 45.86820312 37.65484375 45.28515625 37.9921875 C42.77056049 39.1011887 41.16385362 39.20803615 38.4375 39.125 C37.67308594 39.10695313 36.90867187 39.08890625 36.12109375 39.0703125 C35.42113281 39.04710937 34.72117187 39.02390625 34 39 C33.01 39 32.02 39 31 39 C29.32900023 38.68911632 27.66128463 38.35919668 26 38 C25.67 37.01 25.34 36.02 25 35 C24.01 34.67 23.02 34.34 22 34 C21.34 35.65 20.68 37.3 20 39 C18.68 39 17.36 39 16 39 C15.67 38.01 15.34 37.02 15 36 C13.453125 37.0209375 13.453125 37.0209375 11.875 38.0625 C9.05565324 39.68006461 8.18578445 40.0109285 4.8125 39.8125 C3.21732546 39.3516718 1.62731165 38.86775575 0.0625 38.3125 C-2.26072505 37.80749761 -2.26072505 37.80749761 -5.4375 39.0625 C-9.36521784 40.09610996 -10.56197188 40.0055164 -14 38 C-16.14275017 36.29518417 -16.91192193 35.40283767 -17.50390625 32.6953125 C-17.65963044 25.86421147 -17.65963044 25.86421147 -15.65234375 23.234375 C-14 21.875 -14 21.875 -11 20 C-12.98 19.34 -14.96 18.68 -17 18 C-17 12.39 -17 6.78 -17 1 C-9.625 1.0625 -9.625 1.0625 -7.30712891 1.09008789 C-3.52836595 1.16900818 -3.52836595 1.16900818 0 0 Z M26 6 C25.34 6.66 24.68 7.32 24 8 C24.99 8.33 25.98 8.66 27 9 C26.67 8.01 26.34 7.02 26 6 Z M14 9 C14 9.99 14 10.98 14 12 C14.99 11.67 15.98 11.34 17 11 C16.01 10.34 15.02 9.68 14 9 Z M-2 15 C-3.7074998 16.28062485 -5.37373596 17.61767557 -7 19 C-7 19.66 -7 20.32 -7 21 C-3.61056802 22.8386571 -3.61056802 22.8386571 0 24 C3.4030585 22.84237864 3.4030585 22.84237864 6 21 C3.38485683 18.87961365 0.80362384 16.86908256 -2 15 Z M-10 26 C-12.28728734 27.83883881 -12.28728734 27.83883881 -12.125 30.625 C-12.08375 31.40875 -12.0425 32.1925 -12 33 C-8.88228073 34.60339848 -7.60988311 35.18974141 -4.1875 34.125 C-3.465625 33.75375 -2.74375 33.3825 -2 33 C-2 31.35 -2 29.7 -2 28 C-4.90600261 26.74335022 -6.79604584 26 -10 26 Z M5 26 C2.66608797 28.78114056 2.66608797 28.78114056 3.375 31.6875 C3.58125 32.450625 3.7875 33.21375 4 34 C4.99 34.33 5.98 34.66 7 35 C7.99 34.34 8.98 33.68 10 33 C9.67 30.69 9.34 28.38 9 26 C7.68 26 6.36 26 5 26 Z M37 26 C37.33 26.66 37.66 27.32 38 28 C38.99 27.67 39.98 27.34 41 27 C39.68 26.67 38.36 26.34 37 26 Z M106 26 C107 29 107 29 107 29 Z M43 27 C42.67 27.66 42.34 28.32 42 29 C42.99 29.33 43.98 29.66 45 30 C45 29.01 45 28.02 45 27 C44.34 27 43.68 27 43 27 Z M35 32 C35.33 32.66 35.66 33.32 36 34 C36.66 33.67 37.32 33.34 38 33 C37.01 32.67 36.02 32.34 35 32 Z M113 32 C113.66 32.66 114.32 33.32 115 34 C115 33.34 115 32.68 115 32 C114.34 32 113.68 32 113 32 Z " fill="#686969" transform="translate(256,264)"/>
<path d="M0 0 C0 0.66 0 1.32 0 2 C0.886875 2.103125 1.77375 2.20625 2.6875 2.3125 C7.54581113 3.32082872 10.04956518 4.83232293 13.1875 8.6875 C17.08542844 15.81130026 17.28214548 22.69227742 17.1953125 30.625 C17.1924826 31.61250244 17.18965271 32.60000488 17.18673706 33.61743164 C17.1756182 36.74508215 17.15052916 39.87243728 17.125 43 C17.11495948 45.13150626 17.10583551 47.26301704 17.09765625 49.39453125 C17.07570612 54.5964535 17.04231207 59.79820564 17 65 C14.04200997 66.47899501 11.3516424 66.13178874 8.0625 66.125 C6.81597656 66.12757813 5.56945312 66.13015625 4.28515625 66.1328125 C1 66 1 66 -2 65 C-2.00410889 63.78940918 -2.00821777 62.57881836 -2.01245117 61.33154297 C-2.03428144 56.82476675 -2.08861153 52.31885875 -2.15258789 47.8125 C-2.17573395 45.86499373 -2.19015563 43.91736289 -2.19555664 41.96972656 C-2.20487109 39.16392698 -2.24591506 36.36007746 -2.29296875 33.5546875 C-2.2890361 32.68883026 -2.28510345 31.82297302 -2.28105164 30.93087769 C-2.38291575 26.67650364 -2.68827 23.83465215 -5.38793945 20.44189453 C-7.73558481 17.85123573 -7.73558481 17.85123573 -10.5 17.375 C-15.03854019 18.50963505 -17.46498622 21.19747934 -20 25 C-21.04624587 29.64332273 -21.20524004 34.28251172 -21.31640625 39.0234375 C-21.33718735 39.76961334 -21.35796844 40.51578918 -21.37937927 41.28457642 C-21.4443123 43.64796508 -21.50349571 46.01145664 -21.5625 48.375 C-21.60573884 49.98568735 -21.64935477 51.59636463 -21.69335938 53.20703125 C-21.79993526 57.13791771 -21.90135792 61.06890677 -22 65 C-25.82679134 65.81539968 -29.33021798 66.13465464 -33.25 66.125 C-34.83554687 66.12886719 -34.83554687 66.12886719 -36.453125 66.1328125 C-39 66 -39 66 -40 65 C-40.0940067 63.03630847 -40.11743381 61.06920801 -40.11352539 59.10327148 C-40.11344986 57.84203964 -40.11337433 56.5808078 -40.11329651 55.28135681 C-40.1081891 53.89460206 -40.10297309 52.50784771 -40.09765625 51.12109375 C-40.09579201 49.71004791 -40.09436814 48.29900143 -40.09336853 46.88795471 C-40.08954379 43.16759465 -40.0797139 39.4472734 -40.06866455 35.72692871 C-40.05844948 31.93319219 -40.05387071 28.13944942 -40.04882812 24.34570312 C-40.03809158 16.89711564 -40.02049515 9.4485682 -40 2 C-34.39 2 -28.78 2 -23 2 C-22.67 2.99 -22.34 3.98 -22 5 C-21.33355469 4.6390625 -20.66710937 4.278125 -19.98046875 3.90625 C-13.06164093 0.42264438 -7.71051855 -0.67112831 0 0 Z " fill="#243D83" transform="translate(355,180)"/>
<path d="M0 0 C0 0.66 0 1.32 0 2 C1.155 2.061875 2.31 2.12375 3.5 2.1875 C8.36327795 2.77804089 12.28127842 4.82524036 16 8 C16 8.66 16 9.32 16 10 C16.59554687 10.23074219 17.19109375 10.46148437 17.8046875 10.69921875 C23.01767319 13.78805191 25.26564668 20.60446839 26.96875 26.16015625 C28.94366663 35.83489666 26.72542605 43.5491479 22.375 52.25 C14.59285166 61.2609086 7.15762579 66.94852361 -4.92578125 68.3359375 C-10.88364722 68.55018994 -15.66681612 67.62100917 -21 65 C-22.155 64.46375 -23.31 63.9275 -24.5 63.375 C-30.92737986 59.50680571 -36.61693758 52.82900175 -39.375 45.84765625 C-41.34240226 36.88367971 -41.65678126 26.02791057 -37.16796875 17.82421875 C-36.78253906 17.22222656 -36.39710938 16.62023437 -36 16 C-35.3503125 14.77603516 -35.3503125 14.77603516 -34.6875 13.52734375 C-30.7365045 7.60999632 -23.10031697 2.61700684 -16.32421875 0.38671875 C-10.93895512 -0.50931671 -5.43612057 -0.20614502 0 0 Z M-20.3125 22.5625 C-22.63309012 25.9144635 -23.13842924 28.45573004 -23.125 32.4375 C-23.12757813 33.19933594 -23.13015625 33.96117187 -23.1328125 34.74609375 C-23.00276015 36.95315859 -22.60856199 38.87969276 -22 41 C-21.34 41 -20.68 41 -20 41 C-19.34 42.65 -18.68 44.3 -18 46 C-17.34 46 -16.68 46 -16 46 C-16 46.66 -16 47.32 -16 48 C-15.01193903 49.01179817 -14.00923728 50.00932341 -13 51 C-11.90627061 52.54080126 -10.84468775 54.10481211 -9.8125 55.6875 C-9.28269531 56.49574219 -8.75289063 57.30398437 -8.20703125 58.13671875 C-7.80871094 58.75160156 -7.41039062 59.36648437 -7 60 C-4.10324691 56.43476543 -1.31553813 52.80214841 1.41015625 49.10546875 C2.46670099 47.70626085 3.55833452 46.33284855 4.68359375 44.98828125 C8.56283433 40.25318903 10 37.17860073 10 31 C9.07653376 25.15138051 6.50120329 20.81202384 2 17 C-6.74290614 13.87495297 -14.17477426 15.76123634 -20.3125 22.5625 Z " fill="#6CBB46" transform="translate(279,180)"/>
<path d="M0 0 C0.94082428 0.00007553 1.88164856 0.00015106 2.85098267 0.00022888 C3.86872772 0.00539017 4.88647278 0.01055145 5.93505859 0.01586914 C6.97544281 0.01728409 8.01582703 0.01869904 9.08773804 0.02015686 C12.4196863 0.02576673 15.75156804 0.03832092 19.08349609 0.05102539 C21.33870346 0.05603912 23.59391187 0.06060225 25.84912109 0.06469727 C31.38560223 0.07573936 36.92204441 0.09248712 42.45849609 0.11352539 C43.45849609 3.11352539 43.45849609 3.11352539 42.67333984 5.24243164 C42.04105469 6.44706055 42.04105469 6.44706055 41.39599609 7.67602539 C40.92935547 8.56547852 40.46271484 9.45493164 39.98193359 10.37133789 C38.06821331 13.8160344 36.05019654 17.18616839 33.99365234 20.54711914 C31.87333401 24.09177345 29.93561998 27.72725833 27.97802734 31.36352539 C25.97821766 34.98271824 23.83249762 38.50359116 21.65771484 42.01977539 C20.32371772 44.18935958 20.32371772 44.18935958 19.45849609 47.11352539 C20.11970459 47.10828857 20.78091309 47.10305176 21.4621582 47.09765625 C24.44009461 47.07694883 27.41801591 47.06388527 30.39599609 47.05102539 C31.95737305 47.03845703 31.95737305 47.03845703 33.55029297 47.02563477 C34.53964844 47.02241211 35.52900391 47.01918945 36.54833984 47.01586914 C37.46478271 47.01063232 38.38122559 47.00539551 39.32543945 47 C41.45849609 47.11352539 41.45849609 47.11352539 42.45849609 48.11352539 C42.55824642 50.62488644 42.59731792 53.10255954 42.58349609 55.61352539 C42.58929688 56.66733398 42.58929688 56.66733398 42.59521484 57.74243164 C42.58510987 62.98691161 42.58510987 62.98691161 41.45849609 64.11352539 C39.89302561 64.20679255 38.32336837 64.23098121 36.75512695 64.22705078 C35.75416489 64.22697525 34.75320282 64.22689972 33.72190857 64.2268219 C32.63338089 64.22166061 31.54485321 64.21649933 30.42333984 64.21118164 C29.31495255 64.20976669 28.20656525 64.20835175 27.06459045 64.20689392 C23.5083654 64.20127572 19.95220226 64.18872014 16.39599609 64.17602539 C13.99170013 64.17101274 11.58740317 64.16644942 9.18310547 64.16235352 C3.27488106 64.15130038 -2.633307 64.13454456 -8.54150391 64.11352539 C-9.65283203 60.38208008 -9.65283203 60.38208008 -8.65087891 57.96508789 C-8.20228516 57.23032227 -7.75369141 56.49555664 -7.29150391 55.73852539 C-6.59734375 54.56870117 -6.59734375 54.56870117 -5.88916016 53.37524414 C-5.44443359 52.62887695 -4.99970703 51.88250977 -4.54150391 51.11352539 C-3.52754268 49.12056713 -2.52083331 47.12372785 -1.54150391 45.11352539 C-0.88150391 45.11352539 -0.22150391 45.11352539 0.45849609 45.11352539 C0.61705078 44.55665039 0.77560547 43.99977539 0.93896484 43.42602539 C2.69309489 37.68876027 5.07478655 33.04766531 8.45849609 28.11352539 C11.11658207 24.20457542 13.37790909 20.3569825 15.45849609 16.11352539 C14.89864014 16.11876221 14.33878418 16.12399902 13.76196289 16.12939453 C11.22331872 16.1501923 8.6846925 16.16319443 6.14599609 16.17602539 C5.26492187 16.1844043 4.38384766 16.1927832 3.47607422 16.20141602 C2.62851563 16.20463867 1.78095703 16.20786133 0.90771484 16.21118164 C-0.26271362 16.21903687 -0.26271362 16.21903687 -1.45678711 16.22705078 C-3.54150391 16.11352539 -3.54150391 16.11352539 -6.54150391 15.11352539 C-6.54150391 10.49352539 -6.54150391 5.87352539 -6.54150391 1.11352539 C-4.14568045 -0.08438634 -2.67372853 -0.00714901 0 0 Z " fill="#233D83" transform="translate(192.54150390625,181.886474609375)"/>
<path d="M0 0 C2.48419029 3.72628543 2.2530257 5.70339852 2.2734375 10.15234375 C2.29372493 11.58269014 2.31457568 13.01302863 2.3359375 14.44335938 C2.35854142 16.69269489 2.37501097 18.9417182 2.38085938 21.19116211 C2.39039002 23.36629293 2.42416694 25.54002656 2.4609375 27.71484375 C2.46915527 29.01542725 2.47737305 30.31601074 2.48583984 31.65600586 C3.07822918 35.50878682 3.92021815 36.6938211 7 39 C10.05897125 39.72100535 12.91998612 39.60897613 16 39 C17.98239527 37.13875077 17.98239527 37.13875077 19 35 C19.66 35 20.32 35 21 35 C21.33 23.45 21.66 11.9 22 0 C27.61 0 33.22 0 39 0 C41.73786055 2.73786055 40.18569689 11.06805765 40.1875 14.75 C40.19974609 16.01972656 40.21199219 17.28945312 40.22460938 18.59765625 C40.2600637 41.73751296 40.2600637 41.73751296 34.55078125 48.5078125 C26.52558005 56.22979451 19.61627975 58.44543606 8.4765625 58.24609375 C0.33408446 57.66971609 -5.43264025 54.98671932 -11 49 C-15.36439547 43.14252187 -16.14544757 38.98016762 -16.09765625 31.83203125 C-16.0962413 31.03721848 -16.09482635 30.2424057 -16.09336853 29.42350769 C-16.08777378 26.88646675 -16.07522228 24.34951425 -16.0625 21.8125 C-16.05748432 20.09179815 -16.05292153 18.37109492 -16.04882812 16.65039062 C-16.03780607 12.4335597 -16.02054506 8.21679484 -16 4 C-16.66 4 -17.32 4 -18 4 C-18 3.34 -18 2.68 -18 2 C-12.35325804 -0.50966309 -6.08025644 -0.84650277 0 0 Z " fill="#233D82" transform="translate(73,182)"/>
<path d="M0 0 C1.32 0 2.64 0 4 0 C5.32 0.33 6.64 0.66 8 1 C8.33 4.63 8.66 8.26 9 12 C9.99 12.33 10.98 12.66 12 13 C12.04898437 12.22914063 12.09796875 11.45828125 12.1484375 10.6640625 C12.22320312 9.66117187 12.29796875 8.65828125 12.375 7.625 C12.44460938 6.62726563 12.51421875 5.62953125 12.5859375 4.6015625 C13 2 13 2 15 0 C17.71454956 -0.32752234 20.25230759 -0.1308425 23 0 C24 1 24 1 24.09765625 3.72265625 C24.08605469 4.82480469 24.07445312 5.92695313 24.0625 7.0625 C24.05347656 8.16722656 24.04445313 9.27195312 24.03515625 10.41015625 C24.02355469 11.26480469 24.01195312 12.11945313 24 13 C29.08303686 13.11320856 29.08303686 13.11320856 34 12 C34 9.69 34 7.38 34 5 C32.35 5 30.7 5 29 5 C29.33 3.35 29.66 1.7 30 0 C33.72875388 -0.14560195 37.45677434 -0.23417043 41.1875 -0.3125 C42.24259766 -0.35439453 43.29769531 -0.39628906 44.38476562 -0.43945312 C52.08399685 -0.5608921 52.08399685 -0.5608921 54.85400391 1.13525391 C56.23828125 2.51953125 56.23828125 2.51953125 58 5 C58.33 3.68 58.66 2.36 59 1 C61.475 0.505 61.475 0.505 64 0 C64.495 1.485 64.495 1.485 65 3 C65.66 2.505 66.32 2.01 67 1.5 C71.04779924 -0.52389962 73.49570147 -0.36324988 78 0 C78.99 0.66 79.98 1.32 81 2 C81.125 4.5625 81.125 4.5625 81 7 C81.495 7.495 81.495 7.495 82 8 C82.14115161 10.67058851 82.04247107 13.32432238 82 16 C75.97765363 19.19553073 75.97765363 19.19553073 71.25 18.25 C70.1775 17.8375 69.105 17.425 68 17 C66.515 16.505 66.515 16.505 65 16 C64.67 16.66 64.34 17.32 64 18 C62.68 18 61.36 18 60 18 C60 17.34 60 16.68 60 16 C58.16299211 15.22757731 58.16299211 15.22757731 56 15 C55.33484375 15.72703125 55.33484375 15.72703125 54.65625 16.46875 C53 18 53 18 50.73828125 18.29296875 C49.93777344 18.25816406 49.13726562 18.22335937 48.3125 18.1875 C46.889375 18.125625 45.46625 18.06375 44 18 C43.505 12.06 43.505 12.06 43 6 C41.68 5.67 40.36 5.34 39 5 C39 8.96 39 12.92 39 17 C34 18 34 18 32 18 C31.0925 18.03480469 30.185 18.06960938 29.25 18.10546875 C28.1775 18.13253906 27.105 18.15960938 26 18.1875 C24.9275 18.22230469 23.855 18.25710938 22.75 18.29296875 C21.8425 18.19628906 20.935 18.09960938 20 18 C19.34 17.01 18.68 16.02 18 15 C17.608125 15.474375 17.21625 15.94875 16.8125 16.4375 C14.53124111 18.40410249 12.97741618 18.70952037 10 19 C7.75 18.6875 7.75 18.6875 6 18 C5.67 17.34 5.34 16.68 5 16 C4.01 16 3.02 16 2 16 C2.33 12.7 2.66 9.4 3 6 C1.02 6.99 1.02 6.99 -1 8 C-1 7.34 -1 6.68 -1 6 C-2.98 6.33 -4.96 6.66 -7 7 C-7 7.66 -7 8.32 -7 9 C-7.99 9.495 -7.99 9.495 -9 10 C-8.34 10.66 -7.68 11.32 -7 12 C-8.32 11.67 -9.64 11.34 -11 11 C-11 8.03 -11 5.06 -11 2 C-6.72130359 -0.1393482 -4.67257233 -0.16687758 0 0 Z M64 5 C65 8 65 8 65 8 Z M71 11 C71.66 11.66 72.32 12.32 73 13 C73 12.34 73 11.68 73 11 C72.34 11 71.68 11 71 11 Z " fill="#646566" transform="translate(298,285)"/>
<path d="M0 0 C5.13887314 0 5.4377179 0.05190447 9 3 C9.66 3 10.32 3 11 3 C11 2.01 11 1.02 11 0 C25.66666667 0 40.33333333 0 55 0 C55.93423645 3.01031744 56.04449911 3.86650268 55 7 C55.495 7.495 55.495 7.495 56 8 C56.23728814 14.52542373 56.23728814 14.52542373 55 17 C54.01 17 53.02 17 52 17 C52 17.66 52 18.32 52 19 C50.68 19 49.36 19 48 19 C48 18.34 48 17.68 48 17 C44.76285298 16.84943502 42.48533259 16.78160033 39.5 18.125 C36.09029351 19.31839727 34.35340568 18.16342646 31 17 C28.99650739 17.31165441 26.99673484 17.64763503 25 18 C22.66295796 17.8112698 20.36848986 17.50850968 18.05078125 17.15625 C15.79967362 16.85156121 15.79967362 16.85156121 13 18 C11.35 16.35 9.7 14.7 8 13 C7.01 13.495 7.01 13.495 6 14 C5.67 14.99 5.34 15.98 5 17 C3.35 17 1.7 17 0 17 C0 11.39 0 5.78 0 0 Z M28 5 C28.99 6.485 28.99 6.485 30 8 C30 7.01 30 6.02 30 5 C29.34 5 28.68 5 28 5 Z M30 8 C29.67 9.32 29.34 10.64 29 12 C30.32 11.34 31.64 10.68 33 10 C32.01 9.34 31.02 8.68 30 8 Z " fill="#656666" transform="translate(289,265)"/>
<path d="M0 0 C1.15628906 -0.00128906 2.31257813 -0.00257813 3.50390625 -0.00390625 C4.72207031 -0.00003906 5.94023437 0.00382812 7.1953125 0.0078125 C8.40574219 0.00394531 9.61617188 0.00007813 10.86328125 -0.00390625 C12.60158203 -0.00197266 12.60158203 -0.00197266 14.375 0 C15.44218262 0.00112793 16.50936523 0.00225586 17.60888672 0.00341797 C20.3203125 0.1328125 20.3203125 0.1328125 23.3203125 1.1328125 C23.9803125 0.8028125 24.6403125 0.4728125 25.3203125 0.1328125 C29.87578333 -0.12504434 33.1983761 0.13429788 37.3203125 2.1328125 C37.9803125 1.4728125 38.6403125 0.8128125 39.3203125 0.1328125 C46.3782124 -0.55021007 46.3782124 -0.55021007 49.8203125 1.9453125 C51.3203125 4.1328125 51.3203125 4.1328125 51.3203125 7.1328125 C51.9803125 7.1328125 52.6403125 7.1328125 53.3203125 7.1328125 C52.75368061 11.09923575 51.86363244 13.99605124 49.3203125 17.1328125 C45.40484221 18.69900061 42.34903443 19.74430127 38.3203125 18.1328125 C38.3203125 17.4728125 38.3203125 16.8128125 38.3203125 16.1328125 C37.546875 16.596875 37.546875 16.596875 36.7578125 17.0703125 C32.7515696 18.81662351 28.90291909 19.40863822 24.5859375 18.65625 C20.84975935 18.05738891 17.21519099 18.02282372 13.4453125 18.0703125 C12.75695312 18.07482422 12.06859375 18.07933594 11.359375 18.08398438 C9.67964915 18.09564914 7.99996875 18.11357979 6.3203125 18.1328125 C6.3203125 16.4828125 6.3203125 14.8328125 6.3203125 13.1328125 C7.3103125 12.8028125 8.3003125 12.4728125 9.3203125 12.1328125 C9.6503125 10.1528125 9.9803125 8.1728125 10.3203125 6.1328125 C8.3403125 6.1328125 6.3603125 6.1328125 4.3203125 6.1328125 C4.9803125 6.7928125 5.6403125 7.4528125 6.3203125 8.1328125 C6.2578125 10.1328125 6.2578125 10.1328125 5.3203125 12.1328125 C3.66592637 12.82939613 1.99776932 13.49378133 0.3203125 14.1328125 C-0.1953125 14.8340625 -0.7109375 15.5353125 -1.2421875 16.2578125 C-1.7165625 16.8765625 -2.1909375 17.4953125 -2.6796875 18.1328125 C-3.9996875 18.1328125 -5.3196875 18.1328125 -6.6796875 18.1328125 C-6.70653062 15.32024969 -6.72644938 12.50794009 -6.7421875 9.6953125 C-6.75056641 8.89287109 -6.75894531 8.09042969 -6.76757812 7.26367188 C-6.7762018 5.21986029 -6.731969 3.17597348 -6.6796875 1.1328125 C-4.91443457 -0.63244043 -2.3905266 0.00253195 0 0 Z M42.3203125 5.1328125 C41.6603125 7.7728125 41.0003125 10.4128125 40.3203125 13.1328125 C41.6403125 13.4628125 42.9603125 13.7928125 44.3203125 14.1328125 C46.59175324 12.27849163 46.59175324 12.27849163 48.3203125 10.1328125 C47.60467984 8.1165892 47.60467984 8.1165892 46.3203125 6.1328125 C45.0003125 5.8028125 43.6803125 5.4728125 42.3203125 5.1328125 Z M29.3203125 5.1328125 C28.3303125 5.4628125 27.3403125 5.7928125 26.3203125 6.1328125 C25.9903125 8.1128125 25.6603125 10.0928125 25.3203125 12.1328125 C27.20347409 13.24117673 27.20347409 13.24117673 29.3203125 14.1328125 C29.9803125 13.8028125 30.6403125 13.4728125 31.3203125 13.1328125 C31.3203125 12.4728125 31.3203125 11.8128125 31.3203125 11.1328125 C32.3103125 10.8028125 33.3003125 10.4728125 34.3203125 10.1328125 C32.6703125 8.4828125 31.0203125 6.8328125 29.3203125 5.1328125 Z M19.3203125 7.1328125 C18.9903125 8.1228125 18.6603125 9.1128125 18.3203125 10.1328125 C17.6603125 10.1328125 17.0003125 10.1328125 16.3203125 10.1328125 C15.9903125 11.1228125 15.6603125 12.1128125 15.3203125 13.1328125 C17.7953125 13.6278125 17.7953125 13.6278125 20.3203125 14.1328125 C20.3203125 11.8228125 20.3203125 9.5128125 20.3203125 7.1328125 C19.9903125 7.1328125 19.6603125 7.1328125 19.3203125 7.1328125 Z " fill="#5F6060" transform="translate(392.6796875,284.8671875)"/>
<path d="M0 0 C4.48349294 1.89364919 4.48349294 1.89364919 5.88671875 3.296875 C5.84116861 9.87887019 4.87884619 15.44271262 1.88671875 21.296875 C0.2205997 21.339596 -1.4471101 21.33751332 -3.11328125 21.296875 C-4.11328125 20.296875 -4.11328125 20.296875 -4.17578125 17.734375 C-4.15515625 16.93 -4.13453125 16.125625 -4.11328125 15.296875 C-4.77328125 15.296875 -5.43328125 15.296875 -6.11328125 15.296875 C-6.11328125 15.956875 -6.11328125 16.616875 -6.11328125 17.296875 C-20.80551555 21.22103297 -34.33375424 21.88779305 -48.36328125 14.984375 C-51.36083917 13.15498303 -51.98963139 12.59981715 -53.36328125 9.234375 C-53.07486694 5.84550681 -52.68565563 4.52626613 -50.11328125 2.296875 C-47.80078125 1.796875 -47.80078125 1.796875 -45.11328125 2.296875 C-43.09991595 3.60993933 -41.10096519 4.94524992 -39.11328125 6.296875 C-34.10835989 8.03613078 -29.71129899 8.56825222 -24.42578125 8.546875 C-23.14316406 8.55203125 -21.86054687 8.5571875 -20.5390625 8.5625 C-17.41343342 8.32014792 -15.71428442 7.95624918 -13.11328125 6.296875 C-13.29890625 5.69875 -13.48453125 5.100625 -13.67578125 4.484375 C-14.11328125 2.296875 -14.11328125 2.296875 -13.11328125 -0.703125 C-9.18338536 -2.66807295 -4.0449169 -1.34581339 0 0 Z " fill="#6EBC48" transform="translate(109.11328125,241.703125)"/>
<path d="M0 0 C0.87527344 0.00902344 1.75054687 0.01804687 2.65234375 0.02734375 C3.44769531 0.03894531 4.24304688 0.05054688 5.0625 0.0625 C6.0525 0.0625 7.0425 0.0625 8.0625 0.0625 C11.39583333 0.0625 14.72916667 0.0625 18.0625 0.0625 C18.99673645 3.07281744 19.10699911 3.92900268 18.0625 7.0625 C18.5575 7.5575 18.5575 7.5575 19.0625 8.0625 C19.29978814 14.58792373 19.29978814 14.58792373 18.0625 17.0625 C17.0725 17.0625 16.0825 17.0625 15.0625 17.0625 C15.0625 17.7225 15.0625 18.3825 15.0625 19.0625 C13.7425 19.0625 12.4225 19.0625 11.0625 19.0625 C11.0625 18.4025 11.0625 17.7425 11.0625 17.0625 C7.84761703 16.91297056 5.57856071 16.82431813 2.625 18.1875 C-1.0166662 19.43099578 -3.39571802 18.3125407 -6.9375 17.0625 C-7.0625 14.6875 -7.0625 14.6875 -6.9375 12.0625 C-6.2775 11.4025 -5.6175 10.7425 -4.9375 10.0625 C-5.5975 9.4025 -6.2575 8.7425 -6.9375 8.0625 C-6.9375 7.0725 -6.9375 6.0825 -6.9375 5.0625 C-7.9275 5.3925 -8.9175 5.7225 -9.9375 6.0625 C-12.625 5.625 -12.625 5.625 -14.9375 5.0625 C-14.9375 4.7325 -14.9375 4.4025 -14.9375 4.0625 C-12.2975 3.7325 -9.6575 3.4025 -6.9375 3.0625 C-6.9375 2.4025 -6.9375 1.7425 -6.9375 1.0625 C-4.45344043 -0.17952979 -2.76852337 -0.03658841 0 0 Z " fill="#555557" transform="translate(325.9375,264.9375)"/>
<path d="M0 0 C0.99 0.66 1.98 1.32 3 2 C3.125 4.5625 3.125 4.5625 3 7 C3.33 7.33 3.66 7.66 4 8 C4.14115161 10.67058851 4.04247107 13.32432238 4 16 C-2.02686145 19.19792648 -2.02686145 19.19792648 -6.6875 18.25 C-7.780625 17.8375 -8.87375 17.425 -10 17 C-11.32 16.67 -12.64 16.34 -14 16 C-14 11.05 -14 6.1 -14 1 C-13.67 1.66 -13.34 2.32 -13 3 C-12.34 2.505 -11.68 2.01 -11 1.5 C-6.95220076 -0.52389962 -4.50429853 -0.36324988 0 0 Z M-7 11 C-6.34 11.66 -5.68 12.32 -5 13 C-5 12.34 -5 11.68 -5 11 C-5.66 11 -6.32 11 -7 11 Z " fill="#5F5F5F" transform="translate(376,285)"/>
<path d="M0 0 C4.29 0 8.58 0 13 0 C14.48427936 2.96855873 14.20941537 5.69911659 14.25 9 C14.28867188 10.8871875 14.28867188 10.8871875 14.328125 12.8125 C14.21984375 13.864375 14.1115625 14.91625 14 16 C10.97455666 18.01696222 10.38932618 18.25811096 7 18.1875 C6.319375 18.18105469 5.63875 18.17460937 4.9375 18.16796875 C3 18 3 18 0 17 C0 11.39 0 5.78 0 0 Z " fill="#6E6E6E" transform="translate(239,265)"/>
<path d="M0 0 C1.05960938 0.00676758 1.05960938 0.00676758 2.140625 0.01367188 C3.88545275 0.02546125 5.630237 0.04339676 7.375 0.0625 C7.375 0.3925 7.375 0.7225 7.375 1.0625 C2.425 1.3925 -2.525 1.7225 -7.625 2.0625 C-7.295 28.7925 -6.965 55.5225 -6.625 83.0625 C-4.315 83.0625 -2.005 83.0625 0.375 83.0625 C1.035 83.7225 1.695 84.3825 2.375 85.0625 C0.75085622 85.25727739 -0.87436423 85.44309458 -2.5 85.625 C-3.85738281 85.78162109 -3.85738281 85.78162109 -5.2421875 85.94140625 C-7.625 86.0625 -7.625 86.0625 -9.625 85.0625 C-9.625 57.3425 -9.625 29.6225 -9.625 1.0625 C-6.55966836 -0.47016582 -3.35745728 -0.04026471 0 0 Z " fill="#2F3666" transform="translate(129.625,181.9375)"/>
<path d="M0 0 C0.89203125 0.00902344 1.7840625 0.01804687 2.703125 0.02734375 C3.37859375 0.03894531 4.0540625 0.05054688 4.75 0.0625 C5.68423645 3.07281744 5.79449911 3.92900268 4.75 7.0625 C5.08 7.3925 5.41 7.7225 5.75 8.0625 C5.98728814 14.58792373 5.98728814 14.58792373 4.75 17.0625 C3.76 17.0625 2.77 17.0625 1.75 17.0625 C1.75 17.7225 1.75 18.3825 1.75 19.0625 C0.43 19.0625 -0.89 19.0625 -2.25 19.0625 C-2.25 18.4025 -2.25 17.7425 -2.25 17.0625 C-3.57 16.7325 -4.89 16.4025 -6.25 16.0625 C-6.25 14.7425 -6.25 13.4225 -6.25 12.0625 C-5.26 11.7325 -4.27 11.4025 -3.25 11.0625 C-3.91 10.60875 -4.57 10.155 -5.25 9.6875 C-5.91 9.15125 -6.57 8.615 -7.25 8.0625 C-7.25 7.4025 -7.25 6.7425 -7.25 6.0625 C-9.23 6.0625 -11.21 6.0625 -13.25 6.0625 C-12.14802585 3.8585517 -11.12256482 2.65764781 -9.25 1.0625 C-6.1308935 0.03422313 -3.26827986 -0.04300368 0 0 Z " fill="#585A5C" transform="translate(339.25,264.9375)"/>
<path d="M0 0 C0.99 0 1.98 0 3 0 C3 1.98 3 3.96 3 6 C3.598125 6.268125 4.19625 6.53625 4.8125 6.8125 C6.97224808 7.98493467 8.35790256 9.19369282 10 11 C10.33 10.01 10.66 9.02 11 8 C14.465 7.505 14.465 7.505 18 7 C11.94967379 13.39605914 5.1397202 17.58954517 -3.8046875 18.1875 C-6.211043 18.1875 -8.5977512 18.1354086 -11 18 C-11.33 17.01 -11.66 16.02 -12 15 C-10.75 13.5 -10.75 13.5 -9 12 C-7.68 12 -6.36 12 -5 12 C-4.9175 11.13375 -4.835 10.2675 -4.75 9.375 C-3.88163826 5.46737219 -2.50959017 3.10008198 0 0 Z " fill="#72B749" transform="translate(278,230)"/>
<path d="M0 0 C0.63550781 0.18304688 1.27101563 0.36609375 1.92578125 0.5546875 C3.65405962 4.01124424 3.409136 7.77512187 2.92578125 11.5546875 C1.23828125 14.1171875 1.23828125 14.1171875 -1.07421875 15.5546875 C-4.45344286 16.24786168 -5.83563292 15.68193328 -8.88671875 14.0546875 C-11.17698388 11.43724163 -11.46464566 10.84865807 -11.63671875 7.5546875 C-11.42804106 4.7636234 -11.03963765 3.49304293 -9.63671875 0.9921875 C-6.19897827 -0.93630106 -3.82410182 -0.51321825 0 0 Z M-5.07421875 5.5546875 C-5.07421875 6.2146875 -5.07421875 6.8746875 -5.07421875 7.5546875 C-4.41421875 7.5546875 -3.75421875 7.5546875 -3.07421875 7.5546875 C-3.07421875 6.8946875 -3.07421875 6.2346875 -3.07421875 5.5546875 C-3.73421875 5.5546875 -4.39421875 5.5546875 -5.07421875 5.5546875 Z " fill="#77BD43" transform="translate(276.07421875,205.4453125)"/>
<path d="M0 0 C0.90720795 0.00141495 1.81441589 0.0028299 2.74911499 0.00428772 C5.65308905 0.00989529 8.55698665 0.02244907 11.4609375 0.03515625 C13.42708222 0.04017027 15.39322815 0.04473335 17.359375 0.04882812 C22.1849254 0.05986719 27.01041847 0.0771369 31.8359375 0.09765625 C31.8359375 1.08765625 31.8359375 2.07765625 31.8359375 3.09765625 C19.2959375 3.09765625 6.7559375 3.09765625 -6.1640625 3.09765625 C-6.4940625 7.38765625 -6.8240625 11.67765625 -7.1640625 16.09765625 C-8.4840625 15.76765625 -9.8040625 15.43765625 -11.1640625 15.09765625 C-11.1640625 10.47765625 -11.1640625 5.85765625 -11.1640625 1.09765625 C-7.72801485 -0.62036757 -3.77967354 -0.02200555 0 0 Z " fill="#233471" transform="translate(197.1640625,181.90234375)"/>
<path d="M0 0 C1.49131476 2.98262952 1.14724886 5.73056159 1.17578125 9.0546875 C1.19898004 10.48829592 1.2230974 11.92188972 1.24804688 13.35546875 C1.28315773 15.61582213 1.31250379 17.8756376 1.32592773 20.13623047 C1.34142019 22.31804531 1.38163221 24.49828879 1.42578125 26.6796875 C1.44036377 27.98663574 1.45494629 29.29358398 1.4699707 30.64013672 C2.07870643 34.49892117 2.91302805 35.68932173 6 38 C8.34038761 38.68533632 8.34038761 38.68533632 10.75 38.75 C11.94882813 38.83507812 11.94882813 38.83507812 13.171875 38.921875 C13.77515625 38.94765625 14.3784375 38.9734375 15 39 C14.01 40.32 13.02 41.64 12 43 C10.515 42.505 10.515 42.505 9 42 C9 41.34 9 40.68 9 40 C8.319375 40.061875 7.63875 40.12375 6.9375 40.1875 C4 40 4 40 -3 37 C-2.67 25.78 -2.34 14.56 -2 3 C-4.31 3 -6.62 3 -9 3 C-8.34 2.67 -7.68 2.34 -7 2 C-7 1.34 -7 0.68 -7 0 C-3.88407501 -1.03864166 -2.9737344 -1.09036928 0 0 Z " fill="#273973" transform="translate(74,183)"/>
<path d="M0 0 C0.99 0 1.98 0 3 0 C3.268125 0.598125 3.53625 1.19625 3.8125 1.8125 C4.87102051 4.04254963 4.87102051 4.04254963 6.625 5.5 C8 7 8 7 8 11 C6.68 10.67 5.36 10.34 4 10 C3.67 10.99 3.34 11.98 3 13 C-3.4 14.23076923 -3.4 14.23076923 -6.4375 13.0625 C-6.953125 12.711875 -7.46875 12.36125 -8 12 C-8 11.34 -8 10.68 -8 10 C-8.66 10 -9.32 10 -10 10 C-10 8.68 -10 7.36 -10 6 C-8.68 6 -7.36 6 -6 6 C-6.33 4.35 -6.66 2.7 -7 1 C-5.5459375 1.0309375 -5.5459375 1.0309375 -4.0625 1.0625 C-1.12534105 1.35618499 -1.12534105 1.35618499 0 0 Z " fill="#737475" transform="translate(278,269)"/>
<path d="M0 0 C1.32 0.33 2.64 0.66 4 1 C3.01 1 2.02 1 1 1 C1 1.99 1 2.98 1 4 C1.86625 4.2165625 1.86625 4.2165625 2.75 4.4375 C3.4925 4.623125 4.235 4.80875 5 5 C5.70640625 5.17660156 6.4128125 5.35320312 7.140625 5.53515625 C7.75421875 5.68855469 8.3678125 5.84195312 9 6 C9 10 9 14 9 18 C5.5848235 21.4151765 2.83467618 22.7942691 -2 23 C-4.375 22.0625 -4.375 22.0625 -6 21 C-5.67 19.68 -5.34 18.36 -5 17 C-1.535 16.505 -1.535 16.505 2 16 C1.54194902 12.2592503 0.94360193 8.80887322 -0.125 5.1875 C-1 2 -1 2 0 0 Z " fill="#5E5F60" transform="translate(263,281)"/>
<path d="M0 0 C1.51400391 0.01740234 1.51400391 0.01740234 3.05859375 0.03515625 C4.07050781 0.04417969 5.08242188 0.05320312 6.125 0.0625 C7.29869141 0.07990234 7.29869141 0.07990234 8.49609375 0.09765625 C8.49609375 1.41765625 8.49609375 2.73765625 8.49609375 4.09765625 C7.50609375 4.09765625 6.51609375 4.09765625 5.49609375 4.09765625 C5.16609375 3.43765625 4.83609375 2.77765625 4.49609375 2.09765625 C2.4714612 1.44552333 2.4714612 1.44552333 0.49609375 1.09765625 C0.49609375 2.74765625 0.49609375 4.39765625 0.49609375 6.09765625 C3.13609375 6.42765625 5.77609375 6.75765625 8.49609375 7.09765625 C8.82609375 8.41765625 9.15609375 9.73765625 9.49609375 11.09765625 C8.10390625 11.71640625 8.10390625 11.71640625 6.68359375 12.34765625 C3.45937867 13.82972775 3.45937867 13.82972775 1.87109375 16.28515625 C1.41734375 16.88328125 0.96359375 17.48140625 0.49609375 18.09765625 C-0.82390625 18.09765625 -2.14390625 18.09765625 -3.50390625 18.09765625 C-3.53074937 15.28509344 -3.55066813 12.47278384 -3.56640625 9.66015625 C-3.57478516 8.85771484 -3.58316406 8.05527344 -3.59179688 7.22851562 C-3.60042055 5.18470404 -3.55618775 3.14081723 -3.50390625 1.09765625 C-2.50390625 0.09765625 -2.50390625 0.09765625 0 0 Z " fill="#5F6160" transform="translate(389.50390625,284.90234375)"/>
<path d="M0 0 C-0.33 0.66 -0.66 1.32 -1 2 C-1.66 2 -2.32 2 -3 2 C-2.83177734 2.84095215 -2.66355469 3.6819043 -2.49023438 4.54833984 C-1.97084019 8.20530946 -1.99735399 11.53797345 -2.15625 15.2265625 C-2.18223267 15.89666351 -2.20821533 16.56676453 -2.23498535 17.25717163 C-2.31751427 19.38006401 -2.40782257 21.50250611 -2.5 23.625 C-2.62118855 26.42946794 -2.73467824 29.23410032 -2.84375 32.0390625 C-2.89724609 33.27865723 -2.95074219 34.51825195 -3.00585938 35.79541016 C-3.00097183 38.46849139 -2.82016679 40.48215079 -2 43 C-2.99 43.495 -2.99 43.495 -4 44 C-6.20946643 39.57724453 -6.26086051 35.47317071 -6.1953125 30.63671875 C-6.1924826 29.84473587 -6.18965271 29.05275299 -6.18673706 28.23677063 C-6.17558863 25.72019001 -6.15049422 23.20397211 -6.125 20.6875 C-6.11496329 18.97591662 -6.10583864 17.26432763 -6.09765625 15.55273438 C-6.07566681 11.36835094 -6.04117408 7.18423686 -6 3 C-6.66 3 -7.32 3 -8 3 C-8 2.34 -8 1.68 -8 1 C-2.25 -1.125 -2.25 -1.125 0 0 Z " fill="#293B6F" transform="translate(63,183)"/>
<path d="M0 0 C2.4375 2.125 2.4375 2.125 4 4 C4 4.66 4 5.32 4 6 C4.66 6 5.32 6 6 6 C9 11.625 9 11.625 9 15 C8.01 15 7.02 15 6 15 C5.9175 14.278125 5.835 13.55625 5.75 12.8125 C4.83068053 9.36505198 3.47718283 7.54795948 1 5 C-0.32860925 4.64830932 -1.66158328 4.31229724 -3 4 C-3.28875 3.38125 -3.5775 2.7625 -3.875 2.125 C-5.55204511 -1.04275188 -7.73505553 -1.68146473 -11 -3 C-17.54864237 -4.67523409 -25.48012018 -4.92841516 -32 -3 C-32 -2.34 -32 -1.68 -32 -1 C-36.43076923 1.09230769 -36.43076923 1.09230769 -39.3125 0.625 C-39.869375 0.41875 -40.42625 0.2125 -41 0 C-30.50147953 -12.68571224 -11.8836184 -7.54152706 0 0 Z " fill="#2B386F" transform="translate(435,187)"/>
<path d="M0 0 C4.48349294 1.89364919 4.48349294 1.89364919 5.88671875 3.296875 C5.84116861 9.87887019 4.87884619 15.44271262 1.88671875 21.296875 C0.23671875 21.296875 -1.41328125 21.296875 -3.11328125 21.296875 C-2.78328125 20.306875 -2.45328125 19.316875 -2.11328125 18.296875 C-1.12328125 18.626875 -0.13328125 18.956875 0.88671875 19.296875 C0.86609375 18.12125 0.84546875 16.945625 0.82421875 15.734375 C0.81724614 11.82274033 1.24421532 8.15189556 1.88671875 4.296875 C0.86578125 4.35875 0.86578125 4.35875 -0.17578125 4.421875 C-3.71252293 4.27137535 -6.74651158 3.35311647 -10.11328125 2.296875 C-10.11328125 2.956875 -10.11328125 3.616875 -10.11328125 4.296875 C-9.45328125 4.626875 -8.79328125 4.956875 -8.11328125 5.296875 C-11.08328125 4.801875 -11.08328125 4.801875 -14.11328125 4.296875 C-13.73828125 1.859375 -13.73828125 1.859375 -13.11328125 -0.703125 C-9.18338536 -2.66807295 -4.0449169 -1.34581339 0 0 Z " fill="#73A45C" transform="translate(109.11328125,241.703125)"/>
<path d="M0 0 C5.61 0 11.22 0 17 0 C17.33 0.99 17.66 1.98 18 3 C12.72 3 7.44 3 2 3 C1.67 22.47 1.34 41.94 1 62 C1.99 62 2.98 62 4 62 C4 62.66 4 63.32 4 64 C2.68 63.67 1.36 63.34 0 63 C0 42.21 0 21.42 0 0 Z " fill="#293A6D" transform="translate(315,182)"/>
<path d="M0 0 C3.26581976 0.63723312 4.45190767 1.99855724 6.5625 4.5 C6.2325 5.61375 5.9025 6.7275 5.5625 7.875 C4.473857 11.19459717 4.473857 11.19459717 4.5625 13.5 C5.5525 13.83 6.5425 14.16 7.5625 14.5 C3.01755188 13.95893475 -0.61243345 13.07969604 -4.4375 10.5 C-5.5 7.5625 -5.5 7.5625 -5.4375 4.5 C-4.01878933 1.50494414 -3.26412453 0.66956401 0 0 Z " fill="#7ABD5A" transform="translate(61.4375,243.5)"/>
<path d="M0 0 C0.33 1.65 0.66 3.3 1 5 C0.01 5.33 -0.98 5.66 -2 6 C-2.33 8.31 -2.66 10.62 -3 13 C-3.66 13 -4.32 13 -5 13 C-5.33 13.99 -5.66 14.98 -6 16 C-6.66 16 -7.32 16 -8 16 C-8 15.01 -8 14.02 -8 13 C-8.66 12.67 -9.32 12.34 -10 12 C-9.67 9.69 -9.34 7.38 -9 5 C-9.66 4.67 -10.32 4.34 -11 4 C-10.67 3.01 -10.34 2.02 -10 1 C-9.01 1.33 -8.02 1.66 -7 2 C-4 0 -4 0 0 0 Z " fill="#6E6F6F" transform="translate(263,285)"/>
<path d="M0 0 C4.68520819 0.41832216 8.32598984 2.2347705 12.5 4.3125 C12.5 4.9725 12.5 5.6325 12.5 6.3125 C7.9008638 5.22117955 3.92273959 4.08159584 -0.5 2.3125 C-0.5 10.2325 -0.5 18.1525 -0.5 26.3125 C-1.16 26.3125 -1.82 26.3125 -2.5 26.3125 C-3.33866595 18.00072141 -3.94049018 9.66885784 -3.5 1.3125 C-2.5 0.3125 -2.5 0.3125 0 0 Z " fill="#283564" transform="translate(139.5,240.6875)"/>
<path d="M0 0 C0.99 0.33 1.98 0.66 3 1 C3 4.96 3 8.92 3 13 C5.31 13 7.62 13 10 13 C6.63576723 15.96052484 3.30840713 16.92289822 -1 18 C-1.433125 16.824375 -1.433125 16.824375 -1.875 15.625 C-2.84912254 12.90328368 -2.84912254 12.90328368 -5 11 C-4.34 11 -3.68 11 -3 11 C-3 10.34 -3 9.68 -3 9 C-2.34 9 -1.68 9 -1 9 C-1.020625 7.88625 -1.04125 6.7725 -1.0625 5.625 C-1 2 -1 2 0 0 Z " fill="#666769" transform="translate(319,285)"/>
<path d="M0 0 C0.66 0 1.32 0 2 0 C2.94060713 2.82182139 3.09634973 4.38586026 3.02734375 7.2890625 C3.01348633 8.14072998 2.99962891 8.99239746 2.98535156 9.86987305 C2.96956055 10.77906494 2.95376953 11.68825684 2.9375 12.625 C2.8861569 19.6840647 3.02019459 26.6626433 3.75 33.6875 C3.81179443 34.39922363 3.87358887 35.11094727 3.93725586 35.84423828 C4.15239241 38.04586187 4.15239241 38.04586187 5 41 C6.94359277 42.53310928 6.94359277 42.53310928 9 43 C5.63458162 44.08174162 4.70152678 43.92538169 1 43 C0.67 28.81 0.34 14.62 0 0 Z " fill="#2B4068" transform="translate(352,202)"/>
<path d="M0 0 C0.99 0.66 1.98 1.32 3 2 C3 3.32 3 4.64 3 6 C1.02 6.99 1.02 6.99 -1 8 C-1 7.34 -1 6.68 -1 6 C-2.98 6.33 -4.96 6.66 -7 7 C-7 7.66 -7 8.32 -7 9 C-7.99 9.495 -7.99 9.495 -9 10 C-8.34 10.66 -7.68 11.32 -7 12 C-8.32 11.67 -9.64 11.34 -11 11 C-11 8.03 -11 5.06 -11 2 C-6.74213431 -0.12893285 -4.66111976 -0.33899053 0 0 Z " fill="#575859" transform="translate(298,285)"/>
<path d="M0 0 C2.64 0 5.28 0 8 0 C8 0.66 8 1.32 8 2 C6.9275 2.28875 5.855 2.5775 4.75 2.875 C1.18205 3.82865883 1.18205 3.82865883 -1.25 5.125 C-3 6 -3 6 -6 6 C-8.25433614 11.56069582 -8.59961828 17.0785651 -9 23 C-9.99 23 -10.98 23 -12 23 C-12.43733732 16.11193728 -11.78768821 10.90146261 -8 5 C-5.01557295 2.59790018 -3.82021762 2 0 2 C0 1.34 0 0.68 0 0 Z " fill="#22386D" transform="translate(148,195)"/>
<path d="M0 0 C0.66 0 1.32 0 2 0 C1.83757812 0.85851562 1.67515625 1.71703125 1.5078125 2.6015625 C0.3361111 10.44294878 0.24304156 19.24010024 2 27 C3.92064793 28.5899433 3.92064793 28.5899433 6 29 C6 29.99 6 30.98 6 32 C4.68 32 3.36 32 2 32 C-1.64814836 25.84374964 -2.3863174 20.77103004 -2.375 13.75 C-2.37628906 12.96963379 -2.37757813 12.18926758 -2.37890625 11.38525391 C-2.29920328 7.16371378 -1.92482086 3.84964172 0 0 Z " fill="#75AB59" transform="translate(241,200)"/>
<path d="M0 0 C0.66 0.33 1.32 0.66 2 1 C4.94697185 10.46603079 3.58023441 17.96064784 0 27 C-2.33571435 23.49642848 -1.91079292 22.2481488 -1.30078125 18.25 C-0.48235206 12.1277245 -0.62939657 6.77834585 -3 1 C-2.01 0.67 -1.02 0.34 0 0 Z " fill="#5FB145" transform="translate(303,202)"/>
<path d="M0 0 C2.64 0 5.28 0 8 0 C8 0.66 8 1.32 8 2 C8.886875 2.103125 9.77375 2.20625 10.6875 2.3125 C15.54581113 3.32082872 18.04956518 4.83232293 21.1875 8.6875 C23.48179546 12.88052273 25 17.14117503 25 22 C24.34 22 23.68 22 23 22 C23 21.01 23 20.02 23 19 C22.01 18.67 21.02 18.34 20 18 C19.67 15.03 19.34 12.06 19 9 C18.01 8.67 17.02 8.34 16 8 C16 7.34 16 6.68 16 6 C15.443125 5.87625 14.88625 5.7525 14.3125 5.625 C12 5 12 5 9.6875 4 C6.48089123 2.80684325 3.38875807 2.39867742 0 2 C0 1.34 0 0.68 0 0 Z " fill="#1F376F" transform="translate(347,180)"/>
<path d="M0 0 C0.99 0.33 1.98 0.66 3 1 C2.814375 1.639375 2.62875 2.27875 2.4375 2.9375 C2.2209375 3.9584375 2.2209375 3.9584375 2 5 C2.33 5.33 2.66 5.66 3 6 C3.33 4.68 3.66 3.36 4 2 C4.33 2 4.66 2 5 2 C5 4.31 5 6.62 5 9 C4.01 9.33 3.02 9.66 2 10 C2.33 12.64 2.66 15.28 3 18 C1.68 18 0.36 18 -1 18 C-1.02698422 15.56242587 -1.04683099 13.12515085 -1.0625 10.6875 C-1.07087891 9.99720703 -1.07925781 9.30691406 -1.08789062 8.59570312 C-1.10307906 5.4516975 -1.00193327 3.00579981 0 0 Z " fill="#68696A" transform="translate(343,285)"/>
<path d="M0 0 C0.66 0 1.32 0 2 0 C3.88312916 3.76625832 3.81940346 8.27490227 4.3046875 12.421875 C5.01475891 16.07595032 6.25420239 18.73736184 8 22 C8 22.66 8 23.32 8 24 C8.66 24.33 9.32 24.66 10 25 C9.67 25.99 9.34 26.98 9 28 C7.66104368 26.33784732 6.32869858 24.67036393 5 23 C4.484375 22.37996094 3.96875 21.75992188 3.4375 21.12109375 C-0.60717557 15.15299909 -0.22377021 6.93687658 0 0 Z " fill="#293973" transform="translate(380,210)"/>
<path d="M0 0 C1.32 0.33 2.64 0.66 4 1 C4.66 3.31 5.32 5.62 6 8 C4.02 8.99 4.02 8.99 2 10 C2 10.66 2 11.32 2 12 C0.02 12 -1.96 12 -4 12 C-4 10.35 -4 8.7 -4 7 C-3.01 6.67 -2.02 6.34 -1 6 C-0.67 4.02 -0.34 2.04 0 0 Z " fill="#656665" transform="translate(403,291)"/>
<path d="M0 0 C2 1 2 1 2.75 2.75 C3.21874823 6.96873403 1.41220486 9.45039352 -1.0625 12.75 C-4.95109482 15.72849816 -8.21035832 15.88521556 -13 16 C-13 15.34 -13 14.68 -13 14 C-13.66 13.67 -14.32 13.34 -15 13 C-13.205625 12.9690625 -13.205625 12.9690625 -11.375 12.9375 C-7.70791857 12.48807084 -6.01808961 11.50432314 -3.5625 8.75 C-1.41452309 5.92677831 -0.21924605 3.61755986 0 0 Z " fill="#243973" transform="translate(167,216)"/>
<path d="M0 0 C4.62 0 9.24 0 14 0 C14 0.66 14 1.32 14 2 C16.64 2.33 19.28 2.66 22 3 C22 3.99 22 4.98 22 6 C21.17757813 5.86722656 20.35515625 5.73445312 19.5078125 5.59765625 C12.68298194 4.51797751 5.88484968 3.59057401 -1 3 C-0.67 2.01 -0.34 1.02 0 0 Z " fill="#83B95D" transform="translate(265,180)"/>
<path d="M0 0 C6.15234375 0.5859375 6.15234375 0.5859375 8 1 C9.20272819 3.40545638 9.10071472 4.94996953 9.0625 7.625 C9.05347656 8.44226563 9.04445313 9.25953125 9.03515625 10.1015625 C9.02355469 10.72804687 9.01195312 11.35453125 9 12 C8.01 12.33 7.02 12.66 6 13 C6 12.01 6 11.02 6 10 C5.34 10 4.68 10 4 10 C3.32845067 8.71086513 2.66291141 7.41859796 2 6.125 C1.62875 5.40570313 1.2575 4.68640625 0.875 3.9453125 C0 2 0 2 0 0 Z " fill="#70B352" transform="translate(270,205)"/>
<path d="M0 0 C1.98 0 3.96 0 6 0 C5.34 4.95 4.68 9.9 4 15 C2.68 14.67 1.36 14.34 0 14 C0 9.38 0 4.76 0 0 Z " fill="#1F2B57" transform="translate(186,183)"/>
<path d="M0 0 C2.97 0 5.94 0 9 0 C7.49972958 10.34396971 7.49972958 10.34396971 3 14 C2.649375 14.721875 2.29875 15.44375 1.9375 16.1875 C1 18 1 18 -2 19 C-0.82630868 15.02750629 0.46645743 12.24293448 3 9 C4.03041427 7.01549844 5.03685937 5.01800895 6 3 C3.69 2.67 1.38 2.34 -1 2 C-0.67 1.34 -0.34 0.68 0 0 Z " fill="#1F326D" transform="translate(202,195)"/>
<path d="M0 0 C0.33 0.66 0.66 1.32 1 2 C2.485 2.2475 2.485 2.2475 4 2.5 C5.485 2.7475 5.485 2.7475 7 3 C7.33 3.66 7.66 4.32 8 5 C9.85744207 5.61067144 9.85744207 5.61067144 12 6 C14.1875 6.4375 14.1875 6.4375 16 7 C16.33 7.66 16.66 8.32 17 9 C19.01669827 10.13350534 19.01669827 10.13350534 21 11 C16.99296779 12.3356774 14.32838008 11.06987961 10.5 9.75 C9.82324219 9.53214844 9.14648438 9.31429687 8.44921875 9.08984375 C4.95561235 7.9115268 2.32198435 6.91816952 0 4 C-0.66 3.34 -1.32 2.68 -2 2 C-1.34 2 -0.68 2 0 2 C0 1.34 0 0.68 0 0 Z " fill="#243665" transform="translate(391,236)"/>
<path d="M0 0 C1.32 0 2.64 0 4 0 C1.66786831 8.16246092 -2.06011692 12.46238414 -9 17 C-9.3125 14.1875 -9.3125 14.1875 -9 11 C-7.34151823 9.98648336 -5.67334039 8.98879205 -4 8 C-2.40351779 5.44460834 -1.1777547 2.77002641 0 0 Z " fill="#223565" transform="translate(108,220)"/>
<path d="M0 0 C1.1482685 2.296537 1.11561175 3.58313167 1.09765625 6.1328125 C1.09443359 6.93847656 1.09121094 7.74414062 1.08789062 8.57421875 C1.07951172 9.41597656 1.07113281 10.25773438 1.0625 11.125 C1.05798828 11.97449219 1.05347656 12.82398438 1.04882812 13.69921875 C1.03702874 15.79950909 1.01909306 17.8997633 1 20 C0.67 20 0.34 20 0 20 C0 17.36 0 14.72 0 12 C-0.66 12 -1.32 12 -2 12 C-2 9.03 -2 6.06 -2 3 C-4.31 3 -6.62 3 -9 3 C-8.34 2.67 -7.68 2.34 -7 2 C-7 1.34 -7 0.68 -7 0 C-3.88407501 -1.03864166 -2.9737344 -1.09036928 0 0 Z " fill="#234367" transform="translate(74,183)"/>
<path d="M0 0 C1.4540625 0.0309375 1.4540625 0.0309375 2.9375 0.0625 C4.5817351 4.99520529 3.12365592 7.60274193 0.9375 12.0625 C-0.0525 11.7325 -1.0425 11.4025 -2.0625 11.0625 C-1.7325 10.0725 -1.4025 9.0825 -1.0625 8.0625 C-1.7225 7.7325 -2.3825 7.4025 -3.0625 7.0625 C-3.75 4.0625 -3.75 4.0625 -4.0625 1.0625 C-3.0625 0.0625 -3.0625 0.0625 0 0 Z " fill="#6ABC45" transform="translate(108.0625,245.9375)"/>
<path d="M0 0 C2.5625 2.5625 2.5625 2.5625 4 5 C-0.33168317 5.26252625 -3.8803623 4.29243536 -8 3 C-8 3.66 -8 4.32 -8 5 C-7.34 5.33 -6.68 5.66 -6 6 C-8.97 5.505 -8.97 5.505 -12 5 C-11.625 2.5625 -11.625 2.5625 -11 0 C-7.5080793 -1.74596035 -3.68793117 -0.98912541 0 0 Z " fill="#6AA250" transform="translate(107,241)"/>
<path d="M0 0 C2.97 0.99 5.94 1.98 9 3 C9.375 5.125 9.375 5.125 9 8 C7.25677649 10.29739641 5.30361963 12.26333339 3 14 C2.34 14 1.68 14 1 14 C1 14.66 1 15.32 1 16 C-0.32 16.33 -1.64 16.66 -3 17 C-3 15 -3 15 -1.625 13.375 C0 12 0 12 2 12 C2 11.34 2 10.68 2 10 C2.99 9.67 3.98 9.34 5 9 C5.33 7.35 5.66 5.7 6 4 C4.35 4 2.7 4 1 4 C0.67 2.68 0.34 1.36 0 0 Z " fill="#263467" transform="translate(433,227)"/>
<path d="M0 0 C0.66 0 1.32 0 2 0 C1.67 12.87 1.34 25.74 1 39 C-1.475 39.495 -1.475 39.495 -4 40 C-4 39.01 -4 38.02 -4 37 C-2.68 37 -1.36 37 0 37 C0 24.79 0 12.58 0 0 Z " fill="#29386C" transform="translate(332,206)"/>
<path d="M0 0 C0.70511719 0.23976562 1.41023438 0.47953125 2.13671875 0.7265625 C-0.29083861 3.15411986 -2.75517633 4.30201441 -5.86328125 5.7265625 C-6.52328125 5.7265625 -7.18328125 5.7265625 -7.86328125 5.7265625 C-8.11078125 6.3246875 -8.35828125 6.9228125 -8.61328125 7.5390625 C-10.02698137 10.01303771 -11.51383508 11.16026505 -13.86328125 12.7265625 C-14.1875 10.5 -14.1875 10.5 -13.86328125 7.7265625 C-11.6328125 5.453125 -11.6328125 5.453125 -8.67578125 3.3515625 C-7.71285156 2.64257812 -6.74992188 1.93359375 -5.7578125 1.203125 C-2.86328125 -0.2734375 -2.86328125 -0.2734375 0 0 Z " fill="#75AA5C" transform="translate(259.86328125,183.2734375)"/>
<path d="M0 0 C0.99 0 1.98 0 3 0 C3 2.64 3 5.28 3 8 C3.66 8.33 4.32 8.66 5 9 C2.69 8.67 0.38 8.34 -2 8 C-2.33 7.01 -2.66 6.02 -3 5 C-3.66 5 -4.32 5 -5 5 C-5 3.68 -5 2.36 -5 1 C-2.525 1.495 -2.525 1.495 0 2 C0 1.34 0 0.68 0 0 Z " fill="#6D6D6F" transform="translate(273,274)"/>
<path d="M0 0 C0.75732422 0.00644531 1.51464844 0.01289063 2.29492188 0.01953125 C3.08060547 0.03628906 3.86628906 0.05304688 4.67578125 0.0703125 C5.47306641 0.07933594 6.27035156 0.08835937 7.09179688 0.09765625 C9.05742025 0.12119665 11.022889 0.15706703 12.98828125 0.1953125 C13.31828125 0.8553125 13.64828125 1.5153125 13.98828125 2.1953125 C10.42904111 3.00774775 7.1370043 3.33056172 3.48828125 3.3203125 C2.1115625 3.32417969 2.1115625 3.32417969 0.70703125 3.328125 C-1.96176329 3.19775285 -4.41037028 2.78909856 -7.01171875 2.1953125 C-3.96490814 0.16410543 -3.41053551 -0.05128625 0 0 Z " fill="#7DB953" transform="translate(81.01171875,258.8046875)"/>
<path d="M0 0 C0.33 0.66 0.66 1.32 1 2 C0.34 2 -0.32 2 -1 2 C-1 2.66 -1 3.32 -1 4 C-1.66 4 -2.32 4 -3 4 C-2.6596875 4.8971875 -2.6596875 4.8971875 -2.3125 5.8125 C-2.209375 6.534375 -2.10625 7.25625 -2 8 C-2.433125 8.4125 -2.86625 8.825 -3.3125 9.25 C-5.99560746 12.03248181 -6.20335405 15.26189208 -7 19 C-7.66 19 -8.32 19 -9 19 C-8.84206146 11.99327213 -7.82745807 6.34368914 -3 1 C-2.01 0.67 -1.02 0.34 0 0 Z " fill="#22356E" transform="translate(390,190)"/>
<path d="M0 0 C3.91841827 1.30613942 6.32640809 2.83129848 9 6 C9 6.66 9 7.32 9 8 C10.11375 8.103125 11.2275 8.20625 12.375 8.3125 C14.169375 8.6528125 14.169375 8.6528125 16 9 C16.99 10.485 16.99 10.485 18 12 C11.13852159 11.8540111 6.83485345 8.75607784 2 4 C0.73828125 1.76953125 0.73828125 1.76953125 0 0 Z " fill="#273764" transform="translate(60,227)"/>
<path d="M0 0 C0.474375 0.474375 0.94875 0.94875 1.4375 1.4375 C5.11644797 3.68076096 8.7621112 3.73739578 13 4 C9.63576723 6.96052484 6.30840713 7.92289822 2 9 C1.71125 8.21625 1.4225 7.4325 1.125 6.625 C0.15087746 3.90328368 0.15087746 3.90328368 -2 2 C-1.34 2 -0.68 2 0 2 C0 1.34 0 0.68 0 0 Z " fill="#737475" transform="translate(316,294)"/>
<path d="M0 0 C0.66 0.33 1.32 0.66 2 1 C-1.13347921 9.50765864 -1.13347921 9.50765864 -4.75 11.5625 C-5.4925 11.706875 -6.235 11.85125 -7 12 C-6.32592592 7.78703697 -4.22536987 4.57407888 -2 1 C-1.34 0.67 -0.68 0.34 0 0 Z " fill="#263973" transform="translate(201,213)"/>
<path d="M0 0 C3 0.1875 3 0.1875 5 1.1875 C5 3.8275 5 6.4675 5 9.1875 C3.5 7.8125 3.5 7.8125 2 6.1875 C2 5.5275 2 4.8675 2 4.1875 C0.35 4.8475 -1.3 5.5075 -3 6.1875 C-3.66 4.8675 -4.32 3.5475 -5 2.1875 C-3 0.1875 -3 0.1875 0 0 Z " fill="#565757" transform="translate(279,264.8125)"/>
<path d="M0 0 C0.763125 0.0825 1.52625 0.165 2.3125 0.25 C2.6425 1.57 2.9725 2.89 3.3125 4.25 C1.6625 3.92 0.0125 3.59 -1.6875 3.25 C-1.6875 5.23 -1.6875 7.21 -1.6875 9.25 C-2.6775 9.58 -3.6675 9.91 -4.6875 10.25 C-6.01477273 4.94090909 -6.01477273 4.94090909 -4.5625 1.875 C-2.6875 0.25 -2.6875 0.25 0 0 Z " fill="#7DAF5F" transform="translate(61.6875,243.75)"/>
<path d="M0 0 C0.66 0 1.32 0 2 0 C1.91621094 0.61488281 1.83242188 1.22976562 1.74609375 1.86328125 C1.64425781 2.67152344 1.54242188 3.47976562 1.4375 4.3125 C1.33308594 5.11300781 1.22867187 5.91351563 1.12109375 6.73828125 C0.85244822 9.16817116 0.85244822 9.16817116 2 12 C2.99 12 3.98 12 5 12 C5 12.66 5 13.32 5 14 C5.66 14.33 6.32 14.66 7 15 C3.23437092 14.47699596 0.54746764 13.92487026 -2 11 C-2.74926632 6.56915351 -2.51315411 3.76973117 0 0 Z " fill="#7BAD5D" transform="translate(267,206)"/>
<path d="M0 0 C0.99 0.33 1.98 0.66 3 1 C2.34215037 4.29680965 1.10579427 6.84117922 -0.5625 9.75 C-1.01753906 10.54921875 -1.47257813 11.3484375 -1.94140625 12.171875 C-2.29074219 12.77515625 -2.64007813 13.3784375 -3 14 C-3.66 14 -4.32 14 -5 14 C-4.46515599 8.65155992 -2.53309233 4.64203897 0 0 Z " fill="#1E366A" transform="translate(223,200)"/>
<path d="M0 0 C0 0.66 0 1.32 0 2 C1.32 2.33 2.64 2.66 4 3 C2 5 2 5 -0.6015625 5.1953125 C-1.59929687 5.17210937 -2.59703125 5.14890625 -3.625 5.125 C-5.12933594 5.09792969 -5.12933594 5.09792969 -6.6640625 5.0703125 C-7.43492187 5.04710937 -8.20578125 5.02390625 -9 5 C-9 4.34 -9 3.68 -9 3 C-6.04341306 0.15291628 -4.05047276 -0.3375394 0 0 Z " fill="#545554" transform="translate(414,298)"/>
<path d="M0 0 C0.99 0.33 1.98 0.66 3 1 C3 1.66 3 2.32 3 3 C3.99 3.33 4.98 3.66 6 4 C6.33 5.98 6.66 7.96 7 10 C4.5 8.625 4.5 8.625 2 7 C2 6.34 2 5.68 2 5 C0.02 5 -1.96 5 -4 5 C-2.93453047 2.86906094 -1.70840281 1.63412443 0 0 Z " fill="#5F6568" transform="translate(330,266)"/>
<path d="M0 0 C3.96 0 7.92 0 12 0 C12 0.33 12 0.66 12 1 C9.03 1 6.06 1 3 1 C2.00544091 3.98367726 1.80440368 6.2004192 1.68359375 9.32421875 C1.64169922 10.35224609 1.59980469 11.38027344 1.55664062 12.43945312 C1.51732422 13.51130859 1.47800781 14.58316406 1.4375 15.6875 C1.39431641 16.77095703 1.35113281 17.85441406 1.30664062 18.97070312 C1.20053162 21.64700791 1.09847639 24.32340526 1 27 C0.67 27 0.34 27 0 27 C0 18.09 0 9.18 0 0 Z " fill="#2B3A6C" transform="translate(95,182)"/>
<path d="M0 0 C2.64 0 5.28 0 8 0 C8 0.66 8 1.32 8 2 C8.886875 2.103125 9.77375 2.20625 10.6875 2.3125 C14.0826755 3.01715907 16.21942098 3.9554566 19 6 C19 6.66 19 7.32 19 8 C18.01 8 17.02 8 16 8 C16 7.34 16 6.68 16 6 C15.443125 5.87625 14.88625 5.7525 14.3125 5.625 C12 5 12 5 9.6875 4 C6.48089123 2.80684325 3.38875807 2.39867742 0 2 C0 1.34 0 0.68 0 0 Z " fill="#283A6B" transform="translate(347,180)"/>
<path d="M0 0 C5.28 0 10.56 0 16 0 C16.66 1.32 17.32 2.64 18 4 C18.99 4 19.98 4 21 4 C21 4.99 21 5.98 21 7 C19.125 6.75 19.125 6.75 17 6 C16.34 4.68 15.68 3.36 15 2 C10.05 2 5.1 2 0 2 C0 1.34 0 0.68 0 0 Z " fill="#7DAC64" transform="translate(266,195)"/>
<path d="M0 0 C0.33 0.99 0.66 1.98 1 3 C-0.32 3.33 -1.64 3.66 -3 4 C-3 4.66 -3 5.32 -3 6 C-7.43076923 8.09230769 -7.43076923 8.09230769 -10.3125 7.625 C-10.869375 7.41875 -11.42625 7.2125 -12 7 C-8.54110281 2.82049923 -5.01713599 1.67237866 0 0 Z " fill="#243567" transform="translate(406,180)"/>
<path d="M0 0 C2.5 1.3125 2.5 1.3125 5 3 C5 3.99 5 4.98 5 6 C5.763125 6.103125 6.52625 6.20625 7.3125 6.3125 C10.17059424 7.04364039 11.15742885 7.76951913 13 10 C6.54972485 9.73672346 3.52084209 7.49335977 -1 3 C-0.67 2.01 -0.34 1.02 0 0 Z " fill="#86B366" transform="translate(249,235)"/>
<path d="M0 0 C0.33 0 0.66 0 1 0 C1.09796875 1.20398438 1.1959375 2.40796875 1.296875 3.6484375 C1.44693355 5.22405227 1.59802912 6.79956853 1.75 8.375 C1.811875 9.1690625 1.87375 9.963125 1.9375 10.78125 C2.15632268 12.93300639 2.38920487 14.92444902 3 17 C4.92371941 18.63458569 4.92371941 18.63458569 7 19 C5.1875 19.6875 5.1875 19.6875 3 20 C1.01114032 18.48877867 0.10510473 17.5867029 -0.34057617 15.09887695 C-0.32486572 14.40238037 -0.30915527 13.70588379 -0.29296875 12.98828125 C-0.28330078 12.23095703 -0.27363281 11.47363281 -0.26367188 10.69335938 C-0.23853516 9.90767578 -0.21339844 9.12199219 -0.1875 8.3125 C-0.17396484 7.51521484 -0.16042969 6.71792969 -0.14648438 5.89648438 C-0.11117089 3.93070033 -0.05736447 1.96526418 0 0 Z " fill="#24346B" transform="translate(354,226)"/>
<path d="M0 0 C0.99 0.33 1.98 0.66 3 1 C3 5.29 3 9.58 3 14 C2.01 13.67 1.02 13.34 0 13 C0 8.71 0 4.42 0 0 Z " fill="#74B154" transform="translate(253,206)"/>
<path d="M0 0 C5.41538462 -0.36923077 5.41538462 -0.36923077 8.375 1.5 C8.91125 1.995 9.4475 2.49 10 3 C7 3 7 3 4.625 2.75 C1.07340203 3.08824743 -0.44761612 4.58941523 -3 7 C-3.33 7.66 -3.66 8.32 -4 9 C-4.99 9 -5.98 9 -7 9 C-7 8.34 -7 7.68 -7 7 C-6.34 7 -5.68 7 -5 7 C-4.67 6.01 -4.34 5.02 -4 4 C-3.34 4 -2.68 4 -2 4 C-1.34 2.68 -0.68 1.36 0 0 Z " fill="#2D3A6B" transform="translate(340,195)"/>
<path d="M0 0 C2.31 0 4.62 0 7 0 C6.67 0.99 6.34 1.98 6 3 C6.33 3.99 6.66 4.98 7 6 C5.35 5.67 3.7 5.34 2 5 C2.33 5.99 2.66 6.98 3 8 C2.34 8 1.68 8 1 8 C0.67 8.66 0.34 9.32 0 10 C0 6.7 0 3.4 0 0 Z " fill="#606160" transform="translate(269,265)"/>
<path d="M0 0 C1.670625 0.061875 1.670625 0.061875 3.375 0.125 C4.5 3.875 4.5 3.875 3.375 6.125 C-2.16346154 5.50961538 -2.16346154 5.50961538 -4.5 3.5625 C-4.87125 3.088125 -5.2425 2.61375 -5.625 2.125 C-3.625 0.125 -3.625 0.125 0 0 Z " fill="#4A4B4E" transform="translate(340.625,264.875)"/>
<path d="M0 0 C2.31 0.33 4.62 0.66 7 1 C6.67 1.99 6.34 2.98 6 4 C5.34 4 4.68 4 4 4 C4 4.66 4 5.32 4 6 C1.36 6.33 -1.28 6.66 -4 7 C-3 4 -3 4 0 2 C0 1.34 0 0.68 0 0 Z " fill="#7BB45C" transform="translate(96,246)"/>
<path d="M0 0 C5.93594592 2.37437837 7.57616616 7.50253856 10 13 C8.68 13 7.36 13 6 13 C5.67 10.69 5.34 8.38 5 6 C2.525 5.01 2.525 5.01 0 4 C0 2.68 0 1.36 0 0 Z " fill="#77A45F" transform="translate(294,189)"/>
<path d="M0 0 C0.33 0 0.66 0 1 0 C1 3.96 1 7.92 1 12 C2.11375 11.95875 3.2275 11.9175 4.375 11.875 C8 12 8 12 10 14 C8.37675914 14.22162329 6.751279 14.42689803 5.125 14.625 C4.22007813 14.74101562 3.31515625 14.85703125 2.3828125 14.9765625 C1.59648438 14.98429687 0.81015625 14.99203125 0 15 C-0.66 14.34 -1.32 13.68 -2 13 C-1.34 13 -0.68 13 0 13 C0 8.71 0 4.42 0 0 Z " fill="#1F306D" transform="translate(122,253)"/>
<path d="M0 0 C-2.42195448 2.87255066 -4.59742703 3.70838919 -8.1875 4.6875 C-9.08855469 4.93886719 -9.98960937 5.19023437 -10.91796875 5.44921875 C-11.60503906 5.63097656 -12.29210937 5.81273437 -13 6 C-13 5.01 -13 4.02 -13 3 C-11.40084119 2.30093058 -9.79544955 1.61610532 -8.1875 0.9375 C-7.29417969 0.55464844 -6.40085938 0.17179688 -5.48046875 -0.22265625 C-3 -1 -3 -1 0 0 Z " fill="#1F3567" transform="translate(174,241)"/>
<path d="M0 0 C0.66 0 1.32 0 2 0 C1.67 1.65 1.34 3.3 1 5 C0.34 5 -0.32 5 -1 5 C-1.33 6.65 -1.66 8.3 -2 10 C-2.66 10 -3.32 10 -4 10 C-4 10.99 -4 11.98 -4 13 C-4.66 13 -5.32 13 -6 13 C-5.60791281 7.64147506 -3.6642613 3.85831875 0 0 Z " fill="#2A3566" transform="translate(189,232)"/>
<path d="M0 0 C-0.33 0.66 -0.66 1.32 -1 2 C-1.66 2 -2.32 2 -3 2 C-2.67 3.32 -2.34 4.64 -2 6 C-3.32 6.99 -4.64 7.98 -6 9 C-6 7.02 -6 5.04 -6 3 C-6.66 3 -7.32 3 -8 3 C-8 2.34 -8 1.68 -8 1 C-2.25 -1.125 -2.25 -1.125 0 0 Z " fill="#222D4A" transform="translate(63,183)"/>
<path d="M0 0 C0.66 0 1.32 0 2 0 C1.125 4.875 1.125 4.875 0 6 C-1.68608966 6.07205511 -3.37500659 6.08386068 -5.0625 6.0625 C-5.98160156 6.05347656 -6.90070313 6.04445313 -7.84765625 6.03515625 C-8.55792969 6.02355469 -9.26820313 6.01195312 -10 6 C-9.34 5.525625 -8.68 5.05125 -8 4.5625 C-7.34 4.046875 -6.68 3.53125 -6 3 C-6 2.67 -6 2.34 -6 2 C-4.02 2 -2.04 2 0 2 C0 1.34 0 0.68 0 0 Z " fill="#525253" transform="translate(330,297)"/>
<path d="M0 0 C0.99 0.33 1.98 0.66 3 1 C2.814375 1.639375 2.62875 2.27875 2.4375 2.9375 C2.2209375 3.9584375 2.2209375 3.9584375 2 5 C2.33 5.33 2.66 5.66 3 6 C3.33 4.68 3.66 3.36 4 2 C4.33 2 4.66 2 5 2 C5 4.31 5 6.62 5 9 C4.01 9.33 3.02 9.66 2 10 C2 9.34 2 8.68 2 8 C1.01 8 0.02 8 -1 8 C-0.67 5.36 -0.34 2.72 0 0 Z " fill="#727575" transform="translate(343,285)"/>
<path d="M0 0 C2.6875 0.3125 2.6875 0.3125 5 1 C5.33 1.99 5.66 2.98 6 4 C2.91190305 5.76462683 1.76687864 6 -2 6 C-2.33 5.01 -2.66 4.02 -3 3 C-1.8125 1.4375 -1.8125 1.4375 0 0 Z " fill="#8FBC63" transform="translate(269,242)"/>
<path d="M0 0 C0 4 0 4 -1.6875 5.75 C-4.35134151 7.18991433 -6.01644824 7.24862931 -9 7 C-6.82616588 2.86971516 -4.97872903 0 0 0 Z " fill="#27376B" transform="translate(341,182)"/>
<path d="M0 0 C0 1.65 0 3.3 0 5 C-9.41002278 6.33257403 -9.41002278 6.33257403 -14 5 C-14 4.67 -14 4.34 -14 4 C-11.36 3.67 -8.72 3.34 -6 3 C-6 2.34 -6 1.68 -6 1 C-4 0 -4 0 0 0 Z " fill="#464648" transform="translate(325,265)"/>
<path d="M0 0 C0.99 0 1.98 0 3 0 C3.33 0.99 3.66 1.98 4 3 C2.02 3 0.04 3 -2 3 C-2 3.66 -2 4.32 -2 5 C-4.31 5.66 -6.62 6.32 -9 7 C-9 6.01 -9 5.02 -9 4 C-5.62902617 2.50178941 -3.79557881 2 0 2 C0 1.34 0 0.68 0 0 Z " fill="#27346E" transform="translate(150,180)"/>
<path d="M0 0 C4.95 0 9.9 0 15 0 C12 3 12 3 9.08203125 3.07421875 C8.00308594 2.94660156 6.92414063 2.81898438 5.8125 2.6875 C4.72582031 2.56761719 3.63914062 2.44773438 2.51953125 2.32421875 C1.68808594 2.21722656 0.85664062 2.11023438 0 2 C0 1.34 0 0.68 0 0 Z " fill="#7CB15E" transform="translate(77,251)"/>
<path d="M0 0 C3 1 3 1 4.6875 3.9375 C6 7 6 7 6 9 C6.66 9.33 7.32 9.66 8 10 C7.67 10.99 7.34 11.98 7 13 C5.66104368 11.33784732 4.32869858 9.67036393 3 8 C2.4225 7.319375 1.845 6.63875 1.25 5.9375 C0 4 0 4 0 0 Z " fill="#222D5F" transform="translate(382,225)"/>
<path d="M0 0 C0.66 0.33 1.32 0.66 2 1 C1.49396008 3.16874252 1.00016187 4.99967627 0 7 C-0.66 7 -1.32 7 -2 7 C-2.66 8.32 -3.32 9.64 -4 11 C-4.99 11 -5.98 11 -7 11 C-6.401875 10.113125 -5.80375 9.22625 -5.1875 8.3125 C-3.38159753 5.57784769 -1.66104089 2.82376952 0 0 Z " fill="#64AF47" transform="translate(288,217)"/>
<path d="M0 0 C0.66 0 1.32 0 2 0 C3.06723961 3.46222615 3.10173486 6.64039266 3.0625 10.25 C3.05347656 11.32765625 3.04445313 12.4053125 3.03515625 13.515625 C3.02355469 14.33546875 3.01195312 15.1553125 3 16 C2.34 16 1.68 16 1 16 C0.67 10.72 0.34 5.44 0 0 Z " fill="#2E3963" transform="translate(444,203)"/>
<path d="M0 0 C1.32 0.33 2.64 0.66 4 1 C4 1.66 4 2.32 4 3 C4.99 3.66 5.98 4.32 7 5 C4.03 5.66 1.06 6.32 -2 7 C-2.33 5.68 -2.66 4.36 -3 3 C-2.34 3 -1.68 3 -1 3 C-0.67 2.01 -0.34 1.02 0 0 Z " fill="#2B437B" transform="translate(63,182)"/>
<path d="M0 0 C2 3 2 3 1.625 5.6875 C1.41875 6.450625 1.2125 7.21375 1 8 C-0.32 8 -1.64 8 -3 8 C-3.75 6.25 -3.75 6.25 -4 4 C-2.0625 1.75 -2.0625 1.75 0 0 Z " fill="#6F7073" transform="translate(335,295)"/>
<path d="M0 0 C2.475 0.495 2.475 0.495 5 1 C5 1.66 5 2.32 5 3 C5.99 3.33 6.98 3.66 8 4 C7.67 4.66 7.34 5.32 7 6 C4.69 5.67 2.38 5.34 0 5 C0 3.35 0 1.7 0 0 Z " fill="#4A4C4A" transform="translate(390,286)"/>
<path d="M0 0 C0.66 0 1.32 0 2 0 C2.66 2.64 3.32 5.28 4 8 C2.35 8 0.7 8 -1 8 C-1.625 5.125 -1.625 5.125 -2 2 C-1.34 1.34 -0.68 0.68 0 0 Z " fill="#707172" transform="translate(313,285)"/>
<path d="M0 0 C1.5 1.375 1.5 1.375 3 3 C3 3.66 3 4.32 3 5 C3.804375 5.268125 4.60875 5.53625 5.4375 5.8125 C6.283125 6.204375 7.12875 6.59625 8 7 C8.33 7.99 8.66 8.98 9 10 C5 10 5 10 2.3125 7.75 C-0.78059072 4.07172996 -0.78059072 4.07172996 -1 1 C-0.67 0.67 -0.34 0.34 0 0 Z " fill="#23316D" transform="translate(139,221)"/>
<path d="M0 0 C0.33 0 0.66 0 1 0 C1.12036664 5.77759884 0.8320582 11.27959989 0 17 C-1.5 15.8125 -1.5 15.8125 -3 14 C-3.1875 11.3125 -3.1875 11.3125 -3 9 C-2.34 9 -1.68 9 -1 9 C-0.67 6.03 -0.34 3.06 0 0 Z " fill="#263967" transform="translate(185,210)"/>
<path d="M0 0 C2.475 0.495 2.475 0.495 5 1 C4.979375 1.9075 4.95875 2.815 4.9375 3.75 C4.9889755 6.42672588 5.2215017 8.46988052 6 11 C5.01 11.33 4.02 11.66 3 12 C2.86722656 11.30132812 2.73445312 10.60265625 2.59765625 9.8828125 C2.42105469 8.97273437 2.24445313 8.06265625 2.0625 7.125 C1.88847656 6.22007812 1.71445313 5.31515625 1.53515625 4.3828125 C1.10036299 2.00043683 1.10036299 2.00043683 0 0 Z " fill="#1F2F5B" transform="translate(164,203)"/>
<path d="M0 0 C2.8203125 -0.29296875 2.8203125 -0.29296875 6.125 -0.1875 C7.76855469 -0.14689453 7.76855469 -0.14689453 9.4453125 -0.10546875 C10.28835938 -0.07066406 11.13140625 -0.03585938 12 0 C12 0.99 12 1.98 12 3 C7.38 3 2.76 3 -2 3 C-1.34 2.01 -0.68 1.02 0 0 Z " fill="#213769" transform="translate(407,194)"/>
<path d="M0 0 C0.33 0.99 0.66 1.98 1 3 C3.01508358 3.73323796 3.01508358 3.73323796 5 4 C5 4.99 5 5.98 5 7 C3.125 8.0625 3.125 8.0625 1 9 C0.34 8.67 -0.32 8.34 -1 8 C-1.04241723 5.66705225 -1.04092937 3.33297433 -1 1 C-0.67 0.67 -0.34 0.34 0 0 Z " fill="#619447" transform="translate(273,212)"/>
<path d="M0 0 C1.65 0 3.3 0 5 0 C4.67 1.98 4.34 3.96 4 6 C4.66 6 5.32 6 6 6 C6.33 7.32 6.66 8.64 7 10 C6.01 10 5.02 10 4 10 C3.32845067 8.71086513 2.66291141 7.41859796 2 6.125 C1.62875 5.40570313 1.2575 4.68640625 0.875 3.9453125 C0 2 0 2 0 0 Z " fill="#79BA59" transform="translate(270,205)"/>
<path d="M0 0 C3.49419954 2.21299304 4.8622806 4.01798209 6 8 C6.125 10.8125 6.125 10.8125 6 13 C2.47612355 8.88881081 0 5.53491888 0 0 Z " fill="#252F69" transform="translate(179,193)"/>
<path d="M0 0 C0 0.66 0 1.32 0 2 C-0.99 2.33 -1.98 2.66 -3 3 C-3.33 3.99 -3.66 4.98 -4 6 C-4.99 5.67 -5.98 5.34 -7 5 C-6.67 3.68 -6.34 2.36 -6 1 C-6.66 0.67 -7.32 0.34 -8 0 C-4.71303767 -0.79953138 -3.28976808 -1.09658936 0 0 Z " fill="#5B5B5B" transform="translate(441,298)"/>
<path d="M0 0 C2.475 0.495 2.475 0.495 5 1 C4.1875 4.4375 4.1875 4.4375 3 8 C2.01 8.33 1.02 8.66 0 9 C0.33 7.02 0.66 5.04 1 3 C1.66 3 2.32 3 3 3 C3 2.34 3 1.68 3 1 C2.01 0.67 1.02 0.34 0 0 Z " fill="#2C3E6A" transform="translate(231,182)"/>
<path d="M0 0 C-2.43840236 2.43840236 -4.85240898 3.62292893 -8 5 C-8.66 4.67 -9.32 4.34 -10 4 C-10 3.34 -10 2.68 -10 2 C-6.37626474 -0.79545292 -4.37834956 -1.37605272 0 0 Z " fill="#72B153" transform="translate(262,184)"/>
<path d="M0 0 C0.66 0.33 1.32 0.66 2 1 C1.67 2.98 1.34 4.96 1 7 C-0.32 7 -1.64 7 -3 7 C-1.125 1.125 -1.125 1.125 0 0 Z " fill="#73AE58" transform="translate(300,226)"/>
<path d="M0 0 C0.99 0.33 1.98 0.66 3 1 C1.35 3.64 -0.3 6.28 -2 9 C-4 5 -4 5 -4 3 C-3.01 2.67 -2.02 2.34 -1 2 C-0.67 1.34 -0.34 0.68 0 0 Z " fill="#21316E" transform="translate(215,217)"/>
<path d="M0 0 C0.53625 0.53625 1.0725 1.0725 1.625 1.625 C-1.12578884 2.54192961 -2.73448913 2.73386083 -5.5625 2.6875 C-7.4496875 2.6565625 -7.4496875 2.6565625 -9.375 2.625 C-8.375 0.625 -8.375 0.625 -5.5625 -0.6875 C-2.375 -1.375 -2.375 -1.375 0 0 Z " fill="#243970" transform="translate(427.375,243.375)"/>
<path d="M0 0 C-5.75 5 -5.75 5 -8 5 C-7.67 3.35 -7.34 1.7 -7 0 C-3.98968256 -0.93423645 -3.13349732 -1.04449911 0 0 Z " fill="#71AE53" transform="translate(296,238)"/>
<path d="M0 0 C0.33 0.99 0.66 1.98 1 3 C-2.22791555 5.1519437 -3.28400809 5.20086443 -7 5 C-6.67 4.01 -6.34 3.02 -6 2 C-2.9375 0.8125 -2.9375 0.8125 0 0 Z " fill="#334874" transform="translate(98,234)"/>
<path d="M0 0 C0.33 0.99 0.66 1.98 1 3 C-2.3340947 5.19097652 -5.04179141 6.43454163 -9 7 C-9 6.01 -9 5.02 -9 4 C-7.88625 3.525625 -6.7725 3.05125 -5.625 2.5625 C-3.73289006 1.74693537 -1.84287291 0.92143645 0 0 Z " fill="#1C325D" transform="translate(427,225)"/>
<path d="M0 0 C3.3 0 6.6 0 10 0 C10 0.33 10 0.66 10 1 C7.36 1 4.72 1 2 1 C2 2.32 2 3.64 2 5 C1.01 5 0.02 5 -1 5 C-0.67 3.35 -0.34 1.7 0 0 Z " fill="#5C5C5F" transform="translate(328,285)"/>
<path d="M0 0 C2.76276177 0.52268466 5.3260876 1.10869587 8 2 C7.67 2.99 7.34 3.98 7 5 C4 5 4 5 1.8125 3.0625 C0 1 0 1 0 0 Z " fill="#6BB652" transform="translate(244,232)"/>
<path d="M0 0 C2.97 0 5.94 0 9 0 C9 0.66 9 1.32 9 2 C3.375 3.125 3.375 3.125 0 2 C0 1.34 0 0.68 0 0 Z " fill="#1B4670" transform="translate(409,230)"/>
<path d="M0 0 C4.875 4.625 4.875 4.625 6 8 C5.01 8.495 5.01 8.495 4 9 C0.06153846 5.67692308 0.06153846 5.67692308 -0.25 2.25 C-0.1675 1.5075 -0.085 0.765 0 0 Z " fill="#7AAA60" transform="translate(265,230)"/>
<path d="M0 0 C3.3 0 6.6 0 10 0 C10 1.32 10 2.64 10 4 C9.01 4 8.02 4 7 4 C6.67 3.34 6.34 2.68 6 2 C2.97065509 1.34227572 2.97065509 1.34227572 0 1 C0 0.67 0 0.34 0 0 Z " fill="#737474" transform="translate(388,285)"/>
<path d="M0 0 C1.32 0 2.64 0 4 0 C4.33 1.65 4.66 3.3 5 5 C3.35 4.67 1.7 4.34 0 4 C0 2.68 0 1.36 0 0 Z " fill="#626469" transform="translate(333,277)"/>
<path d="M0 0 C0.33 0 0.66 0 1 0 C1 2.31 1 4.62 1 7 C0.01 7.33 -0.98 7.66 -2 8 C-2.99 6.68 -3.98 5.36 -5 4 C-3.68 4.33 -2.36 4.66 -1 5 C-0.67 3.35 -0.34 1.7 0 0 Z " fill="#5E5F61" transform="translate(287,275)"/>
<path d="M0 0 C-1.1875 1.5 -1.1875 1.5 -3 3 C-5.6875 3.1875 -5.6875 3.1875 -8 3 C-8 2.34 -8 1.68 -8 1 C-8.66 0.67 -9.32 0.34 -10 0 C-2.25 -1.125 -2.25 -1.125 0 0 Z " fill="#202B5C" transform="translate(162,229)"/>
<path d="M0 0 C0.33 0 0.66 0 1 0 C1.1875 2.875 1.1875 2.875 1 6 C0.01 6.66 -0.98 7.32 -2 8 C-2.66 7.34 -3.32 6.68 -4 6 C-2.69593116 3.98079663 -1.36176581 1.98075027 0 0 Z " fill="#89B94B" transform="translate(245,193)"/>
<path d="M0 0 C1.98 0.99 1.98 0.99 4 2 C4 3.32 4 4.64 4 6 C2.68 5.67 1.36 5.34 0 5 C0 3.35 0 1.7 0 0 Z " fill="#787978" transform="translate(424,285)"/>
<path d="M0 0 C0.66 0 1.32 0 2 0 C1.34 4.62 0.68 9.24 0 14 C-0.33 14 -0.66 14 -1 14 C-1.02685938 11.85423363 -1.04633088 9.70837355 -1.0625 7.5625 C-1.07410156 6.36753906 -1.08570313 5.17257813 -1.09765625 3.94140625 C-1 1 -1 1 0 0 Z " fill="#283C72" transform="translate(137,241)"/>
<path d="M0 0 C0.33 0 0.66 0 1 0 C1 4.29 1 8.58 1 13 C0.01 13 -0.98 13 -2 13 C-1.34 8.71 -0.68 4.42 0 0 Z " fill="#2E466F" transform="translate(234,232)"/>
<path d="M0 0 C0.99 0.33 1.98 0.66 3 1 C2.39816251 3.02045442 1.72693904 5.02111039 1 7 C0.01 7.495 0.01 7.495 -1 8 C-2.2077558 4.37673261 -1.54311128 3.35853631 0 0 Z " fill="#1D2A5F" transform="translate(181,226)"/>
<path d="M0 0 C0.99 0.33 1.98 0.66 3 1 C2.01 2.98 1.02 4.96 0 7 C-0.66 6.67 -1.32 6.34 -2 6 C-2 4.68 -2 3.36 -2 2 C-1.34 2 -0.68 2 0 2 C0 1.34 0 0.68 0 0 Z " fill="#293A75" transform="translate(227,195)"/>
<path d="M0 0 C2.875 0.25 2.875 0.25 6 1 C7.375 3.0625 7.375 3.0625 8 5 C7.01 5 6.02 5 5 5 C5 4.34 5 3.68 5 3 C4.360625 2.87625 3.72125 2.7525 3.0625 2.625 C2.381875 2.41875 1.70125 2.2125 1 2 C0.67 1.34 0.34 0.68 0 0 Z " fill="#253158" transform="translate(358,183)"/>
<path d="M0 0 C0.66 0 1.32 0 2 0 C1.67 1.65 1.34 3.3 1 5 C-0.65 5 -2.3 5 -4 5 C-3.67 4.01 -3.34 3.02 -3 2 C-2.01 2.33 -1.02 2.66 0 3 C0 2.01 0 1.02 0 0 Z " fill="#68A34F" transform="translate(110,258)"/>
<path d="M0 0 C2.31 0.33 4.62 0.66 7 1 C7 1.66 7 2.32 7 3 C5.35 3.33 3.7 3.66 2 4 C1.34 2.68 0.68 1.36 0 0 Z " fill="#78B75D" transform="translate(69,249)"/>
<path d="M0 0 C-3.26545761 1.88391785 -6.28111761 2.49287967 -10 3 C-10 2.34 -10 1.68 -10 1 C-6.78548731 -0.60725635 -3.56387464 -0.05748185 0 0 Z " fill="#7BAC57" transform="translate(283,245)"/>
<path d="M0 0 C0.99 0.33 1.98 0.66 3 1 C2.34 2.65 1.68 4.3 1 6 C-0.98 5.34 -2.96 4.68 -5 4 C-2.6875 1.9375 -2.6875 1.9375 0 0 Z " fill="#6DA548" transform="translate(266,242)"/>
<path d="M0 0 C0.598125 0.309375 1.19625 0.61875 1.8125 0.9375 C4.08956772 2.10209704 4.08956772 2.10209704 7 3 C7 3.66 7 4.32 7 5 C4.03 4.505 4.03 4.505 1 4 C0.67 2.68 0.34 1.36 0 0 Z " fill="#273972" transform="translate(401,226)"/>
<path d="M0 0 C0.66 0.66 1.32 1.32 2 2 C1.96712417 4.72869407 1.43602229 7.2966618 1 10 C0.67 10 0.34 10 0 10 C-1.125 2.25 -1.125 2.25 0 0 Z " fill="#79AF58" transform="translate(288,201)"/>
<path d="M0 0 C1.32 0.33 2.64 0.66 4 1 C2.35 2.65 0.7 4.3 -1 6 C-1.66 5.67 -2.32 5.34 -3 5 C-2.01 3.35 -1.02 1.7 0 0 Z " fill="#213060" transform="translate(401,198)"/>
<path d="M0 0 C0.99 0 1.98 0 3 0 C3 0.99 3 1.98 3 3 C0.69 3.33 -1.62 3.66 -4 4 C-4 3.34 -4 2.68 -4 2 C-2.68 2 -1.36 2 0 2 C0 1.34 0 0.68 0 0 Z " fill="#76A259" transform="translate(100,256)"/>
<path d="M0 0 C1.65 0 3.3 0 5 0 C5.33 1.32 5.66 2.64 6 4 C4.125 3.6875 4.125 3.6875 2 3 C1.34 2.01 0.68 1.02 0 0 Z " fill="#729E55" transform="translate(59,244)"/>
<path d="M0 0 C1.2077558 3.62326739 0.54311128 4.64146369 -1 8 C-1.66 7.34 -2.32 6.68 -3 6 C-2.75 3.4375 -2.75 3.4375 -2 1 C-1.34 0.67 -0.68 0.34 0 0 Z " fill="#232F7D" transform="translate(193,226)"/>
<path d="" fill="#000000" transform="translate(0,0)"/>
<path d="" fill="#000000" transform="translate(0,0)"/>
</svg>
