<?xml version="1.0" encoding="UTF-8"?>
<svg version="1.1" xmlns="http://www.w3.org/2000/svg" width="100" height="100">
<path d="M0 0 C27.06 0 54.12 0 82 0 C78.16682597 5.11089871 74.37108403 10.02009276 70.1875 14.8125 C65.7995753 19.88394009 61.50512641 25.01629099 57.27734375 30.22265625 C54.71795946 33.34396367 52.11406209 36.4245003 49.5 39.5 C45.38905839 44.33761246 41.34852915 49.22617519 37.34375 54.15234375 C34.12472801 58.06345547 30.84081057 61.91858408 27.54101562 65.76171875 C25.0053914 68.69812204 25.0053914 68.69812204 23 72 C42.47 72 61.94 72 82 72 C82 75.3 82 78.6 82 82 C54.94 82 27.88 82 0 82 C3.37232525 76.37945792 3.37232525 76.37945792 5.6015625 73.8359375 C6.0869751 73.27704834 6.5723877 72.71815918 7.07250977 72.14233398 C7.84099243 71.26750366 7.84099243 71.26750366 8.625 70.375 C9.7106191 69.12455125 10.79524606 67.8732405 11.87890625 66.62109375 C12.4114502 66.0060498 12.94399414 65.39100586 13.49267578 64.75732422 C15.55716656 62.35042357 17.56362879 59.89903941 19.5625 57.4375 C22.82778303 53.41641909 26.14557844 49.44654838 29.5 45.5 C33.6133088 40.65960192 37.65535845 35.76751065 41.6640625 30.83984375 C44.82719112 26.99436798 48.04907139 23.19992545 51.28320312 19.4140625 C53.62408718 16.66532309 55.8308411 13.89221187 58 11 C38.86 10.67 19.72 10.34 0 10 C0 6.7 0 3.4 0 0 Z " fill="#000000" transform="translate(9,9)"/>
</svg>
